<?xml version="1.0" encoding="UTF-8"?>
<!DOCTYPE svg PUBLIC "-//W3C//DTD SVG 1.1//EN" "http://www.w3.org/Graphics/SVG/1.1/DTD/svg11.dtd">
<!-- Creator: CorelDRAW -->
<svg xmlns="http://www.w3.org/2000/svg" xml:space="preserve" width="4.2333mm" height="4.1223mm" style="shape-rendering:geometricPrecision; text-rendering:geometricPrecision; image-rendering:optimizeQuality; fill-rule:evenodd; clip-rule:evenodd"
viewBox="0 0 0.692202 0.674052"
 xmlns:xlink="http://www.w3.org/1999/xlink">
 <defs>
  <style type="text/css">
   <![CDATA[
    .fil0 {fill:white}
   ]]>
  </style>
 </defs>
 <g id="图层_x0020_1">
  <metadata id="CorelCorpID_0Corel-Layer"/>
  <path class="fil0" d="M0.216263 0.566852c0,-0.00413689 0.00206027,-0.00619716 0.00619716,-0.00619716 0.00413689,0 0.00619716,0.00206027 0.00619716,0.00619716 0,0.00412054 -0.00206027,0.00619716 -0.00619716,0.00619716 -0.00413689,0 -0.00619716,-0.00207662 -0.00619716,-0.00619716zm-0.0282388 -0.00690027c0,-0.00412054 0.00206027,-0.00619716 0.00619716,-0.00619716 0.00459473,0 0.00688392,0.00207662 0.00688392,0.00619716 0,0.00459473 -0.00228919,0.00690027 -0.00688392,0.00690027 -0.00413689,0 -0.00619716,-0.00230554 -0.00619716,-0.00690027zm0.158412 -0.559952c0.047746,0 0.0926468,0.00905865 0.134653,0.0271923 0.042023,0.01815 0.0786337,0.0428242 0.109848,0.0740553 0.0312311,0.0312147 0.0559053,0.0678418 0.0740553,0.109848 0.0181337,0.042023 0.0272087,0.0869074 0.0272087,0.134653 0,0.0371993 -0.00562487,0.0728943 -0.0168909,0.107101 -0.0112334,0.0342234 -0.0268489,0.0654381 -0.0468303,0.0936769 -0.019965,0.0282388 -0.0439688,0.0530438 -0.0719623,0.0743823 -0.0280262,0.0213549 -0.0585542,0.0380005 -0.0916166,0.049937 -0.00505257,0.000915676 -0.0107919,0.00116095 -0.017218,0.000686757 -0.00642608,-0.000457838 -0.0103341,-0.00457838 -0.0117076,-0.0123943 -0.000915676,-0.00551041 -0.00171689,-0.0128522 -0.00240365,-0.0220416 -0.000703108,-0.00917311 -0.00116095,-0.0185915 -0.00138987,-0.0282388 -0.000228919,-0.00963095 -0.000457838,-0.0188204 -0.000686757,-0.027552 -0.000228919,-0.00871527 -0.000343378,-0.0151414 -0.000343378,-0.0192782 0,-0.00413689 -0.000801216,-0.00941838 -0.00240365,-0.0158445 -0.00161878,-0.00642608 -0.00345014,-0.0126232 -0.00551041,-0.0185915 -0.00207662,-0.00596824 -0.00413689,-0.0113642 -0.00619716,-0.0161878 -0.00207662,-0.00482365 -0.0035646,-0.00793041 -0.00448027,-0.00930392 -0.000915676,-0.000915676 0.00228919,-0.00194581 0.0096473,-0.00309041 0.00734176,-0.00116095 0.0166457,-0.00333568 0.0278791,-0.00655689 0.0112661,-0.00320487 0.0235459,-0.0077996 0.036856,-0.0137678 0.01331,-0.00596824 0.0257207,-0.0138987 0.0371993,-0.0237585 0.0114787,-0.00987622 0.0209951,-0.0220416 0.0285822,-0.0365126 0.00757068,-0.0144546 0.0113642,-0.0320323 0.0113642,-0.0526841 0,-0.0312311 -0.0018477,-0.0555619 -0.00551041,-0.0730088 -0.00367905,-0.0174469 -0.00758703,-0.0305443 -0.0117076,-0.0392596 -0.00505257,-0.0101051 -0.0107919,-0.0165312 -0.017218,-0.0192946 0.00274703,-0.0151414 0.0048073,-0.0289255 0.00619716,-0.0413199 0.000915676,-0.010563 0.00103014,-0.0206681 0.000343378,-0.0302991 -0.000686757,-0.0096473 -0.0035646,-0.0158445 -0.00861716,-0.0186078 -0.00505257,-0.00228919 -0.0125088,-0.00183135 -0.022385,0.00138987 -0.00985987,0.00320487 -0.0200795,0.00734176 -0.0306424,0.0123943 -0.0119365,0.00596824 -0.0247887,0.01331 -0.0385728,0.0220416 -0.00688392,-0.00230554 -0.0144546,-0.00436581 -0.0227284,-0.00619716 -0.00734176,-0.0018477 -0.0160734,-0.00345014 -0.0261785,-0.00482365 -0.0101051,-0.00138987 -0.0213549,-0.00207662 -0.0337492,-0.00207662 -0.0123943,0 -0.0242164,0.000686757 -0.0354661,0.00207662 -0.0112497,0.00137351 -0.0212404,0.00274703 -0.0299557,0.00412054 -0.0101051,0.0018477 -0.0195235,0.00390797 -0.0282388,0.00621351 -0.0137842,-0.00781595 -0.0266364,-0.0144709 -0.0385728,-0.0199814 -0.010563,-0.00505257 -0.020897,-0.00918946 -0.0310022,-0.0123943 -0.0101051,-0.00322122 -0.0174469,-0.00390797 -0.0220416,-0.00207662 -0.00503622,0.00230554 -0.00814297,0.00815933 -0.00928757,0.0175614 -0.00114459,0.00941838 -0.00150432,0.019638 -0.00103014,0.0306588 0.000457838,0.0128522 0.00160243,0.0270942 0.00343378,0.0427097 -0.00642608,0.00688392 -0.0121654,0.0151414 -0.017218,0.0247887 -0.00459473,0.00827378 -0.00860081,0.0183626 -0.0120509,0.0302991 -0.00345014,0.0119528 -0.00516703,0.0252628 -0.00516703,0.0399464 0,0.0211259 0.00217473,0.0397338 0.00654054,0.0557908 0.00436581,0.0160734 0.0102196,0.029972 0.0175614,0.0416796 0.00735811,0.0117076 0.01573,0.0215838 0.0251484,0.0296123 0.00941838,0.00804487 0.0189349,0.0145854 0.0285822,0.019638 0.0229573,0.0119365 0.0491358,0.0188204 0.0785192,0.0206518 -0.00367905,0.00413689 -0.00688392,0.00804487 -0.0096473,0.0117076 -0.00228919,0.00322122 -0.00436581,0.00632797 -0.00619716,0.00930392 -0.00183135,0.0029923 -0.00274703,0.00516703 -0.00274703,0.00654054 0,0.00138987 -0.000114459,0.00310676 -0.00035973,0.00516703 -0.000228919,0.00207662 -0.000572297,0.00425135 -0.00103014,0.00654054l-0.00137351 0.00690027c-0.00459473,0.00183135 -0.00941838,0.00343378 -0.0144709,0.0048073 -0.00412054,0.00138987 -0.00871527,0.00253446 -0.0137678,0.00345014 -0.00505257,0.000915676 -0.0101051,0.00137351 -0.0151577,0.00137351 -0.00505257,0 -0.0112497,-0.00263257 -0.0185915,-0.00791406 -0.00734176,-0.00528149 -0.0148143,-0.0113642 -0.022385,-0.0182481 -0.00757068,-0.00690027 -0.0144709,-0.0136697 -0.0206681,-0.0203247 -0.00619716,-0.006655 -0.0106774,-0.0113642 -0.0134245,-0.0141276 -0.00274703,-0.00228919 -0.00642608,-0.004235 -0.0110208,-0.00585378 -0.00459473,-0.00160243 -0.00918946,-0.00286149 -0.0137678,-0.00377716 -0.00459473,-0.000915676 -0.00873162,-0.00148797 -0.0124107,-0.00171689 -0.0036627,-0.00024527 -0.00619716,-0.000130811 -0.00757068,0.000343378 -0.00276338,0.00137351 -0.00482365,0.00331932 -0.00619716,0.00585378 -0.00137351,0.00251811 -0.000228919,0.00446392 0.00343378,0.00585378 0.0018477,0.000915676 0.00448027,0.00263257 0.00793041,0.00516703 0.00345014,0.00251811 0.00699838,0.00551041 0.0106774,0.00894419 0.0036627,0.00345014 0.00711284,0.00688392 0.0103341,0.0103341 0.00320487,0.00345014 0.00551041,0.00631162 0.00688392,0.00861716 0.00137351,0.00228919 0.00343378,0.00734176 0.00619716,0.0151414 0.00276338,0.00781595 0.0072273,0.0158445 0.0134245,0.0241182 0.00619716,0.00825743 0.0144709,0.0155992 0.024805,0.0220416 0.0103341,0.00642608 0.0242164,0.00963095 0.0416632,0.00963095 0.0119365,0 0.0210115,-0.000114459 0.0272087,-0.000343378 0.00619716,-0.000228919 0.0109064,-0.000572297 0.0141276,-0.00103014l0 0.0530438c0,0.00274703 -0.000343378,0.00585378 -0.00104649,0.00928757 -0.000686757,0.00345014 -0.00194581,0.00642608 -0.00377716,0.00896054 -0.0018477,0.00251811 -0.00436581,0.00436581 -0.00758703,0.00551041 -0.00320487,0.00114459 -0.00734176,0.00103014 -0.0123943,-0.000343378 -0.000915676,-0.000457838 -0.00228919,-0.000703108 -0.00413689,-0.000703108 -0.0335203,-0.0119365 -0.0642772,-0.0285822 -0.092287,-0.0499207 -0.0280099,-0.0213549 -0.0522262,-0.0462743 -0.0726654,-0.074742 -0.0204392,-0.0284677 -0.0363818,-0.0597969 -0.0478604,-0.0940039 -0.011495,-0.0342234 -0.017218,-0.0701473 -0.017218,-0.107804 0,-0.047746 0.00905865,-0.0926304 0.0271923,-0.134653 0.01815,-0.0420066 0.0428242,-0.0786337 0.0740553,-0.109848 0.0312147,-0.0312311 0.0679562,-0.0559053 0.110192,-0.0740553 0.0422519,-0.0181337 0.0872508,-0.0271923 0.134997,-0.0271923zm-0.0874634 0.592328c0.00183135,0.000457838 0.00320487,0.000915676 0.00412054,0.00138987 0.00230554,0.00137351 0.000915676,0.00228919 -0.00412054,0.00274703l0 -0.00413689zm-0.0137842 -0.0302991c0,-0.00459473 0.00206027,-0.00688392 0.00619716,-0.00688392 0.00413689,0 0.00619716,0.00228919 0.00619716,0.00688392 0,0.00413689 -0.00206027,0.00619716 -0.00619716,0.00619716 -0.00413689,0 -0.00619716,-0.00206027 -0.00619716,-0.00619716zm-0.122602 -0.0688883c0,-0.00274703 0.00161878,-0.00412054 0.00482365,-0.00412054 0.00322122,0 0.00482365,0.00137351 0.00482365,0.00412054 0,0.00322122 -0.00160243,0.00482365 -0.00482365,0.00482365 -0.00320487,0 -0.00482365,-0.00160243 -0.00482365,-0.00482365zm0.0461599 0.052357c0,-0.00413689 0.00206027,-0.00619716 0.00619716,-0.00619716 0.00412054,0 0.00619716,0.00206027 0.00619716,0.00619716 0,0.00459473 -0.00207662,0.00688392 -0.00619716,0.00688392 -0.00413689,0 -0.00619716,-0.00228919 -0.00619716,-0.00688392zm-0.0261785 -0.042023c0.00320487,0 0.00482365,0.00161878 0.00482365,0.00482365 0,0.00322122 -0.00161878,0.00482365 -0.00482365,0.00482365 -0.00322122,0 -0.00482365,-0.00160243 -0.00482365,-0.00482365 0,-0.00320487 0.00160243,-0.00482365 0.00482365,-0.00482365zm0.00688392 0.0227447c0,-0.00413689 0.00206027,-0.00621351 0.00619716,-0.00621351 0.00413689,0 0.00619716,0.00207662 0.00619716,0.00621351 0,0.00457838 -0.00206027,0.00688392 -0.00619716,0.00688392 -0.00413689,0 -0.00619716,-0.00230554 -0.00619716,-0.00688392z"/>
 </g>
</svg>
