<?xml version="1.0" encoding="UTF-8"?>
<!DOCTYPE svg PUBLIC "-//W3C//DTD SVG 1.1//EN" "http://www.w3.org/Graphics/SVG/1.1/DTD/svg11.dtd">
<!-- Creator: CorelDRAW -->
<svg xmlns="http://www.w3.org/2000/svg" xml:space="preserve" width="12.6831mm" height="4.5111mm" style="shape-rendering:geometricPrecision; text-rendering:geometricPrecision; image-rendering:optimizeQuality; fill-rule:evenodd; clip-rule:evenodd"
viewBox="0 0 12.683 4.51106"
 xmlns:xlink="http://www.w3.org/1999/xlink">
 <defs>
  <style type="text/css">
   <![CDATA[
    .fil0 {fill:white;fill-rule:nonzero}
   ]]>
  </style>
 </defs>
 <g id="图层_x0020_18">
  <metadata id="CorelCorpID_0Corel-Layer"/>
  <path class="fil0" d="M6.71175 2.69558l-0.279898 0 -1.05829 -1.63689c-0.0220998,-0.0342997 -0.0432997,-0.0765994 -0.0634995,-0.126999l-0.00709994 0c0.00659995,0.0521996 0.00989992,0.144899 0.00989992,0.277098l0 1.48679 -0.223398 0 0 -2.02868 0.294898 0 1.02959 1.61519c0.0474996,0.0743994 0.0747994,0.119099 0.0813994,0.133599l0.00519996 0c-0.00989992,-0.0667995 -0.0150999,-0.166899 -0.0150999,-0.300098l0 -1.44869 0.226298 0 0 2.02868zm-2.94818 -1.91338l-0.0129999 0.00439997 -0.0130999 0.00429997 -0.00859993 0.00429997 -0.0129999 0.00449996 -0.0130999 0.00429997 -0.0129999 0.00429997 -0.0129999 0.00439997 -0.00879993 0.00429997 -0.0129999 0.00429997 -0.0130999 0.00439997 -0.0129999 0.00429997 -0.00869993 0.00439997 -0.0130999 0.00439997 -0.0129999 0.00429997 -0.0129999 0.00429997 -0.0130999 0.00439997 -0.00859993 0.00429997 -0.0129999 0.00429997 -0.0130999 0.00439997 -0.0129999 0.00439997 -0.0130999 0.00429997 -0.00869993 0.00439997 -0.0129999 0.00429997 -0.0130999 0.00429997 -0.0129999 0.00439997 -0.00869993 0.00429997 -0.0129999 0.00429997 -0.0130999 0.00449996 -0.0129999 0.00429997 -0.0129999 0.00429997 -0.00869993 0.00439997 -0.0129999 0.00429997 -0.0130999 0.00429997 -0.0129999 0.00439997 -0.00869993 0.00439997 -0.0130999 0.00429997 -0.0129999 0.00439997 -0.0130999 0.00429997 -0.0129999 0.00429997 -0.00859993 0.00439997 -0.0130999 0.00429997 -0.0129999 0.00429997 -0.0129999 0.00449996 -0.0130999 0.00429997 -0.00869993 0.00429997 -0.0129999 0.00439997 -0.0130999 0.00429997 -0.0129999 0.00429997 -0.00879993 0.00439997 -0.0129999 0.00429997 -0.0129999 0.00439997 -0.0130999 0.00439997 -0.0129999 0.00429997 -0.00859993 0.00429997 -0.0130999 0.00439997 -0.0129999 0.00429997 -0.0130999 0.00429997 -0.0129999 0.00449996 -0.00869993 0.00429997 -0.0130999 0.00429997 -0.0129999 0.00439997 -0.0129999 0.00429997 -0.00879993 0.00429997 -0.0129999 0.00439997 -0.0129999 0.00429997 -0.0130999 0.00439997 -0.0129999 0.00439997 -0.00859993 0.00429997 -0.0130999 0.00429997 -0.0129999 0.00439997 -0.0130999 0.00429997 -0.0129999 0.00429997 -0.00869993 0.00439997 -0.0130999 0.00439997 -0.0129999 0.00429997 -0.0129999 0.00439997 -0.00869993 0.00429997 -0.0129999 0.00429997 -0.0130999 0.00439997 -0.0129999 0.00429997 -0.0129999 0.00439997 -0.00869993 0.00429997 -0.0130999 0.00439997 -0.0129999 0.00429997 -0.0130999 0.00439997 -0.0129999 0.00429997 -0.00869993 0.00429997 -0.0130999 0.00439997 -0.0129999 0.00439997 -0.0129999 0.00429997 -0.00869993 0.00429997 -0.0129999 0.00439997 -0.0129999 0.00429997 -0.0130999 0.00439997 -0.0129999 0.00429997 -0.00879993 0.00429997 -0.0129999 0.00439997 -0.0129999 0.00439997 -0.0130999 0.00429997 -0.0129999 0.00429997 -0.00869993 0.00439997 -0.0130999 0.00429997 -0.0129999 0.00439997 -0.0130999 0.00429997 -0.00859993 0.00439997 -0.0129999 0.00429997 -0.0130999 0.00439997 -0.0129999 0.00429997 -0.0129999 0.00429997 -0.00879993 0.00439997 -0.0129999 0.00429997 -0.0129999 0.00439997 -0.0130999 0.00439997 -0.0129999 0.00429997 -0.00869993 0.00429997 -0.0129999 0.00439997 -0.0130999 0.00429997 -0.0129999 0.00429997 -0.00869993 0.00439997 -0.0129999 0.00439997 -0.0130999 0.00429997 -0.0129999 0.00439997 -0.0129999 0.00429997 -0.00879993 0.00429997 -0.0129999 0.00439997 -0.0129999 0.00429997 -0.00869993 0.00429997 0 1.67329 0.00429997 0.00439997 0.00879993 0.00429997 0.00859993 0.00439997 0.00869993 0.00429997 0.00869993 0.00429997 0.0130999 0.00439997 0.00859993 0.00429997 0.00869993 0.00429997 0.00869993 0.00439997 0.00869993 0.00439997 0.00869993 0.00429997 0.00869993 0.00439997 0.00869993 0.00429997 0.0129999 0.00429997 0.00869993 0.00439997 0.00869993 0.00429997 0.00869993 0.00439997 0.00869993 0.00429997 0.00869993 0.00439997 0.00869993 0.00429997 0.00869993 0.00439997 0.0129999 0.00429997 0.00869993 0.00429997 0.00869993 0.00439997 0.00869993 0.00439997 0.00859993 0.00429997 0.00879993 0.00429997 0.00869993 0.00439997 0.00859993 0.00429997 0.0129999 0.00439997 0.00879993 0.00429997 0.00869993 0.00439997 0.00859993 0.00429997 0.00879993 0.00439997 0.00869993 0.00429997 0.00859993 0.00429997 0.00869993 0.00439997 0.00879993 0.00429997 0.0129999 0.00439997 0.00859993 0.00439997 0.00869993 0.00429997 0.00879993 0.00429997 0.00859993 0.00439997 0.00869993 0.00429997 0.00879993 0.00429997 0.00859993 0.00439997 0.0129999 0.00439997 0.00869993 0.00429997 0.00879993 0.00439997 0.00859993 0.00429997 0.00869993 0.00429997 0.00869993 0.00439997 0.00869993 0.00429997 0.00869993 0.00429997 0.0129999 0.00449996 0.00879993 0.00429997 0.00859993 0.00429997 0.00869993 0.00439997 0.00869993 0.00429997 0.00869993 0.00429997 0.00869993 0.00439997 0.00869993 0.00429997 0.0129999 0.00439997 0.00869993 0.00439997 0.00869993 0.00429997 0.00869993 0.00429997 0.00869993 0.00439997 0.00869993 0.00429997 0.00869993 0.00429997 0.00859993 0.00439997 0.00879993 0.00439997 0.0129999 0.00429997 0.00869993 0.00439997 0.00869993 0.00429997 0.00869993 0.00429997 0.00859993 0.00439997 0.00869993 0.00429997 0.00879993 0.00439997 0.00859993 0.00439997 0.0129999 0.00429997 0.00879993 0.00429997 0.00869993 0.00439997 0.00859993 0.00429997 0.00869993 0.00429997 0.00879993 0.00439997 0.00859993 0.00439997 0.00869993 0.00429997 0.0129999 0.00439997 0.00879993 0.00429997 0.00859993 0.00429997 0.00869993 0.00439997 0.00869993 0.00429997 0.00869993 0.00429997 0.00869993 0.00449996 0.00869993 0.00429997 0.00869993 0.00429997 0.0129999 0.00439997 0.00869993 0.00429997 0.00869993 0.00429997 0.00869993 0.00439997 0.00869993 0.00439997 0.00869993 0.00429997 0.00859993 0.00439997 0.00879993 0.00429997 0.0129999 0.00429997 0.00869993 0.00439997 0.00869993 0.00429997 0.00869993 0.00429997 0.00869993 0.00449996 0.00859993 0.00429997 0.00879993 0.00429997 0.00869993 0.00439997 0.0129999 0.00429997 0.00869993 0.00429997 0.00869993 0.00439997 0.00869993 0.00429997 0.00859993 0.00439997 0.00879993 0.00439997 0.00869993 0.00429997 0.00859993 0.00429997 0.0130999 0.00439997 0.00869993 0.00429997 0.00869993 0.00429997 0.00859993 0.00439997 0.00879993 0.00439997 0.00859993 0.00429997 0.00869993 0.00439997 0.00869993 0.00429997 0.00869993 0.00429997 0.0129999 0.00439997 0.00869993 0.00429997 0.00879993 0.00439997 0.00859993 0.00429997 0.00869993 0.00439997 0.00869993 0.00429997 0.00869993 0.00439997 0.00869993 0.00429997 0.0129999 0.00429997 0.00869993 0.00439997 0.00869993 0.00439997 0.00869993 0.00429997 0.00869993 0.00429997 0.00869993 0.00439997 0.00869993 0.00429997 0.00869993 0.00439997 0.0129999 0.00429997 0.00869993 0.00429997 0.00869993 0.00439997 0.00869993 0.00439997 0.00859993 0.00429997 0.00879993 0.00429997 0.00869993 0.00439997 0.00859993 0.00429997 0.0130999 0.00439997 0.00869993 0.00439997 0.00869993 0.00429997 0.00859993 0.00429997 0.00879993 0.00439997 0.00869993 0.00429997 0.00859993 0.00429997 0.00869993 0.00439997 0.00879993 0.00429997 0.0129999 0.00439997 0.00859993 0.00439997 0.00879993 0.00429997 0.00869993 0.00429997 0.00859993 0.00439997 0.00869993 0.00429997 0.00879993 0.00429997 0.00859993 0 0 -2.96388 -0.0129999 0 -0.0130999 0.00429997zm-3.14648 -0.195498l-0.0129999 0.00429997 -0.0130999 0.00429997 -0.00869993 0.00439997 -0.0129999 0.00439997 -0.0130999 0.00429997 -0.0129999 0.00439997 -0.0129999 0.00429997 -0.00869993 0.00429997 -0.0129999 0.00439997 -0.0129999 0.00429997 -0.0130999 0.00439997 -0.00869993 0.00429997 -0.0129999 0.00439997 -0.0130999 0.00429997 -0.0129999 0.00439997 -0.0130999 0.00429997 -0.00869993 0.00429997 -0.0129999 0.00439997 -0.0130999 0.00439997 -0.0129999 0.00429997 -0.0129999 0.00429997 -0.00869993 0.00439997 -0.0129999 0.00429997 -0.0129999 0.00439997 -0.0130999 0.00429997 -0.00869993 0.00439997 -0.0130999 0.00429997 -0.0129999 0.00439997 -0.0129999 0.00429997 -0.0130999 0.00429997 -0.00869993 0.00439997 -0.0129999 0.00429997 -0.0129999 0.00439997 -0.0130999 0.00439997 -0.0129999 0.00429997 -0.00869993 0.00429997 -0.0129999 0.00439997 -0.0130999 0.00429997 -0.0129999 0.00429997 -0.00869993 0.00439997 -0.0130999 0.00429997 -0.0129999 0.00439997 -0.0129999 0.00439997 -0.0130999 0.00429997 -0.00859993 0.00429997 -0.0129999 0.00439997 -0.00449996 0.00429997 0 0.00429997 0.00879993 0.00449996 0.00869993 0.00429997 0.00859993 0.00429997 0.00879993 0.00439997 0.0129999 0.00429997 0.00869993 0.00429997 0.00859993 0.00439997 0.00879993 0.00429997 0.00869993 0.00439997 0.00859993 0.00439997 0.00869993 0.00429997 0.00869993 0.00429997 0.0130999 0.00439997 0.00859993 0.00429997 0.00879993 0.00429997 0.00859993 0.00439997 0.00869993 0.00439997 0.00869993 0.00429997 0.00869993 0.00439997 0.00869993 0.00429997 0.00869993 0.00429997 0.0130999 0.00439997 0.00859993 0.00429997 0.00869993 0.00429997 0.00869993 0.00449996 0.00869993 0.00429997 0.00869993 0.00429997 0.00869993 0.00439997 0.00859993 0.00429997 0.0130999 0.00429997 0.00869993 0.00439997 0.00869993 0.00439997 0.00869993 0.00429997 0.00869993 0.00439997 0.00869993 0.00429997 0.00859993 0.00429997 0.00879993 0.00439997 0.0129999 0.00429997 0.00869993 0.00429997 0.00859993 0.00449996 0.00879993 0.00429997 0.00869993 0.00429997 0.00859993 0.00439997 0.00879993 0.00429997 0.00869993 0.00429997 0.00859993 0.00439997 0.0129999 0.00429997 0.00879993 0.00439997 0.00869993 0.00439997 0.00859993 0.00429997 0.00869993 0.00429997 0.00879993 0.00439997 0.00859993 0.00429997 0.00869993 0.00429997 0.0130999 0.00449996 0.00869993 0.00429997 0.00859993 0.00429997 0.00869993 0.00439997 0.00879993 0.00429997 0.00859993 0.00429997 0.00869993 0.00439997 0.00869993 0.00429997 0.0130999 0.00439997 0.00859993 0.00439997 0.00869993 0.00429997 0.00869993 0.00429997 0.00869993 0.00439997 0.00869993 0.00429997 0.00869993 0.00429997 0.00869993 0.00439997 0.00869993 0.00439997 0.0129999 0.00429997 0.00869993 0.00439997 0.00869993 0.00429997 0.00869993 0.00429997 0.00869993 0.00439997 0.00869993 0.00429997 0.00869993 0.00439997 0.00859993 0.00429997 0.0130999 0.00439997 0.00869993 0.00429997 0.00869993 0.00439997 0.00859993 0.00429997 0.00879993 0.00429997 0.00869993 0.00439997 0.00859993 0.00439997 0.00869993 0.00429997 0.0130999 0.00429997 0.00869993 0.00439997 0.00859993 0.00429997 0.00879993 0.00439997 0.00869993 0.00429997 0.00859993 0.00429997 0.00869993 0.00439997 0.00879993 0.00439997 0.00859993 0.00429997 0.0129999 0.00429997 0.00869993 0.00439997 0.00879993 0.00429997 0.00859993 0.00439997 0.00869993 0.00429997 0.00869993 0.00439997 0.00869993 0.00429997 0.00869993 0 0 0.00439997 0.0129999 0.00429997 0.00879993 0.00429997 0.00859993 0.00439997 0.00869993 0.00429997 0.00869993 0.00439997 0.00869993 0.00439997 0.00869993 0.00429997 0.00869993 0.00429997 0.0130999 0.00439997 0.00859993 0.00429997 0.00869993 0.00429997 0.00869993 0.00439997 0.00869993 0.00439997 0.00869993 0.00429997 0.00869993 0.00439997 0.00859993 0.00429997 0.0130999 0.00429997 0.00869993 0.00439997 0.00869993 0.00429997 0.00869993 0.00429997 0.00869993 0.00449996 0.00869993 0.00429997 0.00859993 0.00429997 0.00879993 0.00439997 0.00859993 0.00429997 0.0130999 0.00429997 0.00869993 0.00439997 0.00869993 0.00439997 0.00859993 0.00429997 0.00869993 0.00439997 0.00879993 0.00429997 0.00859993 0.00429997 0.00869993 0.00439997 0.0129999 0.00429997 0.00879993 0.00429997 0.00859993 0.00449996 0.00869993 0.00429997 0.00879993 0.00429997 0.00859993 0.00439997 0.00869993 0.00429997 0.00869993 0.00429997 0.0130999 0.00439997 0.00859993 0.00429997 0.00869993 0.00439997 0.00869993 0.00439997 0.00869993 0.00429997 0.00869993 0.00429997 0.00869993 0.00439997 0.00859993 0.00429997 0.00879993 0.00429997 0.0129999 0.00439997 0.00869993 0.00439997 0.00869993 0.00429997 0.00869993 0.00439997 0.00869993 0.00429997 0.00859993 0.00429997 0.00879993 0.00439997 0.00869993 0.00429997 0.0260998 0 0.0129999 -0.00429997 0.0130999 -0.00439997 0.00859993 -0.00429997 0.0129999 -0.00429997 0.0130999 -0.00439997 0.0129999 -0.00429997 0.0129999 -0.00439997 0.00879993 -0.00439997 0.0129999 -0.00429997 0.0129999 -0.00429997 0.0130999 -0.00439997 0.00869993 -0.00429997 0.0129999 -0.00429997 0.0130999 -0.00439997 0.0129999 -0.00439997 0.0129999 -0.00429997 0.00869993 -0.00439997 0.0129999 -0.00429997 0.0130999 -0.00429997 0.0129999 -0.00439997 0.0129999 -0.00429997 0.00879993 -0.00429997 0.0129999 -0.00449996 0.0129999 -0.00429997 0.0130999 -0.00429997 0.00859993 -0.00439997 0.0130999 -0.00429997 0.0129999 -0.00429997 0.0129999 -0.00439997 0.0130999 -0.00429997 0.00869993 -0.00439997 0.0129999 -0.00439997 0.0130999 -0.00429997 0.0129999 -0.00429997 0.0129999 -0.00439997 0.00879993 -0.00429997 0.0129999 -0.00429997 0.0129999 -0.00449996 0.0130999 -0.00429997 0.00859993 -0.00429997 0.0130999 -0.00439997 0.0129999 -0.00429997 0.0129999 -0.00429997 0.0130999 -0.00439997 0.00869993 -0.00429997 0.0129999 -0.00439997 0.0130999 -0.00439997 0.0129999 -0.00429997 0.0130999 -0.00429997 0.00869993 -0.00439997 0.0129999 -0.00429997 0.0130999 -0.00429997 0.0129999 -0.00439997 0.00859993 -0.00439997 0.0130999 -0.00429997 0.0129999 -0.00439997 0.0129999 -0.00429997 0.0130999 -0.00429997 0.00869993 -0.00439997 0.0129999 -0.00429997 0.0130999 -0.00439997 0.0129999 -0.00429997 0.0130999 -0.00439997 0.00859993 -0.00429997 0.0130999 -0.00439997 0.0129999 -0.00429997 0.0129999 -0.00429997 0.00869993 -0.00439997 0.0130999 -0.00439997 0.0129999 -0.00429997 0.0129999 -0.00429997 0.0130999 -0.00439997 0.00869993 -0.00429997 0.0129999 -0.00439997 0.0130999 -0.00429997 0.0129999 -0.00429997 0.0130999 -0.00439997 0.00859993 -0.00439997 0.0129999 -0.00429997 0.0130999 -0.00429997 0.0129999 -0.00439997 0.00869993 -0.00429997 0.0130999 -0.00439997 0.0129999 -0.00429997 0.0129999 -0.00439997 0.0130999 -0.00429997 0.00869993 -0.00439997 0.0130999 -0.00429997 0.0129999 -0.00429997 0.0129999 -0.00439997 0.00869993 -0.00429997 0.0129999 -0.00439997 0.0129999 -0.00439997 0.0130999 -0.00429997 0.0129999 -0.00429997 0.00869993 -0.00439997 0.0130999 -0.00429997 0.0129999 -0.00429997 0.0130999 -0.00439997 0.0129999 -0.00439997 0.00869993 -0.00429997 0.0129999 -0.00439997 0.0130999 -0.00429997 0.0129999 -0.00429997 0.00869993 -0.00439997 0.0129999 -0.00429997 0.0129999 -0.00429997 0.0130999 -0.00449996 0.0129999 -0.00429997 0.00869993 -0.00429997 0.0130999 -0.00439997 0.0129999 -0.00429997 0.0130999 -0.00429997 0.0129999 -0.00439997 0.00859993 -0.00439997 0.0130999 -0.00429997 0.0129999 -0.00439997 0.0129999 -0.00429997 0.00879993 -0.00429997 0.0129999 -0.00439997 0.0129999 -0.00429997 0.0130999 -0.00429997 0.0129999 -0.00449996 0.00869993 -0.00429997 0.0130999 -0.00429997 0.0129999 -0.00439997 0.0130999 -0.00429997 0.0129999 -0.00429997 0.00859993 -0.00439997 0.0130999 -0.00429997 0.0129999 -0.00439997 0.0129999 -0.00439997 0.00879993 -0.00429997 0.0129999 -0.00429997 0.0130999 -0.00439997 0.0129999 -0.00429997 0.0129999 -0.00429997 0.00879993 -0.00449996 0.0129999 -0.00429997 0.0129999 -0.00429997 0.0130999 -0.00439997 0.0129999 -0.00429997 0.00859993 -0.00429997 0.0130999 -0.00439997 0.0129999 -0.00429997 0.0130999 -0.00439997 0.00869993 -0.00439997 0.0129999 -0.00429997 0.0130999 -0.00429997 0.0129999 -0.00439997 0.0129999 -0.00429997 0.00869993 -0.00429997 0.0129999 -0.00439997 0.0130999 -0.00439997 0.0129999 -0.00429997 0.0129999 -0.00439997 0.00869993 -0.00429997 0.0130999 -0.00429997 0.0129999 -0.00439997 0.0130999 -0.00429997 0.00869993 -0.00429997 0.0129999 -0.00449996 0.0130999 -0.00429997 0.0129999 -0.00429997 0.0129999 -0.00439997 0.00869993 -0.00429997 0.0129999 -0.00429997 0.0129999 -0.00439997 0.0130999 -0.00439997 0.0129999 -0.00429997 0.00869993 -0.00439997 0.0130999 -0.00429997 0.0129999 -0.00429997 0.0130999 -0.00439997 0.00869993 -0.00429997 0.0129999 -0.00429997 0.0130999 -0.00439997 0.0129999 -0.00439997 0.0129999 -0.00429997 0.00869993 -0.00439997 0.0129999 -0.00429997 0.00439997 -0.00429997 0 -0.00439997 -0.00869993 -0.00429997 -0.00869993 -0.00439997 -0.00869993 -0.00429997 -0.00869993 -0.00439997 -0.00869993 -0.00429997 -0.00859993 -0.00439997 -0.00879993 -0.00429997 -0.0129999 -0.00429997 -0.00869993 -0.00439997 -0.00859993 -0.00439997 -0.00879993 -0.00429997 -0.00869993 -0.00429997 -0.00859993 -0.00439997 -0.00879993 -0.00429997 -0.00869993 -0.00439997 -0.0129999 -0.00429997 -0.00859993 -0.00439997 -0.00879993 -0.00429997 -0.00869993 -0.00439997 -0.00859993 -0.00429997 -0.00869993 -0.00429997 -0.00879993 -0.00439997 -0.00859993 -0.00429997 -0.0129999 -0.00439997 -0.00879993 -0.00439997 -0.00869993 -0.00429997 -0.00859993 -0.00429997 -0.00869993 -0.00439997 -0.00879993 -0.00429997 -0.00859993 -0.00429997 -0.00869993 -0.00439997 -0.00869993 -0.00429997 -0.0130999 -0.00439997 -0.00859993 -0.00439997 -0.00869993 -0.00429997 -0.00869993 -0.00429997 -0.00869993 -0.00439997 -0.00869993 -0.00429997 -0.00869993 -0.00429997 -0.00869993 -0.00449996 -0.0129999 -0.00429997 -0.00869993 -0.00429997 -0.00869993 -0.00439997 -0.00869993 -0.00429997 -0.00869993 -0.00429997 -0.00869993 -0.00439997 -0.00869993 -0.00429997 -0.00869993 -0.00439997 -0.0129999 -0.00439997 -0.00869993 -0.00429997 -0.00869993 -0.00429997 -0.00869993 -0.00439997 -0.00859993 -0.00429997 -0.00879993 -0.00429997 -0.00869993 -0.00439997 -0.00859993 -0.00439997 -0.00869993 -0.00429997 -0.0130999 -0.00439997 -0.00869993 -0.00429997 -0.00859993 -0.00429997 -0.00869993 -0.00439997 -0.00879993 -0.00429997 -0.00859993 -0.00439997 -0.00869993 -0.00439997 -0.00879993 -0.00429997 -0.0129999 -0.00429997 -0.00859993 -0.00439997 -0.00869993 -0.00429997 -0.00879993 -0.00429997 -0.00859993 -0.00439997 -0.00869993 -0.00439997 -0.00869993 -0.00429997 -0.00869993 -0.00439997 -0.0129999 -0.00429997 -0.00869993 -0.00429997 -0.00879993 -0.00439997 -0.00859993 -0.00429997 -0.00869993 -0.00429997 -0.00869993 -0.00449996 -0.00869993 -0.00429997 -0.00869993 -0.00429997 -0.00869993 -0.00439997 -0.0130999 -0.00429997 -0.00859993 -0.00429997 -0.00869993 -0.00439997 -0.00869993 -0.00429997 -0.00869993 -0.00439997 -0.00869993 -0.00439997 -0.00869993 -0.00429997 -0.00859993 -0.00429997 -0.0130999 -0.00439997 -0.00869993 -0.00429997 -0.00869993 -0.00429997 -0.00869993 -0.00439997 -0.00869993 -0.00439997 -0.00869993 -0.00429997 -0.00859993 -0.00439997 -0.00879993 -0.00429997 -0.0129999 -0.00429997 -0.00869993 -0.00439997 -0.00869993 -0.00429997 -0.00869993 -0.00439997 -0.00859993 -0.00429997 -0.00869993 -0.00439997 -0.00879993 -0.00429997 -0.00859993 -0.00439997 -0.00869993 -0.00429997 -0.0129999 -0.00429997 -0.00879993 -0.00439997 -0.00859993 -0.00439997 -0.00869993 -0.00429997 -0.00869993 -0.00429997 -0.00869993 -0.00439997 -0.00869993 -0.00429997 -0.00869993 -0.00439997 -0.0130999 -0.00429997 -0.00859993 -0.00439997 -0.00869993 -0.00429997 -0.00869993 -0.00439997 -0.00869993 -0.00429997 -0.00869993 -0.00429997 -0.00869993 -0.00439997 -0.00859993 -0.00429997 -0.0130999 -0.00439997 -0.00869993 -0.00439997 -0.00869993 -0.00429997 -0.00869993 -0.00429997 -0.00869993 -0.00439997 -0.00869993 -0.00429997 -0.00859993 -0.00429997 -0.00879993 -0.00439997 -0.00869993 -0.00429997 -0.0129999 -0.00439997 -0.00869993 -0.00439997 -0.00869993 -0.00429997 -0.00869993 -0.00429997 -0.00859993 -0.00439997 -0.00879993 -0.00429997 -0.00869993 -0.00429997 -0.00859993 -0.00449996 -0.0130999 -0.00429997 -0.00869993 -0.00429997 -0.00869993 -0.00439997 -0.00859993 -0.00429997 -0.00879993 -0.00429997 -0.00869993 -0.00439997 -0.00859993 -0.00429997 -0.00869993 -0.00439997 -0.0130999 -0.00439997 -0.00869993 -0.00429997 -0.00859993 -0.00429997 -0.00879993 -0.00439997 -0.00859993 -0.00429997 -0.00869993 -0.00429997 -0.00869993 -0.00439997 -0.00869993 -0.00439997 -0.00869993 -0.00429997 -0.0129999 -0.00439997 -0.00869993 -0.00429997 -0.00869993 -0.00429997 -0.00869993 -0.00439997 -0.00869993 -0.00429997 -0.0261998 0 -0.0128999 0.00429997 -0.0130999 0.00439997 -0.00859993 0.00429997 -0.0129999 0.00429997 -0.0130999 0.00439997 -0.0129999 0.00429997 -0.0130999 0.00439997 -0.00869993 0.00439997 -0.0129999 0.00429997 -0.0130999 0.00429997 -0.0129999 0.00439997 -0.00869993 0.00429997 -0.0130999 0.00429997 -0.0129999 0.00439997 -0.0129999 0.00439997 -0.0130999 0.00429997 -0.00859993 0.00439997 -0.0130999 0.00429997 -0.0129999 0.00429997 -0.0129999 0.00439997 -0.0130999 0.00429997 -0.00869993 0.00429997 -0.0129999 0.00449996 -0.0130999 0.00429997 -0.0129999 0.00429997 -0.00869993 0.00439997 -0.0130999 0.00429997 -0.0129999 0.00429997 -0.0129999 0.00439997 -0.0130999 0.00439997 -0.00859993 0.00429997 -0.0130999 0.00439997 -0.0129999 0.00429997 -0.0129999 0.00429997 -0.0130999 0.00439997 -0.00869993 0.00429997 -0.0129999 0.00429997 -0.0130999 0.00439997 -0.0129999 0.00439997 -0.00869993 0.00429997 -0.0129999 0.00439997 -0.0129999 0.00429997 -0.0130999 0.00429997 -0.0129999 0.00439997 -0.00869993 0.00429997 -0.0130999 0.00439997 -0.0129999 0.00429997 -0.0129999 0.00439997 -0.0130999 0.00429997 -0.00869993 0.00439997 -0.0129999 0.00429997 -0.0130999 0.00429997 -0.0129999 0.00439997 -0.00859993 0.00439997 -0.0130999 0.00429997 -0.0129999 0.00429997 -0.0130999 0.00439997 -0.0129999 0.00429997 -0.00869993 0.00439997 -0.0130999 0.00429997 -0.0129999 0.00439997 -0.0129999 0.00429997 -0.0130999 0.00439997 -0.00869993 0.00429997 -0.0130999 0.00429997 -0.0129999 0.00439997 -0.0129999 0.00429997 -0.00869993 0.00439997 -0.0129999 0.00439997 -0.0129999 0.00429997 -0.0130999 0.00429997 -0.0129999 0.00439997 -0.00869993 0.00429997 -0.0130999 0.00429997 -0.0129999 0.00439997 -0.0130999 0.00439997 -0.0129999 0.00429997 -0.00869993 0.00439997 -0.0129999 0.00429997 -0.0130999 0.00429997 -0.0129999 0.00439997 -0.00869993 0.00429997 -0.0129999 0.00429997 -0.0129999 0.00449996 -0.0130999 0.00429997 -0.0129999 0.00429997 -0.00869993 0.00439997 -0.0130999 0.00429997 -0.0129999 0.00429997 -0.0130999 0.00439997 -0.0129999 0.00429997 -0.00859993 0.00439997 -0.0130999 0.00439997 -0.0129999 0.00429997 -0.0129999 0.00429997 -0.00879993 0.00439997 -0.0129999 0.00429997 -0.0129999 0.00429997 -0.0130999 0.00439997 -0.0129999 0.00439997 -0.00869993 0.00429997 -0.0130999 0.00439997 -0.0129999 0.00429997 -0.0130999 0.00429997 -0.00859993 0.00439997 -0.0129999 0.00429997 -0.0130999 0.00439997 -0.0129999 0.00439997 -0.0129999 0.00429997 -0.00879993 0.00429997 -0.0129999 0.00439997 -0.0129999 0.00429997 -0.0130999 0.00429997 -0.0129999 0.00439997 -0.00879993 0.00439997 -0.0129999 0.00429997 -0.0129999 0.00439997 -0.0130999 0.00429997 -0.00859993 0.00429997 -0.0129999 0.00439997 -0.0130999 0.00429997 -0.0129999 0.00429997 -0.0130999 0.00449996 -0.00869993 0.00429997 -0.0129999 0.00429997 -0.0130999 0.00439997 -0.0129999 0.00429997 -0.0129999 0.00429997 -0.00869993 0.00439997 -0.0129999 0.00439997 -0.0130999 0.00429997 -0.0129999 0.00439997 -0.00869993 0.00429997 0 0.00429997 -0.0129999 0 -0.0130999 0.00439997zm-0.617095 3.21167l0.00869993 0.00429997 0.00859993 0.00429997 0.00879993 0.00439997 0.00869993 0.00439997 0.00859993 0.00429997 0.00869993 0.00439997 0.00879993 0.00429997 0.00859993 0.00429997 0.0129999 0.00439997 0.00879993 0.00429997 0.00869993 0.00429997 0.00859993 0.00449996 0.00869993 0.00429997 0.00869993 0.00429997 0.00869993 0.00439997 0.00869993 0.00429997 0.0129999 0.00429997 0.00869993 0.00439997 0.00869993 0.00429997 0.00869993 0.00439997 0.00869993 0.00439997 0.00869993 0.00429997 0.00869993 0.00429997 0.00869993 0.00439997 0.0129999 0.00429997 0.00869993 0.00429997 0.00869993 0.00449996 0.00869993 0.00429997 0.00869993 0.00429997 0.00869993 0.00439997 0.00859993 0.00429997 0.00869993 0.00429997 0.00879993 0.00439997 0.0129999 0.00429997 0.00859993 0.00439997 0.00879993 0.00439997 0.00869993 0.00429997 0.00859993 0.00429997 0.00869993 0.00439997 0.00879993 0.00429997 0.00859993 0.00429997 0.0129999 0.00439997 0.00879993 0.00439997 0.00869993 0.00429997 0.00859993 0.00439997 0.00869993 0.00429997 0.00879993 0.00429997 0.00859993 0.00439997 0.00869993 0.00429997 0.0130999 0.00439997 0.00869993 0.00429997 0.00859993 0.00439997 0.00869993 0.00429997 0.00879993 0.00439997 0.00859993 0.00429997 0.00869993 0.00429997 0.00869993 0.00439997 0.00869993 0.00439997 0.0129999 0.00429997 0.00869993 0.00429997 0.00879993 0.00439997 0.00859993 0.00429997 0.00869993 0.00439997 0.00869993 0.00429997 0.00869993 0.00429997 0.00869993 0.00439997 0.0129999 0.00439997 0.00869993 0.00429997 0.00869993 0.00429997 0.00869993 0.00439997 0.00869993 0.00429997 0.00859993 0.00439997 0.00879993 0.00429997 0.00869993 0.00439997 0.0129999 0.00429997 0.00869993 0.00439997 0.00869993 0.00429997 0.00869993 0.00429997 0.00859993 0.00439997 0.00879993 0.00429997 0.00859993 0.00439997 0.00869993 0.00439997 0.0130999 0.00429997 0.00869993 0.00429997 0.00859993 0.00439997 0.00869993 0.00429997 0.00879993 0.00429997 0.00859993 0.00439997 0.00869993 0.00439997 0.00869993 0.00429997 0.00869993 0 0 0.00439997 0.0129999 0.00429997 0.00869993 0.00429997 0.00879993 0.00439997 0.00859993 0.00429997 0.00869993 0.00429997 0.00869993 0.00449996 0.00869993 0.00429997 0.00869993 0.00429997 0.0129999 0.00439997 0.00879993 0.00429997 0.00859993 0.00429997 0.00869993 0.00439997 0.00869993 0.00439997 0.00869993 0.00429997 0.00869993 0.00439997 0.00869993 0.00429997 0.0129999 0.00429997 0.00869993 0.00439997 0.00869993 0.00429997 0.00869993 0.00429997 0.00869993 0.00449996 0.00869993 0.00429997 0.00869993 0.00429997 0.00859993 0.00439997 0.00879993 0.00429997 0.0129999 0.00429997 0.00869993 0.00439997 0.00859993 0.00429997 0.00879993 0.00439997 0.00869993 0.00439997 0.00859993 0.00429997 0.00879993 0.00429997 0.00869993 0.00439997 0.0129999 0.00429997 0.00859993 0.00429997 0.00879993 0.00439997 0.00869993 0.00439997 0.00859993 0.00429997 0.00869993 0.00439997 0.00869993 0.00429997 0.00869993 0.00429997 0.0129999 0.00439997 0.00879993 0.00429997 0.00859993 0.00439997 0.00869993 0.00439997 0.00869993 0.00429997 0.00869993 0.00429997 0.00869993 0.00439997 0.00869993 0.00429997 0.0130999 0.00429997 0.00859993 0.00439997 0.00869993 0.00439997 0.00869993 0.00429997 0.00869993 0.00439997 0.00869993 0.00429997 0.00869993 0.00429997 0.00859993 0.00439997 0.00879993 0.00429997 0.0129999 0.00429997 0.00869993 0.00449996 0.00869993 0.00429997 0.00869993 0.00429997 0.00869993 0.00439997 0.00859993 0.00429997 0.00879993 0.00429997 0.00869993 0.00439997 0.0129999 0.00439997 0.00859993 0.00429997 0.00879993 0.00439997 0.00869993 0.00429997 0.00859993 0.00429997 0.00879993 0.00439997 0.00859993 0.00429997 0.0130999 0 0 -0.486696 0 -0.825793 0 -1.63839 -0.00439997 -0.00439997 -0.00859993 -0.00429997 -0.0130999 -0.00429997 -0.00869993 -0.00439997 -0.00869993 -0.00429997 -0.00859993 -0.00439997 -0.00879993 -0.00439997 -0.00869993 -0.00429997 -0.00859993 -0.00429997 -0.00869993 -0.00439997 -0.0130999 -0.00429997 -0.00869993 -0.00429997 -0.00859993 -0.00439997 -0.00879993 -0.00439997 -0.00869993 -0.00429997 -0.00859993 -0.00439997 -0.00869993 -0.00429997 -0.00879993 -0.00429997 -0.00859993 -0.00439997 -0.0129999 -0.00429997 -0.00879993 -0.00439997 -0.00869993 -0.00439997 -0.00859993 -0.00429997 -0.00869993 -0.00429997 -0.00869993 -0.00439997 -0.00869993 -0.00429997 -0.00869993 -0.00429997 -0.0129999 -0.00439997 -0.00869993 -0.00439997 -0.00869993 -0.00429997 -0.00869993 -0.00439997 -0.00869993 -0.00429997 -0.00869993 -0.00429997 -0.00869993 -0.00439997 -0.00869993 -0.00429997 -0.00869993 -0.00429997 -0.0129999 -0.00449996 -0.00869993 -0.00429997 -0.00869993 -0.00429997 -0.00869993 -0.00439997 -0.00869993 -0.00429997 -0.00859993 -0.00429997 -0.00869993 -0.00439997 -0.00879993 -0.00429997 -0.0129999 -0.00439997 -0.00859993 -0.00439997 -0.00879993 -0.00429997 -0.00869993 -0.00429997 -0.00859993 -0.00439997 -0.00869993 -0.00429997 -0.00879993 -0.00429997 -0.00859993 -0.00449996 -0.0129999 -0.00429997 -0.00879993 -0.00429997 -0.00869993 -0.00439997 -0.00859993 -0.00429997 -0.00869993 -0.00429997 -0.00879993 -0.00439997 -0.00859993 -0.00429997 -0.00869993 -0.00439997 -0.00869993 -0.00439997 -0.0130999 -0.00429997 -0.00859993 -0.00429997 -0.00869993 -0.00439997 -0.00879993 -0.00429997 -0.00859993 -0.00429997 -0.00869993 -0.00439997 -0.00869993 -0.00439997 -0.00869993 -0.00429997 -0.0129999 -0.00439997 -0.00869993 -0.00429997 -0.00879993 -0.00429997 -0.00859993 -0.00439997 -0.00869993 -0.00429997 -0.00869993 -0.00439997 -0.00869993 -0.00429997 -0.00869993 -0.00439997 -0.0129999 -0.00429997 -0.00869993 -0.00439997 -0.00869993 -0.00429997 -0.00869993 -0.00429997 -0.00869993 -0.00439997 -0.00869993 -0.00439997 -0.00869993 -0.00429997 -0.00869993 -0.00429997 -0.00859993 -0.00439997 -0.0130999 -0.00429997 -0.00869993 -0.00439997 -0.00869993 -0.00429997 -0.00859993 -0.00429997 -0.00879993 -0.00439997 -0.00859993 -0.00439997 -0.00869993 -0.00429997 -0.00879993 -0.00429997 -0.0129999 -0.00439997 -0.00859993 -0.00429997 -0.00869993 -0.00439997 -0.00879993 -0.00429997 -0.00859993 -0.00439997 -0.00869993 -0.00429997 -0.00869993 -0.00439997 -0.00869993 -0.00429997 -0.0129999 -0.00429997 -0.00869993 -0.00439997 -0.00879993 -0.00429997 -0.00859993 -0.00439997 -0.00869993 -0.00439997 -0.00869993 -0.00429997 -0.00869993 -0.00429997 -0.00869993 -0.00439997 -0.00869993 -0.00429997 -0.0130999 -0.00429997 -0.00859993 -0.00439997 -0.00869993 -0.00439997 -0.00869993 -0.00429997 -0.00869993 -0.00439997 -0.00869993 -0.00429997 -0.00869993 -0.00429997 -0.00859993 -0.00439997 -0.0130999 -0.00429997 -0.00869993 -0.00429997 -0.00869993 -0.00449996 -0.00869993 -0.00429997 -0.00869993 -0.00429997 -0.00869993 -0.00439997 -0.00859993 -0.00429997 -0.00879993 -0.00429997 -0.00869993 -0.00439997 -0.0129999 -0.00439997 -0.00859993 -0.00429997 -0.00879993 -0.00439997 -0.00869993 -0.00429997 -0.00859993 -0.00429997 -0.00879993 -0.00439997 -0.00869993 -0.00429997 -0.00859993 -0.00429997 -0.00869993 0 -0.00429997 -0.00449996 -0.00879993 -0.00429997 -0.00869993 -0.00429997 -0.00859993 -0.00439997 -0.00869993 -0.00429997 -0.00869993 -0.00429997 -0.00869993 -0.00439997 -0.00869993 -0.00429997 -0.0130999 -0.00439997 -0.00859993 -0.00439997 -0.00869993 -0.00429997 -0.00869993 -0.00429997 -0.00869993 -0.00439997 -0.00869993 -0.00429997 -0.00869993 -0.00429997 -0.00869993 -0.00449996 -0.00869993 -0.00429997 -0.0129999 -0.00429997 -0.00869993 -0.00439997 -0.00869993 -0.00429997 -0.00869993 -0.00429997 -0.00869993 -0.00439997 -0.00859993 -0.00429997 -0.00879993 -0.00439997 -0.00869993 -0.00439997 -0.0129999 -0.00429997 -0.00869993 -0.00429997 -0.00869993 -0.00439997 -0.00869993 -0.00429997 -0.00429997 0 0 0.486796 0 1.38199 0 1.08649zm12.3266 0.0782994c0.0473996,0.0350997 0.0995992,0.0526996 0.156399,0.0526996 0.0772994,0 0.115899,-0.0260998 0.115899,-0.0780994 0,-0.0221998 -0.00849993,-0.0406997 -0.0253998,-0.0553996 -0.0168999,-0.0145999 -0.0500996,-0.0313998 -0.0996992,-0.0498996 -0.0572995,-0.0226998 -0.0958992,-0.0458996 -0.115999,-0.0692995 -0.0200998,-0.0234998 -0.0303998,-0.0530996 -0.0303998,-0.0888993 0,-0.0459996 0.0200998,-0.0835993 0.0599995,-0.112499 0.0399997,-0.0289998 0.0886993,-0.0433997 0.146199,-0.0433997 0.0461996,0 0.0878993,0.00789994 0.125099,0.0240998l0 0.0853993c-0.0401997,-0.0262998 -0.0862993,-0.0392997 -0.137899,-0.0392997 -0.0336997,0 -0.0603995,0.00739994 -0.0795994,0.0223998 -0.0191998,0.0149999 -0.0288998,0.0336997 -0.0288998,0.0560996 0,0.0240998 0.00699994,0.0425997 0.0212998,0.0552996 0.0144999,0.0126999 0.0454996,0.0285998 0.0932993,0.0474996 0.0647995,0.0251998 0.107099,0.0498996 0.126699,0.0738994 0.0194998,0.0241998 0.0293998,0.0528996 0.0293998,0.0863993 0,0.0481996 -0.0198998,0.0862993 -0.0595995,0.114299 -0.0398997,0.0281998 -0.0906993,0.0421997 -0.152699,0.0421997 -0.0560996,0 -0.104299,-0.0109999 -0.144099,-0.0329997l0 -0.0904993zm-0.0444996 0.105499c-0.0205998,0.0112999 -0.0468996,0.0168999 -0.0789994,0.0168999 -0.0932993,0 -0.139999,-0.0523996 -0.139999,-0.157499l0 -0.326697 -0.0939993 0 0 -0.0706994 0.0939993 0 0 -0.133299 0.0815994 -0.0262998 0 0.159599 0.137399 0 0 0.0706994 -0.137399 0 0 0.311698c0,0.0382997 0.00639995,0.0648995 0.0190998,0.0800994 0.0128999,0.0151999 0.0334997,0.0226998 0.0620995,0.0226998 0.0216998,0 0.0403997,-0.00599995 0.0561996,-0.0180999l0 0.0708994zm-0.340897 -0.246098l-0.384997 0c0.00169999,0.0627995 0.0184999,0.110799 0.0503996,0.143999 0.0318997,0.0332997 0.0745994,0.0498996 0.128399,0.0498996 0.0620995,0 0.118599,-0.0204998 0.169499,-0.0615995l0 0.0784994c-0.0484996,0.0355997 -0.111399,0.0532996 -0.188499,0.0532996 -0.0765994,0 -0.136399,-0.0250998 -0.179599,-0.0751994 -0.0433997,-0.0500996 -0.0648995,-0.119399 -0.0648995,-0.207898 0,-0.0823994 0.0237998,-0.150499 0.0712994,-0.204398 0.0475996,-0.0539996 0.106499,-0.0807994 0.176699,-0.0807994 0.0703994,0 0.124899,0.0228998 0.163499,0.0688995 0.0387997,0.0458996 0.0581995,0.109599 0.0581995,0.190898l0 0.0443996zm-0.0845993 -0.0722994c0,-0.0505996 -0.0121999,-0.0902993 -0.0365997,-0.118899 -0.0242998,-0.0284998 -0.0581995,-0.0427997 -0.101599,-0.0427997 -0.0408997,0 -0.0761994,0.0147999 -0.105799,0.0441997 -0.0295998,0.0294998 -0.0480996,0.0686995 -0.0553996,0.117499l0.299398 0zm-0.801394 0.212898c0.0473996,0.0350997 0.0995992,0.0526996 0.156399,0.0526996 0.0772994,0 0.115899,-0.0260998 0.115899,-0.0780994 0,-0.0221998 -0.00849993,-0.0406997 -0.0253998,-0.0553996 -0.0168999,-0.0145999 -0.0500996,-0.0313998 -0.0996992,-0.0498996 -0.0572995,-0.0226998 -0.0958992,-0.0458996 -0.115999,-0.0692995 -0.0200998,-0.0234998 -0.0303998,-0.0530996 -0.0303998,-0.0888993 0,-0.0459996 0.0200998,-0.0835993 0.0599995,-0.112499 0.0399997,-0.0289998 0.0886993,-0.0433997 0.146199,-0.0433997 0.0461996,0 0.0878993,0.00789994 0.125099,0.0240998l0 0.0853993c-0.0401997,-0.0262998 -0.0862993,-0.0392997 -0.137899,-0.0392997 -0.0336997,0 -0.0603995,0.00739994 -0.0795994,0.0223998 -0.0191998,0.0149999 -0.0288998,0.0336997 -0.0288998,0.0560996 0,0.0240998 0.00699994,0.0425997 0.0212998,0.0552996 0.0144999,0.0126999 0.0454996,0.0285998 0.0932993,0.0474996 0.0647995,0.0251998 0.107099,0.0498996 0.126699,0.0738994 0.0194998,0.0241998 0.0293998,0.0528996 0.0293998,0.0863993 0,0.0481996 -0.0198998,0.0862993 -0.0595995,0.114299 -0.0398997,0.0281998 -0.0906993,0.0421997 -0.152699,0.0421997 -0.0560996,0 -0.104299,-0.0109999 -0.144099,-0.0329997l0 -0.0904993zm-0.418997 0c0.0473996,0.0350997 0.0995992,0.0526996 0.156399,0.0526996 0.0772994,0 0.115899,-0.0260998 0.115899,-0.0780994 0,-0.0221998 -0.00849993,-0.0406997 -0.0253998,-0.0553996 -0.0168999,-0.0145999 -0.0500996,-0.0313998 -0.0996992,-0.0498996 -0.0572995,-0.0226998 -0.0958992,-0.0458996 -0.115999,-0.0692995 -0.0200998,-0.0234998 -0.0303998,-0.0530996 -0.0303998,-0.0888993 0,-0.0459996 0.0200998,-0.0835993 0.0599995,-0.112499 0.0399997,-0.0289998 0.0886993,-0.0433997 0.146199,-0.0433997 0.0461996,0 0.0878993,0.00789994 0.125099,0.0240998l0 0.0853993c-0.0401997,-0.0262998 -0.0862993,-0.0392997 -0.137899,-0.0392997 -0.0336997,0 -0.0603995,0.00739994 -0.0795994,0.0223998 -0.0191998,0.0149999 -0.0288998,0.0336997 -0.0288998,0.0560996 0,0.0240998 0.00699994,0.0425997 0.0212998,0.0552996 0.0144999,0.0126999 0.0454996,0.0285998 0.0932993,0.0474996 0.0647995,0.0251998 0.107099,0.0498996 0.126699,0.0738994 0.0194998,0.0241998 0.0293998,0.0528996 0.0293998,0.0863993 0,0.0481996 -0.0198998,0.0862993 -0.0595995,0.114299 -0.0398997,0.0281998 -0.0906993,0.0421997 -0.152699,0.0421997 -0.0560996,0 -0.104299,-0.0109999 -0.144099,-0.0329997l0 -0.0904993zm-0.463996 -0.393697c0.0530996,-0.0341997 0.114099,-0.0510996 0.182899,-0.0510996 0.126099,0 0.189199,0.0665995 0.189199,0.200298l0 0.355097 -0.0821994 0 0 -0.0851993 -0.00309998 0c-0.0375997,0.0653995 -0.0931993,0.0980992 -0.166899,0.0980992 -0.0530996,0 -0.0951992,-0.0140999 -0.126299,-0.0424997 -0.0311998,-0.0285998 -0.0468996,-0.0664995 -0.0468996,-0.113999 0,-0.100999 0.0595995,-0.159799 0.178899,-0.176199l0.163799 -0.0237998c0,-0.0943993 -0.0375997,-0.141599 -0.112699,-0.141599 -0.0660995,0 -0.124999,0.0224998 -0.176699,0.0676995l0 -0.0867993zm0.156599 0.246398c-0.0422997,0.00549996 -0.0736994,0.0158999 -0.0939993,0.0310998 -0.0204998,0.0150999 -0.0304998,0.0408997 -0.0304998,0.0773994 0,0.0276998 0.00969992,0.0498996 0.0290998,0.0666995 0.0195998,0.0168999 0.0450996,0.0253998 0.0766994,0.0253998 0.0436997,0 0.0800994,-0.0154999 0.108699,-0.0465996 0.0284998,-0.0309998 0.0427997,-0.0697994 0.0427997,-0.116799l0 -0.0547996 -0.132799 0.0175999zm-0.687695 0.257898l0 -0.803594 0.0816994 0 0 0.803594 -0.0816994 0zm-0.221098 0l0 -0.803594 0.0816994 0 0 0.803594 -0.0816994 0zm-0.498496 -0.504296c0.0530996,-0.0341997 0.114099,-0.0510996 0.182899,-0.0510996 0.126099,0 0.189199,0.0665995 0.189199,0.200298l0 0.355097 -0.0821994 0 0 -0.0851993 -0.00309998 0c-0.0375997,0.0653995 -0.0931993,0.0980992 -0.166899,0.0980992 -0.0530996,0 -0.0951992,-0.0140999 -0.126299,-0.0424997 -0.0311998,-0.0285998 -0.0468996,-0.0664995 -0.0468996,-0.113999 0,-0.100999 0.0595995,-0.159799 0.178899,-0.176199l0.163799 -0.0237998c0,-0.0943993 -0.0375997,-0.141599 -0.112699,-0.141599 -0.0660995,0 -0.124999,0.0224998 -0.176699,0.0676995l0 -0.0867993zm0.156599 0.246398c-0.0422997,0.00549996 -0.0736994,0.0158999 -0.0939993,0.0310998 -0.0204998,0.0150999 -0.0304998,0.0408997 -0.0304998,0.0773994 0,0.0276998 0.00969992,0.0498996 0.0290998,0.0666995 0.0195998,0.0168999 0.0450996,0.0253998 0.0766994,0.0253998 0.0436997,0 0.0800994,-0.0154999 0.108699,-0.0465996 0.0284998,-0.0309998 0.0427997,-0.0697994 0.0427997,-0.116799l0 -0.0547996 -0.132799 0.0175999zm-0.545596 0.252798c-0.0205998,0.0112999 -0.0468996,0.0168999 -0.0789994,0.0168999 -0.0932993,0 -0.139999,-0.0523996 -0.139999,-0.157499l0 -0.326697 -0.0939993 0 0 -0.0706994 0.0939993 0 0 -0.133299 0.0815994 -0.0262998 0 0.159599 0.137399 0 0 0.0706994 -0.137399 0 0 0.311698c0,0.0382997 0.00639995,0.0648995 0.0190998,0.0800994 0.0128999,0.0151999 0.0334997,0.0226998 0.0620995,0.0226998 0.0216998,0 0.0403997,-0.00599995 0.0561996,-0.0180999l0 0.0708994zm-0.335797 -0.453796c-0.0154999,-0.0116999 -0.0373997,-0.0174999 -0.0655995,-0.0174999 -0.0371997,0 -0.0683995,0.0179999 -0.0934993,0.0540996 -0.0251998,0.0363997 -0.0376997,0.0842993 -0.0376997,0.144299l0 0.277998 -0.0821994 0 0 -0.543096 0.0821994 0 0 0.112699 0.00189999 0c0.0125999,-0.0382997 0.0313998,-0.0681995 0.0566996,-0.0897993 0.0253998,-0.0214998 0.0535996,-0.0321997 0.0849993,-0.0321997 0.0226998,0 0.0404997,0.00239998 0.0531996,0.00719994l0 0.0862993zm-0.910293 0.194298c0,-0.0902993 0.0244998,-0.161399 0.0735994,-0.213198 0.0491996,-0.0516996 0.116199,-0.0775994 0.201398,-0.0775994 0.0791994,0 0.141599,0.0247998 0.187299,0.0745994 0.0454996,0.0496996 0.0683995,0.118999 0.0683995,0.207898 0,0.0860993 -0.0245998,0.155299 -0.0738994,0.207498 -0.0492996,0.0521996 -0.114299,0.0782994 -0.194898,0.0782994 -0.0787994,0 -0.142099,-0.0253998 -0.190099,-0.0763994 -0.0477996,-0.0509996 -0.0717994,-0.117999 -0.0717994,-0.201098zm0.0832993 -0.00369997c0,0.0641995 0.0166999,0.115399 0.0501996,0.153799 0.0336997,0.0384997 0.0782994,0.0576995 0.134099,0.0576995 0.0579995,0 0.102299,-0.0184999 0.133199,-0.0555996 0.0307998,-0.0369997 0.0461996,-0.0896993 0.0461996,-0.157799 0,-0.0685995 -0.0155999,-0.121699 -0.0465996,-0.159499 -0.0308998,-0.0376997 -0.0750994,-0.0565996 -0.132799,-0.0565996 -0.0560996,0 -0.100899,0.0195998 -0.134199,0.0583995 -0.0335997,0.0389997 -0.0500996,0.0921993 -0.0500996,0.159599zm-0.560796 0.188799l0 0.329597 -0.0821994 0 0 -0.793194 0.0821994 0 0 0.0960992 0.00189999 0c0.0431997,-0.0722994 0.105899,-0.108399 0.188199,-0.108399 0.0687995,0 0.123299,0.0240998 0.163399,0.0724994 0.0397997,0.0484996 0.0597995,0.113599 0.0597995,0.195598 0,0.0916993 -0.0223998,0.164499 -0.0673995,0.218898 -0.0449996,0.0540996 -0.105099,0.0812994 -0.180599,0.0812994 -0.0705994,0 -0.125099,-0.0308998 -0.163399,-0.0923993l-0.00189999 0zm0 -0.140599c0,0.0450996 0.0149999,0.0835993 0.0450996,0.115499 0.0301998,0.0317997 0.0677995,0.0477996 0.112899,0.0477996 0.0534996,0 0.0954992,-0.0204998 0.125999,-0.0615995 0.0302998,-0.0408997 0.0456996,-0.0981992 0.0456996,-0.171599 0,-0.0600995 -0.0144999,-0.107899 -0.0432997,-0.143399 -0.0286998,-0.0352997 -0.0669995,-0.0528996 -0.114999,-0.0528996 -0.0498996,0 -0.0909993,0.0177999 -0.123099,0.0532996 -0.0322997,0.0353997 -0.0482996,0.0801994 -0.0482996,0.134399l0 0.0784994zm-0.596095 0.140599l0 0.329597 -0.0821994 0 0 -0.793194 0.0821994 0 0 0.0960992 0.00189999 0c0.0431997,-0.0722994 0.105899,-0.108399 0.188199,-0.108399 0.0687995,0 0.123299,0.0240998 0.163399,0.0724994 0.0397997,0.0484996 0.0597995,0.113599 0.0597995,0.195598 0,0.0916993 -0.0223998,0.164499 -0.0673995,0.218898 -0.0449996,0.0540996 -0.105099,0.0812994 -0.180599,0.0812994 -0.0705994,0 -0.125099,-0.0308998 -0.163399,-0.0923993l-0.00189999 0zm0 -0.140599c0,0.0450996 0.0149999,0.0835993 0.0450996,0.115499 0.0301998,0.0317997 0.0677995,0.0477996 0.112899,0.0477996 0.0534996,0 0.0954992,-0.0204998 0.125999,-0.0615995 0.0302998,-0.0408997 0.0456996,-0.0981992 0.0456996,-0.171599 0,-0.0600995 -0.0144999,-0.107899 -0.0432997,-0.143399 -0.0286998,-0.0352997 -0.0669995,-0.0528996 -0.114999,-0.0528996 -0.0498996,0 -0.0909993,0.0177999 -0.123099,0.0532996 -0.0322997,0.0353997 -0.0482996,0.0801994 -0.0482996,0.134399l0 0.0784994zm-0.220198 0.220098l-0.0821994 0 0 -0.0856993 -0.00209998 0c-0.0357997,0.0657995 -0.0914993,0.0985992 -0.167399,0.0985992 -0.129499,0 -0.194398,-0.0770994 -0.194398,-0.231398l0 -0.324597 0.0811994 0 0 0.311198c0,0.116699 0.0443996,0.175099 0.133299,0.175099 0.0433997,0 0.0791994,-0.0161999 0.107299,-0.0482996 0.0279998,-0.0322997 0.0420997,-0.0740994 0.0420997,-0.125399l0 -0.312598 0.0821994 0 0 0.543096zm-0.887493 -0.110599c0.0473996,0.0350997 0.0995992,0.0526996 0.156399,0.0526996 0.0772994,0 0.115899,-0.0260998 0.115899,-0.0780994 0,-0.0221998 -0.00849993,-0.0406997 -0.0253998,-0.0553996 -0.0168999,-0.0145999 -0.0500996,-0.0313998 -0.0996992,-0.0498996 -0.0572995,-0.0226998 -0.0958992,-0.0458996 -0.115999,-0.0692995 -0.0200998,-0.0234998 -0.0303998,-0.0530996 -0.0303998,-0.0888993 0,-0.0459996 0.0200998,-0.0835993 0.0599995,-0.112499 0.0399997,-0.0289998 0.0886993,-0.0433997 0.146199,-0.0433997 0.0461996,0 0.0878993,0.00789994 0.125099,0.0240998l0 0.0853993c-0.0401997,-0.0262998 -0.0862993,-0.0392997 -0.137899,-0.0392997 -0.0336997,0 -0.0603995,0.00739994 -0.0795994,0.0223998 -0.0191998,0.0149999 -0.0288998,0.0336997 -0.0288998,0.0560996 0,0.0240998 0.00699994,0.0425997 0.0212998,0.0552996 0.0144999,0.0126999 0.0454996,0.0285998 0.0932993,0.0474996 0.0647995,0.0251998 0.107099,0.0498996 0.126699,0.0738994 0.0194998,0.0241998 0.0293998,0.0528996 0.0293998,0.0863993 0,0.0481996 -0.0198998,0.0862993 -0.0595995,0.114299 -0.0398997,0.0281998 -0.0906993,0.0421997 -0.152699,0.0421997 -0.0560996,0 -0.104299,-0.0109999 -0.144099,-0.0329997l0 -0.0904993zm3.77497 -2.17078c0,-0.324997 0.0879993,-0.585095 0.263398,-0.779794 0.175399,-0.194798 0.414897,-0.292098 0.717794,-0.292098 0.279398,0 0.504196,0.0949993 0.675395,0.284598 0.170799,0.189499 0.256398,0.434997 0.256398,0.736494 0,0.324597 -0.0865993,0.584695 -0.259198,0.780894 -0.172599,0.196098 -0.407797,0.293898 -0.705494,0.293898 -0.285098,0 -0.514196,-0.0949993 -0.687695,-0.285898 -0.173599,-0.190498 -0.260598,-0.436497 -0.260598,-0.738094zm0.234198 -0.0201998c0,0.245098 0.0648995,0.446896 0.194298,0.604895 0.129799,0.158099 0.302398,0.237098 0.518296,0.237098 0.230498,0 0.410197,-0.0747994 0.539596,-0.224398 0.128799,-0.149099 0.193298,-0.354197 0.193298,-0.615195 0,-0.265298 -0.0620995,-0.473196 -0.186799,-0.624195 -0.124099,-0.150499 -0.300498,-0.225798 -0.528196,-0.225798 -0.221498,0 -0.398397,0.0794994 -0.530996,0.238998 -0.133099,0.159399 -0.199498,0.362197 -0.199498,0.608595zm-0.647495 1.00989l-1.06539 0 0 -2.02868 1.01969 0 0 0.205598 -0.797694 0 0 0.688995 0.737094 0 0 0.203698 -0.737094 0 0 0.726294 0.843393 0 0 0.204098z"/>
 </g>
</svg>
