<?xml version="1.0" encoding="UTF-8"?>
<!DOCTYPE svg PUBLIC "-//W3C//DTD SVG 1.1//EN" "http://www.w3.org/Graphics/SVG/1.1/DTD/svg11.dtd">
<!-- Creator: CorelDRAW -->
<svg xmlns="http://www.w3.org/2000/svg" xml:space="preserve" width="12.6166mm" height="4.5111mm" style="shape-rendering:geometricPrecision; text-rendering:geometricPrecision; image-rendering:optimizeQuality; fill-rule:evenodd; clip-rule:evenodd"
viewBox="0 0 1.22108 0.436599"
 xmlns:xlink="http://www.w3.org/1999/xlink">
 <defs>
  <style type="text/css">
   <![CDATA[
    .fil0 {fill:white;fill-rule:nonzero}
   ]]>
  </style>
 </defs>
 <g id="图层_x0020_18">
  <metadata id="CorelCorpID_0Corel-Layer"/>
  <path class="fil0" d="M0.539828 0.323305c0.00827498,0.01324 0.0208084,0.0217472 0.0375907,0.0255314 -0.00211956,0.00260347 -0.00354227,0.00532308 -0.00425847,0.00815884 -0.00473271,-0.00189695 -0.00873954,-0.00391005 -0.0120592,-0.0060296l0 0.00568118c-0.00260347,-0.000241958 -0.00673612,-0.000367777 -0.0124076,-0.000367777l-0.00851693 0 0 0.0141981 0.0134819 0c0.00496499,0 0.00899117,-0.000125818 0.0120592,-0.000367777l0 0.0063877c-0.00306803,-0.000222602 -0.00709422,-0.00034842 -0.0120592,-0.00034842l-0.0134819 0 0 0.0159499 0.0138303 0c0.00709422,0 0.0128915,-0.000222602 0.0173823,-0.00069684l0 0.00744264c-0.00424879,-0.000706518 -0.00981383,-0.0010743 -0.0166758,-0.0010743l-0.0390037 0c-0.0071039,0 -0.0124076,0.000125818 -0.0159693,0.000367777l0 -0.0063877c0.00356163,0.000241958 0.00886535,0.00034842 0.0159693,0.00034842l0.0173823 0 0 -0.0159499 -0.00993965 0c-0.00803302,0 -0.0133658,0.000125818 -0.0159499,0.00034842l0 -0.0063877c0.00258412,0.000241958 0.00779106,0.000367777 0.0156015,0.000367777l0.0102881 0 0 -0.0141981 -0.00709422 0c-0.00733618,0 -0.0120592,0.000125818 -0.0141981,0.000367777l0 -0.00568118c-0.00211956,0.001655 -0.00614574,0.00413265 -0.0120592,0.00745232 -0.00140336,-0.00284543 -0.00306803,-0.00533276 -0.00496499,-0.00745232 0.00568118,-0.00142272 0.0123012,-0.00495531 0.0198696,-0.0106365 0.00756846,-0.0056715 0.0135884,-0.0131335 0.0180888,-0.0223473 0.00284543,0.00118076 0.00578764,0.00236151 0.00886535,0.00354227l-0.00177114 0.00178081zm-0.175575 -0.247591l-0.00125818 0.000416168 -0.00126786 0.000416168 -0.000832337 0.000425847 -0.00125818 0.000425847 -0.00126786 0.000416168 -0.00125818 0.000416168 -0.00125818 0.000425847 -0.000851693 0.000416168 -0.00125818 0.000425847 -0.00126786 0.000416168 -0.00125818 0.000416168 -0.000842015 0.000425847 -0.00126786 0.000425847 -0.00125818 0.000416168 -0.00125818 0.000416168 -0.00126786 0.000425847 -0.000832337 0.000416168 -0.00125818 0.000425847 -0.00126786 0.000416168 -0.00125818 0.000425847 -0.00126786 0.000416168 -0.000842015 0.000425847 -0.00125818 0.000416168 -0.00126786 0.000416168 -0.00125818 0.000425847 -0.000842015 0.000416168 -0.00125818 0.000416168 -0.00125818 0.000435525 -0.00126786 0.000416168 -0.00125818 0.000416168 -0.000842015 0.000425847 -0.00125818 0.000416168 -0.00126786 0.000416168 -0.00125818 0.000425847 -0.000842015 0.000425847 -0.00126786 0.000416168 -0.00125818 0.000425847 -0.00126786 0.000416168 -0.00125818 0.000416168 -0.000832337 0.000425847 -0.00126786 0.000416168 -0.00125818 0.000416168 -0.00125818 0.000435525 -0.00126786 0.000416168 -0.000842015 0.000416168 -0.00125818 0.000425847 -0.00126786 0.000416168 -0.00125818 0.000416168 -0.000851693 0.000425847 -0.00125818 0.000416168 -0.00125818 0.000425847 -0.00126786 0.000425847 -0.00125818 0.000416168 -0.000832337 0.000416168 -0.00126786 0.000425847 -0.00125818 0.000416168 -0.00126786 0.000416168 -0.00125818 0.000435525 -0.000842015 0.000416168 -0.00126786 0.000416168 -0.00125818 0.000425847 -0.00125818 0.000416168 -0.000851693 0.000416168 -0.00125818 0.000425847 -0.00125818 0.000416168 -0.00126786 0.000425847 -0.00125818 0.000425847 -0.000832337 0.000416168 -0.00126786 0.000416168 -0.00125818 0.000425847 -0.00126786 0.000416168 -0.00125818 0.000416168 -0.000842015 0.000425847 -0.00126786 0.000425847 -0.00125818 0.000416168 -0.00125818 0.000425847 -0.000842015 0.000416168 -0.00125818 0.000416168 -0.00126786 0.000425847 -0.00125818 0.000416168 -0.00125818 0.000425847 -0.000842015 0.000425847 -0.00126786 0.000416168 -0.00125818 0.000416168 -0.00126786 0.000425847 -0.00125818 0.000416168 -0.000842015 0.000416168 -0.00126786 0.000425847 -0.00125818 0.000425847 -0.00125818 0.000416168 -0.000842015 0.000425847 -0.00125818 0.000416168 -0.00125818 0.000416168 -0.00126786 0.000425847 -0.00125818 0.000416168 -0.000851693 0.000416168 -0.00125818 0.000425847 -0.00125818 0.000425847 -0.00126786 0.000416168 -0.00125818 0.000425847 -0.000842015 0.000416168 -0.00126786 0.000416168 -0.00125818 0.000425847 -0.00126786 0.000416168 -0.000832337 0.000425847 -0.00125818 0.000416168 -0.00126786 0.000425847 -0.00125818 0.000416168 -0.00125818 0.000425847 -0.000851693 0.000416168 -0.00125818 0.000416168 -0.00125818 0.000425847 -0.00126786 0.000425847 -0.00125818 0.000416168 -0.000842015 0.000416168 -0.00126786 0.000425847 -0.00125818 0.000416168 -0.00125818 0.000425847 -0.000842015 0.000416168 -0.00125818 0.000425847 -0.00126786 0.000416168 -0.00125818 0.000425847 -0.00125818 0.000416168 -0.000851693 0.000416168 -0.00125818 0.000425847 -0.00125818 0.000416168 -0.000842015 0.000425847 0 0.161938 0.000416168 0.000425847 0.000842015 0.000416168 0.000842015 0.000425847 0.000842015 0.000416168 0.000842015 0.000416168 0.00125818 0.000425847 0.000842015 0.000416168 0.000842015 0.000416168 0.000842015 0.000435525 0.000842015 0.000416168 0.000842015 0.000416168 0.000842015 0.000425847 0.000842015 0.000416168 0.00125818 0.000416168 0.000842015 0.000425847 0.000842015 0.000416168 0.000842015 0.000425847 0.000842015 0.000425847 0.000832337 0.000416168 0.000851693 0.000416168 0.000842015 0.000425847 0.00125818 0.000416168 0.000842015 0.000416168 0.000842015 0.000435525 0.000842015 0.000416168 0.000832337 0.000416168 0.000851693 0.000425847 0.000842015 0.000416168 0.000832337 0.000416168 0.00125818 0.000425847 0.000851693 0.000416168 0.000842015 0.000425847 0.000832337 0.000416168 0.000851693 0.000425847 0.000842015 0.000416168 0.000832337 0.000425847 0.000842015 0.000416168 0.000851693 0.000416168 0.00125818 0.000425847 0.000832337 0.000425847 0.000842015 0.000416168 0.000851693 0.000416168 0.000832337 0.000425847 0.000842015 0.000416168 0.000851693 0.000425847 0.000832337 0.000416168 0.00125818 0.000425847 0.000842015 0.000416168 0.000851693 0.000425847 0.000832337 0.000416168 0.000842015 0.000416168 0.000842015 0.000425847 0.000842015 0.000416168 0.000842015 0.000425847 0.00125818 0.000425847 0.000851693 0.000416168 0.000832337 0.000416168 0.000842015 0.000425847 0.000842015 0.000416168 0.000842015 0.000416168 0.000842015 0.000425847 0.000842015 0.000416168 0.00125818 0.000425847 0.000842015 0.000425847 0.000842015 0.000416168 0.000842015 0.000416168 0.000842015 0.000425847 0.000842015 0.000416168 0.000842015 0.000416168 0.000832337 0.000425847 0.000851693 0.000425847 0.00125818 0.000416168 0.000842015 0.000425847 0.000842015 0.000416168 0.000842015 0.000416168 0.000832337 0.000425847 0.000842015 0.000416168 0.000851693 0.000425847 0.000832337 0.000425847 0.00125818 0.000416168 0.000851693 0.000416168 0.000842015 0.000425847 0.000832337 0.000416168 0.000842015 0.000416168 0.000851693 0.000425847 0.000832337 0.000425847 0.000842015 0.000416168 0.00125818 0.000425847 0.000851693 0.000416168 0.000832337 0.000416168 0.000842015 0.000425847 0.000842015 0.000416168 0.000842015 0.000416168 0.000842015 0.000435525 0.000842015 0.000416168 0.000842015 0.000416168 0.00125818 0.000425847 0.000842015 0.000416168 0.000842015 0.000416168 0.000842015 0.000425847 0.000842015 0.000425847 0.000842015 0.000416168 0.000832337 0.000425847 0.000851693 0.000416168 0.00125818 0.000416168 0.000842015 0.000425847 0.000842015 0.000416168 0.000842015 0.000416168 0.000842015 0.000435525 0.000832337 0.000416168 0.000851693 0.000416168 0.000842015 0.000425847 0.00125818 0.000416168 0.000842015 0.000416168 0.000842015 0.000425847 0.000842015 0.000416168 0.000832337 0.000425847 0.000851693 0.000425847 0.000842015 0.000416168 0.000832337 0.000416168 0.00126786 0.000425847 0.000842015 0.000416168 0.000842015 0.000416168 0.000832337 0.000425847 0.000851693 0.000425847 0.000842015 0.000416168 0.000832337 0.000425847 0.000842015 0.000416168 0.000842015 0.000416168 0.00126786 0.000425847 0.000832337 0.000416168 0.000851693 0.000425847 0.000832337 0.000425847 0.000842015 0.000416168 0.000842015 0.000416168 0.000842015 0.000425847 0.000842015 0.000416168 0.00125818 0.000416168 0.000842015 0.000425847 0.000842015 0.000425847 0.000842015 0.000416168 0.000842015 0.000425847 0.000842015 0.000416168 0.000842015 0.000416168 0.000842015 0.000425847 0.00125818 0.000416168 0.000842015 0.000416168 0.000842015 0.000425847 0.000842015 0.000425847 0.000832337 0.000416168 0.000851693 0.000425847 0.000842015 0.000416168 0.000832337 0.000416168 0.00126786 0.000425847 0.000842015 0.000425847 0.000842015 0.000416168 0.000832337 0.000416168 0.000851693 0.000425847 0.000842015 0.000416168 0.000832337 0.000425847 0.000842015 0.000416168 0.000851693 0.000416168 0.00125818 0.000425847 0.000832337 0.000425847 0.000851693 0.000416168 0.000842015 0.000416168 0.000832337 0.000425847 0.000842015 0.000416168 0.000851693 0.000425847 0.000832337 0 0 -0.286866 -0.00125818 0 -0.00126786 0.000425847zm-0.304529 -0.0189308l-0.00125818 0.000416168 -0.00126786 0.000416168 -0.000842015 0.000435525 -0.00125818 0.000416168 -0.00126786 0.000416168 -0.00125818 0.000425847 -0.00125818 0.000416168 -0.000842015 0.000416168 -0.00126786 0.000425847 -0.00125818 0.000416168 -0.00125818 0.000425847 -0.000842015 0.000425847 -0.00125818 0.000416168 -0.00126786 0.000416168 -0.00125818 0.000425847 -0.00126786 0.000416168 -0.000842015 0.000416168 -0.00125818 0.000425847 -0.00126786 0.000425847 -0.00125818 0.000416168 -0.00125818 0.000425847 -0.000842015 0.000416168 -0.00125818 0.000416168 -0.00126786 0.000425847 -0.00125818 0.000416168 -0.000842015 0.000425847 -0.00126786 0.000425847 -0.00125818 0.000416168 -0.00125818 0.000416168 -0.00126786 0.000425847 -0.000842015 0.000416168 -0.00125818 0.000416168 -0.00126786 0.000425847 -0.00125818 0.000425847 -0.00126786 0.000416168 -0.000832337 0.000425847 -0.00125818 0.000416168 -0.00126786 0.000416168 -0.00125818 0.000425847 -0.000842015 0.000416168 -0.00126786 0.000416168 -0.00125818 0.000425847 -0.00125818 0.000425847 -0.00126786 0.000416168 -0.000842015 0.000425847 -0.00125818 0.000416168 -0.000425847 0.000416168 0 0.000425847 0.000851693 0.000425847 0.000832337 0.000416168 0.000842015 0.000416168 0.000851693 0.000425847 0.00125818 0.000416168 0.000832337 0.000425847 0.000842015 0.000416168 0.000851693 0.000416168 0.000832337 0.000425847 0.000842015 0.000425847 0.000842015 0.000416168 0.000842015 0.000416168 0.00125818 0.000425847 0.000842015 0.000416168 0.000851693 0.000425847 0.000832337 0.000416168 0.000842015 0.000425847 0.000842015 0.000416168 0.000842015 0.000425847 0.000842015 0.000416168 0.000842015 0.000416168 0.00126786 0.000425847 0.000832337 0.000416168 0.000842015 0.000416168 0.000842015 0.000435525 0.000842015 0.000416168 0.000842015 0.000416168 0.000842015 0.000425847 0.000832337 0.000416168 0.00126786 0.000416168 0.000842015 0.000425847 0.000842015 0.000425847 0.000842015 0.000416168 0.000842015 0.000425847 0.000842015 0.000416168 0.000832337 0.000416168 0.000851693 0.000425847 0.00125818 0.000416168 0.000842015 0.000416168 0.000832337 0.000435525 0.000851693 0.000416168 0.000842015 0.000416168 0.000832337 0.000425847 0.000851693 0.000416168 0.000832337 0.000416168 0.000842015 0.000425847 0.00125818 0.000416168 0.000851693 0.000425847 0.000832337 0.000425847 0.000842015 0.000416168 0.000842015 0.000416168 0.000842015 0.000425847 0.000842015 0.000416168 0.000842015 0.000416168 0.00126786 0.000435525 0.000832337 0.000416168 0.000842015 0.000416168 0.000842015 0.000425847 0.000842015 0.000416168 0.000842015 0.000416168 0.000842015 0.000425847 0.000832337 0.000416168 0.00126786 0.000425847 0.000842015 0.000425847 0.000842015 0.000416168 0.000842015 0.000416168 0.000842015 0.000425847 0.000842015 0.000416168 0.000832337 0.000416168 0.000851693 0.000425847 0.000842015 0.000425847 0.00125818 0.000416168 0.000842015 0.000425847 0.000842015 0.000416168 0.000842015 0.000416168 0.000832337 0.000425847 0.000851693 0.000416168 0.000842015 0.000425847 0.000832337 0.000425847 0.00126786 0.000416168 0.000842015 0.000416168 0.000842015 0.000425847 0.000832337 0.000416168 0.000851693 0.000416168 0.000842015 0.000425847 0.000832337 0.000425847 0.000842015 0.000416168 0.00126786 0.000425847 0.000842015 0.000416168 0.000832337 0.000416168 0.000851693 0.000425847 0.000842015 0.000416168 0.000832337 0.000416168 0.000842015 0.000425847 0.000842015 0.000425847 0.000842015 0.000416168 0.00125818 0.000425847 0.000842015 0.000416168 0.000851693 0.000416168 0.000832337 0.000425847 0.000842015 0.000416168 0.000842015 0.000425847 0.000842015 0.000416168 0.000842015 0 0 0.000425847 0.00125818 0.000416168 0.000842015 0.000425847 0.000842015 0.000416168 0.000842015 0.000416168 0.000842015 0.000425847 0.000842015 0.000425847 0.000842015 0.000416168 0.000842015 0.000416168 0.00125818 0.000425847 0.000842015 0.000416168 0.000842015 0.000425847 0.000842015 0.000416168 0.000842015 0.000425847 0.000842015 0.000416168 0.000832337 0.000425847 0.000842015 0.000416168 0.00126786 0.000416168 0.000842015 0.000425847 0.000832337 0.000416168 0.000851693 0.000425847 0.000842015 0.000425847 0.000832337 0.000416168 0.000842015 0.000416168 0.000851693 0.000425847 0.000832337 0.000416168 0.00125818 0.000416168 0.000851693 0.000425847 0.000842015 0.000425847 0.000832337 0.000416168 0.000842015 0.000425847 0.000851693 0.000416168 0.000832337 0.000416168 0.000842015 0.000425847 0.00125818 0.000416168 0.000851693 0.000416168 0.000832337 0.000435525 0.000842015 0.000416168 0.000851693 0.000416168 0.000832337 0.000425847 0.000842015 0.000416168 0.000842015 0.000416168 0.00126786 0.000425847 0.000832337 0.000416168 0.000842015 0.000425847 0.000842015 0.000425847 0.000842015 0.000416168 0.000842015 0.000416168 0.000842015 0.000425847 0.000832337 0.000416168 0.000851693 0.000416168 0.00125818 0.000425847 0.000842015 0.000425847 0.000842015 0.000416168 0.000842015 0.000425847 0.000842015 0.000416168 0.000832337 0.000416168 0.000851693 0.000425847 0.000842015 0.000416168 0.00252605 0 0.00125818 -0.000416168 0.00125818 -0.000425847 0.000842015 -0.000416168 0.00125818 -0.000416168 0.00126786 -0.000425847 0.00125818 -0.000416168 0.00125818 -0.000425847 0.000851693 -0.000425847 0.00125818 -0.000416168 0.00125818 -0.000416168 0.00126786 -0.000425847 0.000832337 -0.000416168 0.00126786 -0.000416168 0.00125818 -0.000425847 0.00125818 -0.000425847 0.00126786 -0.000416168 0.000842015 -0.000425847 0.00125818 -0.000416168 0.00126786 -0.000416168 0.00125818 -0.000425847 0.00125818 -0.000416168 0.000851693 -0.000416168 0.00125818 -0.000435525 0.00125818 -0.000416168 0.00126786 -0.000416168 0.000832337 -0.000425847 0.00125818 -0.000416168 0.00126786 -0.000416168 0.00125818 -0.000425847 0.00126786 -0.000416168 0.000842015 -0.000425847 0.00125818 -0.000425847 0.00126786 -0.000416168 0.00125818 -0.000416168 0.00125818 -0.000425847 0.000851693 -0.000416168 0.00125818 -0.000416168 0.00125818 -0.000425847 0.00126786 -0.000425847 0.000832337 -0.000416168 0.00126786 -0.000425847 0.00125818 -0.000416168 0.00125818 -0.000416168 0.00126786 -0.000425847 0.000842015 -0.000416168 0.00125818 -0.000425847 0.00126786 -0.000416168 0.00125818 -0.000425847 0.00126786 -0.000416168 0.000842015 -0.000425847 0.00125818 -0.000416168 0.00125818 -0.000416168 0.00126786 -0.000425847 0.000832337 -0.000425847 0.00126786 -0.000416168 0.00125818 -0.000416168 0.00125818 -0.000425847 0.00126786 -0.000416168 0.000842015 -0.000425847 0.00125818 -0.000416168 0.00126786 -0.000425847 0.00125818 -0.000416168 0.00126786 -0.000425847 0.000832337 -0.000416168 0.00125818 -0.000416168 0.00126786 -0.000425847 0.00125818 -0.000416168 0.000842015 -0.000425847 0.00126786 -0.000425847 0.00125818 -0.000416168 0.00125818 -0.000416168 0.00126786 -0.000425847 0.000842015 -0.000416168 0.00125818 -0.000416168 0.00126786 -0.000425847 0.00125818 -0.000416168 0.00126786 -0.000425847 0.000832337 -0.000425847 0.00125818 -0.000416168 0.00126786 -0.000416168 0.00125818 -0.000425847 0.000842015 -0.000416168 0.00126786 -0.000416168 0.00125818 -0.000425847 0.00125818 -0.000425847 0.00126786 -0.000416168 0.000842015 -0.000425847 0.00126786 -0.000416168 0.00125818 -0.000416168 0.00125818 -0.000425847 0.000842015 -0.000416168 0.00125818 -0.000425847 0.00125818 -0.000425847 0.00126786 -0.000416168 0.00125818 -0.000416168 0.000842015 -0.000425847 0.00126786 -0.000416168 0.00125818 -0.000416168 0.00126786 -0.000425847 0.00125818 -0.000425847 0.000842015 -0.000416168 0.00125818 -0.000425847 0.00126786 -0.000416168 0.00125818 -0.000416168 0.000842015 -0.000425847 0.00125818 -0.000416168 0.00125818 -0.000416168 0.00126786 -0.000435525 0.00125818 -0.000416168 0.000842015 -0.000416168 0.00126786 -0.000425847 0.00125818 -0.000416168 0.00126786 -0.000416168 0.00125818 -0.000425847 0.000832337 -0.000425847 0.00126786 -0.000416168 0.00125818 -0.000425847 0.00125818 -0.000416168 0.000851693 -0.000416168 0.00125818 -0.000425847 0.00125818 -0.000416168 0.00126786 -0.000416168 0.00125818 -0.000435525 0.000842015 -0.000416168 0.00126786 -0.000416168 0.00125818 -0.000425847 0.00126786 -0.000416168 0.00125818 -0.000416168 0.000832337 -0.000425847 0.00126786 -0.000416168 0.00125818 -0.000425847 0.00125818 -0.000425847 0.000851693 -0.000416168 0.00125818 -0.000416168 0.00126786 -0.000425847 0.00125818 -0.000416168 0.00125818 -0.000416168 0.000851693 -0.000435525 0.00125818 -0.000416168 0.00125818 -0.000416168 0.00126786 -0.000425847 0.00125818 -0.000416168 0.000832337 -0.000416168 0.00126786 -0.000425847 0.00125818 -0.000416168 0.00126786 -0.000425847 0.000842015 -0.000416168 0.00125818 -0.000425847 0.00126786 -0.000416168 0.00125818 -0.000425847 0.00125818 -0.000416168 0.000842015 -0.000416168 0.00126786 -0.000425847 0.00125818 -0.000425847 0.00125818 -0.000416168 0.00126786 -0.000416168 0.000832337 -0.000425847 0.00126786 -0.000416168 0.00125818 -0.000425847 0.00126786 -0.000416168 0.000842015 -0.000416168 0.00125818 -0.000425847 0.00126786 -0.000425847 0.00125818 -0.000416168 0.00125818 -0.000416168 0.000842015 -0.000425847 0.00125818 -0.000416168 0.00125818 -0.000425847 0.00126786 -0.000425847 0.00125818 -0.000416168 0.000842015 -0.000416168 0.00126786 -0.000425847 0.00125818 -0.000416168 0.00126786 -0.000416168 0.000842015 -0.000425847 0.00125818 -0.000416168 0.00126786 -0.000425847 0.00125818 -0.000425847 0.00125818 -0.000416168 0.000842015 -0.000416168 0.00125818 -0.000425847 0.000425847 -0.000416168 0 -0.000416168 -0.000842015 -0.000425847 -0.000842015 -0.000425847 -0.000842015 -0.000416168 -0.000842015 -0.000425847 -0.000842015 -0.000416168 -0.000832337 -0.000416168 -0.000851693 -0.000425847 -0.00125818 -0.000416168 -0.000842015 -0.000425847 -0.000832337 -0.000425847 -0.000851693 -0.000416168 -0.000842015 -0.000416168 -0.000832337 -0.000425847 -0.000851693 -0.000416168 -0.000842015 -0.000416168 -0.00125818 -0.000425847 -0.000832337 -0.000425847 -0.000851693 -0.000416168 -0.000842015 -0.000425847 -0.000832337 -0.000416168 -0.000842015 -0.000416168 -0.000851693 -0.000425847 -0.000832337 -0.000416168 -0.00125818 -0.000416168 -0.000851693 -0.000435525 -0.000842015 -0.000416168 -0.000832337 -0.000416168 -0.000842015 -0.000425847 -0.000842015 -0.000416168 -0.000842015 -0.000416168 -0.000842015 -0.000425847 -0.000842015 -0.000416168 -0.00125818 -0.000425847 -0.000842015 -0.000425847 -0.000842015 -0.000416168 -0.000842015 -0.000416168 -0.000842015 -0.000425847 -0.000842015 -0.000416168 -0.000842015 -0.000416168 -0.000842015 -0.000435525 -0.00125818 -0.000416168 -0.000842015 -0.000416168 -0.000842015 -0.000425847 -0.000842015 -0.000416168 -0.000842015 -0.000416168 -0.000832337 -0.000425847 -0.000851693 -0.000416168 -0.000842015 -0.000425847 -0.00125818 -0.000425847 -0.000842015 -0.000416168 -0.000842015 -0.000416168 -0.000842015 -0.000425847 -0.000832337 -0.000416168 -0.000851693 -0.000416168 -0.000842015 -0.000425847 -0.000832337 -0.000425847 -0.000842015 -0.000416168 -0.00126786 -0.000425847 -0.000842015 -0.000416168 -0.000832337 -0.000416168 -0.000842015 -0.000425847 -0.000851693 -0.000416168 -0.000832337 -0.000425847 -0.000842015 -0.000425847 -0.000851693 -0.000416168 -0.00125818 -0.000416168 -0.000832337 -0.000425847 -0.000842015 -0.000416168 -0.000851693 -0.000416168 -0.000832337 -0.000425847 -0.000842015 -0.000425847 -0.000842015 -0.000416168 -0.000842015 -0.000425847 -0.00125818 -0.000416168 -0.000842015 -0.000416168 -0.000851693 -0.000425847 -0.000832337 -0.000416168 -0.000842015 -0.000416168 -0.000842015 -0.000425847 -0.000842015 -0.000425847 -0.000842015 -0.000416168 -0.000842015 -0.000425847 -0.00126786 -0.000416168 -0.000832337 -0.000416168 -0.000842015 -0.000425847 -0.000842015 -0.000416168 -0.000842015 -0.000425847 -0.000842015 -0.000416168 -0.000842015 -0.000425847 -0.000832337 -0.000416168 -0.00126786 -0.000425847 -0.000842015 -0.000416168 -0.000842015 -0.000416168 -0.000842015 -0.000425847 -0.000842015 -0.000425847 -0.000842015 -0.000416168 -0.000832337 -0.000416168 -0.000851693 -0.000425847 -0.00125818 -0.000416168 -0.000842015 -0.000425847 -0.000842015 -0.000416168 -0.000842015 -0.000425847 -0.000832337 -0.000416168 -0.000842015 -0.000425847 -0.000851693 -0.000416168 -0.000832337 -0.000416168 -0.000842015 -0.000425847 -0.00125818 -0.000416168 -0.000851693 -0.000425847 -0.000832337 -0.000425847 -0.000842015 -0.000416168 -0.000842015 -0.000416168 -0.000842015 -0.000425847 -0.000842015 -0.000416168 -0.000842015 -0.000416168 -0.00126786 -0.000425847 -0.000832337 -0.000425847 -0.000842015 -0.000416168 -0.000842015 -0.000425847 -0.000842015 -0.000416168 -0.000842015 -0.000416168 -0.000842015 -0.000425847 -0.000832337 -0.000416168 -0.00126786 -0.000416168 -0.000842015 -0.000435525 -0.000842015 -0.000416168 -0.000842015 -0.000416168 -0.000842015 -0.000425847 -0.000842015 -0.000416168 -0.000832337 -0.000416168 -0.000851693 -0.000425847 -0.000842015 -0.000416168 -0.00125818 -0.000425847 -0.000842015 -0.000425847 -0.000842015 -0.000416168 -0.000842015 -0.000416168 -0.000832337 -0.000425847 -0.000851693 -0.000416168 -0.000842015 -0.000416168 -0.000832337 -0.000435525 -0.00126786 -0.000416168 -0.000842015 -0.000416168 -0.000842015 -0.000425847 -0.000832337 -0.000416168 -0.000851693 -0.000416168 -0.000842015 -0.000425847 -0.000832337 -0.000416168 -0.000842015 -0.000425847 -0.00126786 -0.000425847 -0.000842015 -0.000416168 -0.000832337 -0.000416168 -0.000851693 -0.000425847 -0.000842015 -0.000416168 -0.000832337 -0.000416168 -0.000842015 -0.000425847 -0.000842015 -0.000425847 -0.000842015 -0.000416168 -0.00125818 -0.000425847 -0.000842015 -0.000416168 -0.000842015 -0.000416168 -0.000842015 -0.000425847 -0.000842015 -0.000416168 -0.00253572 0 -0.00124851 0.000416168 -0.00126786 0.000425847 -0.000832337 0.000416168 -0.00126786 0.000416168 -0.00125818 0.000425847 -0.00125818 0.000416168 -0.00126786 0.000425847 -0.000842015 0.000425847 -0.00125818 0.000416168 -0.00126786 0.000416168 -0.00125818 0.000425847 -0.000842015 0.000416168 -0.00126786 0.000416168 -0.00125818 0.000425847 -0.00125818 0.000425847 -0.00126786 0.000416168 -0.000832337 0.000425847 -0.00126786 0.000416168 -0.00125818 0.000416168 -0.00125818 0.000425847 -0.00126786 0.000416168 -0.000842015 0.000416168 -0.00125818 0.000435525 -0.00126786 0.000416168 -0.00125818 0.000416168 -0.000842015 0.000425847 -0.00126786 0.000416168 -0.00125818 0.000416168 -0.00126786 0.000425847 -0.00125818 0.000425847 -0.000832337 0.000416168 -0.00126786 0.000425847 -0.00125818 0.000416168 -0.00125818 0.000416168 -0.00126786 0.000425847 -0.000842015 0.000416168 -0.00125818 0.000416168 -0.00126786 0.000435525 -0.00125818 0.000416168 -0.000842015 0.000416168 -0.00126786 0.000425847 -0.00125818 0.000416168 -0.00125818 0.000416168 -0.00126786 0.000425847 -0.000832337 0.000416168 -0.00126786 0.000425847 -0.00125818 0.000425847 -0.00125818 0.000416168 -0.00126786 0.000416168 -0.000842015 0.000425847 -0.00125818 0.000416168 -0.00126786 0.000416168 -0.00125818 0.000425847 -0.000842015 0.000425847 -0.00125818 0.000416168 -0.00125818 0.000425847 -0.00126786 0.000416168 -0.00125818 0.000416168 -0.000842015 0.000425847 -0.00126786 0.000416168 -0.00125818 0.000425847 -0.00125818 0.000416168 -0.00126786 0.000425847 -0.000842015 0.000416168 -0.00126786 0.000425847 -0.00125818 0.000416168 -0.00125818 0.000416168 -0.000842015 0.000425847 -0.00125818 0.000425847 -0.00125818 0.000416168 -0.00126786 0.000416168 -0.00125818 0.000425847 -0.000842015 0.000416168 -0.00126786 0.000425847 -0.00125818 0.000416168 -0.00126786 0.000425847 -0.00125818 0.000416168 -0.000842015 0.000425847 -0.00126786 0.000416168 -0.00125818 0.000416168 -0.00125818 0.000425847 -0.000842015 0.000416168 -0.00125818 0.000425847 -0.00125818 0.000425847 -0.00126786 0.000416168 -0.00125818 0.000416168 -0.000842015 0.000425847 -0.00126786 0.000416168 -0.00125818 0.000416168 -0.00126786 0.000425847 -0.00125818 0.000416168 -0.000842015 0.000425847 -0.00125818 0.000425847 -0.00126786 0.000416168 -0.00125818 0.000416168 -0.000842015 0.000425847 -0.00125818 0.000416168 -0.00125818 0.000416168 -0.00126786 0.000425847 -0.00125818 0.000425847 -0.000842015 0.000416168 -0.00126786 0.000425847 -0.00125818 0.000416168 -0.00126786 0.000416168 -0.000832337 0.000425847 -0.00125818 0.000416168 -0.00126786 0.000425847 -0.00125818 0.000425847 -0.00126786 0.000416168 -0.000842015 0.000416168 -0.00125818 0.000425847 -0.00125818 0.000416168 -0.00126786 0.000416168 -0.00125818 0.000425847 -0.000851693 0.000425847 -0.00125818 0.000416168 -0.00125818 0.000425847 -0.00126786 0.000416168 -0.000832337 0.000416168 -0.00125818 0.000425847 -0.00126786 0.000416168 -0.00125818 0.000416168 -0.00126786 0.000435525 -0.000842015 0.000416168 -0.00125818 0.000416168 -0.00126786 0.000425847 -0.00125818 0.000416168 -0.00125818 0.000416168 -0.000851693 0.000425847 -0.00125818 0.000425847 -0.00125818 0.000416168 -0.00126786 0.000425847 -0.000832337 0.000416168 0 0.000416168 -0.00125818 0 -0.00126786 0.000425847zm-0.059725 0.310839l0.000832337 0.000416168 0.000842015 0.000416168 0.000851693 0.000425847 0.000832337 0.000425847 0.000842015 0.000416168 0.000842015 0.000425847 0.000842015 0.000416168 0.000842015 0.000416168 0.00125818 0.000425847 0.000851693 0.000416168 0.000832337 0.000416168 0.000842015 0.000435525 0.000842015 0.000416168 0.000842015 0.000416168 0.000842015 0.000425847 0.000842015 0.000416168 0.00125818 0.000416168 0.000842015 0.000425847 0.000842015 0.000416168 0.000842015 0.000425847 0.000832337 0.000425847 0.000851693 0.000416168 0.000842015 0.000416168 0.000832337 0.000425847 0.00126786 0.000416168 0.000842015 0.000416168 0.000842015 0.000435525 0.000832337 0.000416168 0.000851693 0.000416168 0.000842015 0.000425847 0.000832337 0.000416168 0.000842015 0.000416168 0.000851693 0.000425847 0.00125818 0.000416168 0.000832337 0.000425847 0.000851693 0.000425847 0.000842015 0.000416168 0.000832337 0.000416168 0.000842015 0.000425847 0.000842015 0.000416168 0.000842015 0.000416168 0.00125818 0.000425847 0.000851693 0.000425847 0.000842015 0.000416168 0.000832337 0.000425847 0.000842015 0.000416168 0.000842015 0.000416168 0.000842015 0.000425847 0.000842015 0.000416168 0.00126786 0.000425847 0.000832337 0.000425847 0.000842015 0.000416168 0.000842015 0.000416168 0.000842015 0.000425847 0.000842015 0.000416168 0.000842015 0.000416168 0.000842015 0.000425847 0.000842015 0.000425847 0.00125818 0.000416168 0.000842015 0.000425847 0.000842015 0.000416168 0.000842015 0.000416168 0.000842015 0.000425847 0.000832337 0.000416168 0.000851693 0.000416168 0.000842015 0.000435525 0.00125818 0.000416168 0.000832337 0.000416168 0.000851693 0.000425847 0.000842015 0.000416168 0.000832337 0.000416168 0.000842015 0.000425847 0.000851693 0.000416168 0.000832337 0.000425847 0.00125818 0.000425847 0.000851693 0.000416168 0.000842015 0.000416168 0.000832337 0.000425847 0.000842015 0.000416168 0.000851693 0.000416168 0.000832337 0.000425847 0.000842015 0.000425847 0.00126786 0.000416168 0.000842015 0.000425847 0.000832337 0.000416168 0.000842015 0.000416168 0.000851693 0.000425847 0.000832337 0.000416168 0.000842015 0.000425847 0.000842015 0.000416168 0.000842015 0 0 0.000425847 0.00125818 0.000416168 0.000842015 0.000425847 0.000851693 0.000416168 0.000832337 0.000416168 0.000842015 0.000425847 0.000842015 0.000425847 0.000842015 0.000416168 0.000842015 0.000416168 0.00125818 0.000425847 0.000842015 0.000416168 0.000842015 0.000425847 0.000842015 0.000416168 0.000842015 0.000425847 0.000842015 0.000416168 0.000842015 0.000425847 0.000842015 0.000416168 0.00125818 0.000416168 0.000842015 0.000425847 0.000842015 0.000416168 0.000842015 0.000416168 0.000842015 0.000435525 0.000842015 0.000416168 0.000842015 0.000416168 0.000832337 0.000425847 0.000851693 0.000416168 0.00125818 0.000416168 0.000842015 0.000425847 0.000832337 0.000416168 0.000851693 0.000425847 0.000832337 0.000425847 0.000842015 0.000416168 0.000851693 0.000416168 0.000832337 0.000425847 0.00125818 0.000416168 0.000842015 0.000416168 0.000851693 0.000425847 0.000832337 0.000425847 0.000842015 0.000416168 0.000842015 0.000425847 0.000842015 0.000416168 0.000842015 0.000416168 0.00125818 0.000425847 0.000851693 0.000416168 0.000832337 0.000425847 0.000842015 0.000425847 0.000842015 0.000416168 0.000842015 0.000416168 0.000842015 0.000425847 0.000842015 0.000416168 0.00126786 0.000416168 0.000832337 0.000425847 0.000842015 0.000425847 0.000842015 0.000416168 0.000842015 0.000425847 0.000842015 0.000416168 0.000842015 0.000416168 0.000832337 0.000425847 0.000851693 0.000416168 0.00125818 0.000416168 0.000842015 0.000435525 0.000842015 0.000416168 0.000842015 0.000416168 0.000842015 0.000425847 0.000832337 0.000416168 0.000851693 0.000416168 0.000842015 0.000425847 0.00125818 0.000425847 0.000832337 0.000416168 0.000851693 0.000425847 0.000842015 0.000416168 0.000832337 0.000416168 0.000851693 0.000425847 0.000832337 0.000416168 0.00126786 0 0 -0.0471045 0 -0.0799237 0 -0.15857 -0.000425847 -0.000425847 -0.000832337 -0.000416168 -0.00126786 -0.000416168 -0.000842015 -0.000425847 -0.000842015 -0.000416168 -0.000832337 -0.000425847 -0.000851693 -0.000425847 -0.000842015 -0.000416168 -0.000832337 -0.000416168 -0.000842015 -0.000425847 -0.00126786 -0.000416168 -0.000842015 -0.000416168 -0.000832337 -0.000425847 -0.000851693 -0.000425847 -0.000842015 -0.000416168 -0.000832337 -0.000425847 -0.000842015 -0.000416168 -0.000851693 -0.000416168 -0.000832337 -0.000425847 -0.00125818 -0.000416168 -0.000851693 -0.000425847 -0.000842015 -0.000425847 -0.000832337 -0.000416168 -0.000842015 -0.000416168 -0.000851693 -0.000425847 -0.000832337 -0.000416168 -0.000842015 -0.000416168 -0.00125818 -0.000425847 -0.000851693 -0.000425847 -0.000832337 -0.000416168 -0.000842015 -0.000425847 -0.000851693 -0.000416168 -0.000832337 -0.000416168 -0.000842015 -0.000425847 -0.000842015 -0.000416168 -0.000842015 -0.000416168 -0.00125818 -0.000435525 -0.000842015 -0.000416168 -0.000842015 -0.000416168 -0.000842015 -0.000425847 -0.000842015 -0.000416168 -0.000842015 -0.000416168 -0.000832337 -0.000425847 -0.000851693 -0.000416168 -0.00125818 -0.000425847 -0.000842015 -0.000425847 -0.000842015 -0.000416168 -0.000842015 -0.000416168 -0.000842015 -0.000425847 -0.000832337 -0.000416168 -0.000851693 -0.000416168 -0.000832337 -0.000425847 -0.00126786 -0.000425847 -0.000842015 -0.000416168 -0.000842015 -0.000425847 -0.000832337 -0.000416168 -0.000842015 -0.000416168 -0.000851693 -0.000425847 -0.000832337 -0.000416168 -0.000842015 -0.000425847 -0.000842015 -0.000416168 -0.00126786 -0.000425847 -0.000832337 -0.000416168 -0.000842015 -0.000425847 -0.000851693 -0.000416168 -0.000832337 -0.000416168 -0.000842015 -0.000425847 -0.000842015 -0.000425847 -0.000842015 -0.000416168 -0.00125818 -0.000416168 -0.000842015 -0.000425847 -0.000851693 -0.000416168 -0.000832337 -0.000425847 -0.000842015 -0.000416168 -0.000842015 -0.000425847 -0.000842015 -0.000416168 -0.000842015 -0.000425847 -0.00125818 -0.000416168 -0.000842015 -0.000416168 -0.000842015 -0.000425847 -0.000842015 -0.000416168 -0.000842015 -0.000425847 -0.000842015 -0.000425847 -0.000842015 -0.000416168 -0.000842015 -0.000416168 -0.000832337 -0.000425847 -0.00126786 -0.000416168 -0.000842015 -0.000416168 -0.000842015 -0.000425847 -0.000832337 -0.000416168 -0.000851693 -0.000425847 -0.000842015 -0.000425847 -0.000832337 -0.000416168 -0.000851693 -0.000416168 -0.00125818 -0.000425847 -0.000842015 -0.000416168 -0.000832337 -0.000416168 -0.000851693 -0.000425847 -0.000842015 -0.000425847 -0.000832337 -0.000416168 -0.000842015 -0.000425847 -0.000851693 -0.000416168 -0.00125818 -0.000416168 -0.000832337 -0.000425847 -0.000851693 -0.000416168 -0.000842015 -0.000425847 -0.000832337 -0.000425847 -0.000842015 -0.000416168 -0.000842015 -0.000416168 -0.000842015 -0.000425847 -0.000842015 -0.000416168 -0.00126786 -0.000416168 -0.000832337 -0.000425847 -0.000842015 -0.000425847 -0.000842015 -0.000416168 -0.000842015 -0.000425847 -0.000842015 -0.000416168 -0.000842015 -0.000416168 -0.000842015 -0.000425847 -0.00125818 -0.000416168 -0.000842015 -0.000416168 -0.000842015 -0.000435525 -0.000842015 -0.000416168 -0.000842015 -0.000416168 -0.000842015 -0.000425847 -0.000842015 -0.000416168 -0.000842015 -0.000416168 -0.000842015 -0.000425847 -0.00125818 -0.000425847 -0.000842015 -0.000416168 -0.000842015 -0.000425847 -0.000842015 -0.000416168 -0.000832337 -0.000416168 -0.000851693 -0.000425847 -0.000842015 -0.000416168 -0.000832337 -0.000416168 -0.000842015 0 -0.000416168 -0.000435525 -0.000851693 -0.000416168 -0.000842015 -0.000416168 -0.000832337 -0.000425847 -0.000842015 -0.000416168 -0.000851693 -0.000416168 -0.000832337 -0.000425847 -0.000842015 -0.000416168 -0.00126786 -0.000425847 -0.000842015 -0.000425847 -0.000832337 -0.000416168 -0.000842015 -0.000416168 -0.000851693 -0.000425847 -0.000832337 -0.000416168 -0.000842015 -0.000416168 -0.000842015 -0.000435525 -0.000842015 -0.000416168 -0.00125818 -0.000416168 -0.000842015 -0.000425847 -0.000851693 -0.000416168 -0.000832337 -0.000416168 -0.000842015 -0.000425847 -0.000842015 -0.000416168 -0.000842015 -0.000425847 -0.000842015 -0.000416168 -0.00125818 -0.000425847 -0.000851693 -0.000416168 -0.000832337 -0.000425847 -0.000842015 -0.000416168 -0.000416168 0 0 0.0471141 0 0.133755 0 0.105155zm0.859446 -0.202519c0,-0.0314546 0.00851693,-0.0566279 0.0254927,-0.0754717 0.0169758,-0.0188534 0.0401554,-0.0282704 0.0694711,-0.0282704 0.0270413,0 0.0487982,0.00919442 0.0653675,0.0275445 0.0165306,0.0183404 0.0248153,0.0421008 0.0248153,0.0712809 0,0.0314159 -0.00838144,0.0565892 -0.0250862,0.0755781 -0.0167048,0.0189792 -0.0394682,0.0284446 -0.0682807,0.0284446 -0.0275929,0 -0.049766,-0.00919442 -0.0665579,-0.0276704 -0.0168016,-0.0184372 -0.0252217,-0.0422459 -0.0252217,-0.0714358zm0.0226667 -0.00195502c0,0.0237216 0.00628124,0.0432525 0.018805,0.0585442 0.0125625,0.0153014 0.0292673,0.0229473 0.0501628,0.0229473 0.0223086,0 0.0397005,-0.00723939 0.0522243,-0.0217182 0.0124657,-0.0144304 0.0187082,-0.0342807 0.0187082,-0.0595411 0,-0.0256766 -0.00601025,-0.0457979 -0.0180791,-0.0604122 -0.0120108,-0.0145659 -0.0290834,-0.0218537 -0.051121,-0.0218537 -0.0214375,0 -0.0385585,0.00769428 -0.051392,0.0231312 -0.0128819,0.0154273 -0.0193083,0.0350549 -0.0193083,0.0589023zm-0.0626575 0.0977415l-0.103113 0 0 -0.196344 0.09869 0 0 0.0198987 -0.0772041 0 0 0.0666837 0.071339 0 0 0.0197148 -0.071339 0 0 0.0702937 0.0816271 0 0 0.0197535zm-0.169874 0l-0.0270897 0 -0.102426 -0.158425c-0.00213891,-0.00331967 -0.00419072,-0.0074136 -0.00614574,-0.0122915l-0.000687162 0c0.00063877,0.00505209 0.000958155,0.0140239 0.000958155,0.0268187l0 0.143897 -0.0216214 0 0 -0.196344 0.0285414 0 0.0996481 0.156324c0.00459721,0.00720068 0.00723939,0.0115269 0.00787816,0.0129303l0.000503273 0c-0.000958155,-0.00646513 -0.00146143,-0.0161531 -0.00146143,-0.0290447l0 -0.14021 0.0219021 0 0 0.196344zm0.488853 0.103549c0.00472303,0 0.0091557,-0.00034842 0.0133077,-0.00106462 0.00413265,-0.000706518 0.00779106,-0.00164532 0.0109849,-0.00284543 0.00319385,-0.00117108 0.00620381,-0.00317449 0.00904924,-0.00601992l-0.0156015 0c-0.00260347,0 -0.00722004,0.000125818 -0.0138303,0.00034842l0 -0.00601992c0.0066103,0.000241958 0.0112269,0.00034842 0.0138303,0.00034842l0.0173726 0c0.000706518,-0.00211956 0.000948477,-0.00472303 0.000706518,-0.00779106 0.00307771,0.00046456 0.00626188,0.000938798 0.00958155,0.00142272 -0.00142272,0.00140336 -0.00225505,0.00354227 -0.00248733,0.00636834l0.0159499 0c-0.00164532,-0.001655 -0.00329063,-0.00307771 -0.00495531,-0.00424879l0.00495531 -0.00354227c0.00189695,0.00142272 0.00367777,0.00306803 0.00533276,0.00496499 -0.00142272,0.000706518 -0.00283575,0.00164532 -0.00425847,0.00282607l0.00531341 0c0.00520694,0 0.00993965,-0.000106462 0.0141981,-0.00034842l0 0.00601992c-0.00402619,-0.000222602 -0.00874921,-0.00034842 -0.0141981,-0.00034842l-0.0177307 0c0.00449075,0.00378423 0.01023,0.00620381 0.0171984,0.00727811 0.00697808,0.00106462 0.0129593,0.00134529 0.0179243,0.000880728 -0.00189695,0.00236151 -0.00307771,0.00496499 -0.00356163,0.00781042 -0.00590378,-0.000483917 -0.0109268,-0.00112269 -0.0150692,-0.00195502 -0.00413265,-0.000832337 -0.00791688,-0.00207116 -0.0113527,-0.00372616 -0.00341645,-0.00166467 -0.00738457,-0.00484885 -0.0118753,-0.00957187 -0.00424879,0.00542955 -0.00980415,0.00927184 -0.0166564,0.0115269 -0.00687162,0.0022357 -0.0137239,0.0038423 -0.0205858,0.0047811 -0.000706518,-0.00282607 -0.00188728,-0.00520694 -0.00354227,-0.00709422zm0.0673902 0.0354711l0 -0.00673612 -0.0170242 0 0 0.0063877 -0.0060296 0c0.00023228,-0.00520694 0.00034842,-0.0100461 0.00034842,-0.0145465 0,-0.00473271 -0.00011614,-0.00922345 -0.00034842,-0.0134819l0.0294318 0c-0.000241958,0.00284543 -0.000358098,0.0076846 -0.000358098,0.0145465 0,0.0066103 0.00011614,0.0112269 0.000358098,0.0138303l-0.00637802 0zm-0.0372422 -0.00034842l0 -0.0063877 -0.0152531 0 0 0.00673612 -0.0063877 0c0.000241958,-0.00402619 0.000367777,-0.00899117 0.000367777,-0.014895 0,-0.00591346 -0.000125818,-0.0104042 -0.000367777,-0.0134819l0.0276607 0c-0.000222602,0.00378423 -0.00034842,0.00851693 -0.00034842,0.0141981 0,0.00542955 0.000125818,0.0100461 0.00034842,0.0138303l-0.00601992 0zm0.0436203 -0.079101c-0.000241958,0.00307771 -0.000358098,0.00627156 -0.000358098,0.00958155 0,0.00330999 0.00011614,0.00673612 0.000358098,0.0102881l-0.0297899 0c0.000241958,-0.00355195 0.000358098,-0.00697808 0.000358098,-0.0102881 0,-0.00355195 -0.00011614,-0.00673612 -0.000358098,-0.00958155l0.0297899 0zm-0.0376003 0c-0.000222602,0.00307771 -0.00034842,0.0063877 -0.00034842,0.00992997 0,0.00330999 0.000125818,0.00662966 0.00034842,0.00993965l-0.0276607 0c0.000241958,-0.00330999 0.000367777,-0.00662966 0.000367777,-0.00993965 0,-0.00354227 -0.000125818,-0.00685226 -0.000367777,-0.00992997l0.0276607 0zm0.0312223 0.0677483l0 -0.011343 -0.0170242 0 0 0.011343 0.0170242 0zm-0.0372422 0l0 -0.011343 -0.0152531 0 0 0.011343 0.0152531 0zm0.0372422 -0.0528534l0 -0.00992997 -0.0170242 0 0 0.00992997 0.0170242 0zm-0.0372422 0l0 -0.00992997 -0.0152531 0 0 0.00992997 0.0152531 0zm-0.0558246 0.0198696c-0.000483917,0.00236151 -0.000706518,0.00508113 -0.000706518,0.00814916l0 0.00992997c0,0.00284543 0.00011614,0.00579732 0.00034842,0.00886535l-0.00673612 0 0 -0.021273 -0.0375907 0 0 0.0226957 -0.007462 0c0.000483917,-0.00354227 0.000716197,-0.00662966 0.000716197,-0.00921377l0 -0.00993965c0,-0.00282607 -0.000125818,-0.00590378 -0.00034842,-0.00921377l0.0517791 0zm-0.0180985 -0.0383068c0.00260347,0.000938798 0.00533276,0.00177114 0.00815884,0.00248733 -0.00118076,0.000938798 -0.00270993,0.00390037 -0.00459721,0.00886535l0.0180791 0c0.00330999,0 0.00709422,-0.00011614 0.0113527,-0.000358098l0 0.0067458c-0.00425847,-0.000483917 -0.0080427,-0.000716197 -0.0113527,-0.000716197l-0.020218 0c-0.00188728,0.00450043 -0.00413265,0.00874921 -0.00673612,0.012756 -0.00259379,-0.00117108 -0.00484885,-0.00199374 -0.0067458,-0.00247765 0.00284543,-0.00354227 0.00526501,-0.00767492 0.00727811,-0.0124076 0.00201309,-0.00472303 0.00360034,-0.00969769 0.0047811,-0.014895zm0.00248733 0.0585249c-0.00069684,0.00210988 -0.000938798,0.00471335 -0.00069684,0.00779106l0 0.00497466c0,0.00307771 0.00164532,0.00472303 0.00496499,0.00496499l0.0131141 0c0.00354227,-0.000241958 0.00579732,-0.00142272 0.00673612,-0.00355195 0.000948477,-0.00211956 0.0012969,-0.00450043 0.00105494,-0.00708454 0.00213891,0.00164532 0.00474238,0.00295189 0.00781042,0.00389069 -0.00118076,0.00473271 -0.00266154,0.00792656 -0.00443268,0.00957187 -0.00177114,0.00166467 -0.00419072,0.00248733 -0.00725875,0.00248733l-0.0191631 0c-0.00614574,0 -0.00921377,-0.00224537 -0.00921377,-0.00673612l0 -0.00958155c-0.000241958,-0.00260347 -0.000483917,-0.00483917 -0.000716197,-0.00672644l0.00780074 0zm-0.00708454 -0.00568118c-0.00188728,0.00118076 -0.00319385,0.00331967 -0.00390037,0.0063877 -0.000716197,0.00306803 -0.0023228,0.00620381 -0.00480045,0.00939766 -0.00247765,0.00319385 -0.00590378,0.00614574 -0.0102784,0.00886535 -0.00437461,0.00270993 -0.0108204,0.00490692 -0.0193373,0.00655223 -0.000938798,-0.00236151 -0.00270993,-0.00459721 -0.00531341,-0.00673612 0.00850726,-0.000938798 0.0150788,-0.00241958 0.0196857,-0.00443268 0.00460689,-0.00201309 0.0082653,-0.00526501 0.0109946,-0.00974608 0.00271961,-0.00449075 0.0042004,-0.00934927 0.00443268,-0.0145369 0.00260347,0.00140336 0.0054489,0.00282607 0.00851693,0.00424879zm-0.0113527 -0.0510726c-0.000483917,0.00307771 -0.000706518,0.00661998 -0.000706518,0.0106462l0 0.0106365c0,0.00330999 0.000222602,0.0069684 0.000706518,0.0109946l-0.00745232 0c0.000241958,-0.00402619 0.000358098,-0.0076846 0.000358098,-0.0109946l0 -0.0106365c0,-0.00354227 -0.00011614,-0.0071039 -0.000358098,-0.0106462l0.00745232 0zm-0.0173823 0.00211956c-0.000474238,0.00308739 -0.000716197,0.00628124 -0.000716197,0.00958155l0 0.00993965c0,0.00283575 0.000241958,0.0060296 0.000716197,0.00956219l-0.00744264 0c0.000241958,-0.00353259 0.00034842,-0.00672644 0.00034842,-0.00956219l0 -0.00993965c0,-0.00449075 -0.000106462,-0.0076846 -0.00034842,-0.00958155l0.00744264 0zm0.0578184 0.0262573c-0.00166467,0.00188728 -0.00319385,0.00365841 -0.00461657,0.00531341 -0.00449075,-0.00401651 -0.00910731,-0.00779106 -0.0138303,-0.0113527 0.00118076,-0.00140336 0.00248733,-0.00295189 0.00390037,-0.00459721 0.00472303,0.00306803 0.00957187,0.0066103 0.0145465,0.0106365zm-0.148398 0.0439784c0.00402619,-0.00307771 0.00750071,-0.00621349 0.0104526,-0.00939766 0.00297125,-0.00319385 0.00550697,-0.00703615 0.00762653,-0.0115366 -0.00424879,-0.0066103 -0.00886535,-0.0122818 -0.0138303,-0.0170242 0.00236151,-0.000938798 0.00450043,-0.0022357 0.0063877,-0.00390037 0.00354227,0.00378423 0.00722004,0.00816851 0.0110043,0.0131335 0.00140336,-0.0063877 0.00211956,-0.0131335 0.00211956,-0.020218l-0.0102784 0c-0.00378423,0 -0.00733618,0.000125818 -0.0106558,0.00034842l0 -0.00673612c0.00426815,0.00023228 0.00781042,0.00034842 0.0106558,0.00034842l0.0134626 0c0.00260347,0 0.00592314,-0.00011614 0.00992997,-0.00034842l0 0.00673612c-0.00188728,-0.000222602 -0.00424879,-0.00034842 -0.00708454,-0.00034842 -0.000241958,0.00968801 -0.00142272,0.0184275 -0.00355195,0.026238 0.00378423,0.00474238 0.00756846,0.00992997 0.0113527,0.0156015 -0.00211956,0.00118076 -0.00437461,0.00307771 -0.00673612,0.00568118 -0.00260347,-0.00543922 -0.00520694,-0.0100558 -0.00781042,-0.0138303 -0.00236151,0.00425847 -0.0047811,0.00798463 -0.00725875,0.0111785 -0.00248733,0.00319385 -0.00514887,0.00620381 -0.00797495,0.00902989 -0.00166467,-0.00236151 -0.00426815,-0.00400683 -0.00781042,-0.00495531zm0.0645545 -0.0737779c-0.000241958,0.00307771 -0.000367777,0.00662966 -0.000367777,0.0106462l0 0.0634899c0,0.00378423 -0.00087105,0.00614574 -0.00266154,0.00708454 -0.00177114,0.000948477 -0.00537148,0.00188728 -0.010801,0.00284543 -0.000483917,-0.00236151 -0.00179049,-0.00533276 -0.00391005,-0.00887503 0.00425847,0.000474238 0.00714261,0.000474238 0.00869114,0 0.00152918,-0.00046456 0.00229377,-0.00153886 0.00229377,-0.00318417l0 -0.0606541c0,-0.00449075 -0.00011614,-0.00827498 -0.00034842,-0.0113527l0.0071039 0zm-0.0152531 0.0110043c-0.000241958,0.00400683 -0.000367777,0.00744264 -0.000367777,0.0102784l0 0.0273123c0,0.00449075 0.000125818,0.00945573 0.000367777,0.0148853l-0.00781042 0c0.000241958,-0.00542955 0.000358098,-0.0103945 0.000358098,-0.0148853l0 -0.0269542c0,-0.00402619 -0.00011614,-0.00755878 -0.000358098,-0.0106365l0.00781042 0zm-0.066674 0.0652513c0.00258412,-0.00306803 0.00490692,-0.00751039 0.00691033,-0.013298 0.00200342,-0.00579732 0.00361002,-0.0112946 0.00479078,-0.0165016 0.00282607,0.00213891 0.00519727,0.00343581 0.00709422,0.00391005 -0.00378423,0.00923313 -0.00626188,0.0159015 -0.00744264,0.0200342 -0.00120011,0.00414233 -0.00213891,0.00774267 -0.00284543,0.0108204 -0.00260347,-0.00211956 -0.00543922,-0.00378423 -0.00850726,-0.00496499zm0.00885568 -0.0744845c0.00425847,0.00284543 0.00816851,0.00592314 0.0117108,0.00923313 -0.001655,0.00141304 -0.00331967,0.00330031 -0.00496499,0.0056715 -0.00306803,-0.00306803 -0.0067458,-0.00626188 -0.0110043,-0.00957187 0.00166467,-0.00189695 0.00307771,-0.00366809 0.00425847,-0.00533276zm0.0297899 -0.00177114c0.00166467,0.00496499 0.00307771,0.00933959 0.00424879,0.0131238 -0.00258412,0.000483917 -0.00506177,0.0012969 -0.00744264,0.00247765 -0.000938798,-0.00449075 -0.0022357,-0.00897182 -0.00390037,-0.0134626 0.00212923,-0.000483917 0.00449075,-0.00118076 0.00709422,-0.00213891zm-0.0333322 0.0262476c0.00330999,0.00188728 0.00744264,0.00449075 0.0124076,0.00780074 -0.001655,0.001655 -0.00319385,0.00366809 -0.00460689,0.00603928 -0.00283575,-0.00284543 -0.00685226,-0.00556504 -0.0120592,-0.00816851 0.001655,-0.00211956 0.00307771,-0.00400683 0.00425847,-0.0056715zm-0.0498047 -0.00922345c0,-0.00709422 -0.00011614,-0.0124076 -0.00034842,-0.0159596 0.001655,0.000483917 0.00425847,0.000948477 0.00780074,0.00142272 -0.00023228,0.00166467 -0.000416168,0.00365841 -0.000532308,0.00603928 -0.000125818,0.00236151 -0.000183888,0.00518759 -0.000183888,0.00849758l0.0198696 0c-0.000241958,0.00354227 -0.00034842,0.00745232 -0.00034842,0.0117205l0 0.0145175c0.00400683,0 0.0073265,-9.67833e-005 0.00992997,-0.000338742l0 0.00601992c-0.00356163,-0.00023228 -0.00675548,-0.00034842 -0.00958155,-0.00034842l-0.0166758 0c0.00166467,0.00378423 0.0036197,0.00738457 0.00585539,0.0108204 0.00225505,0.00341645 0.00514887,0.00679419 0.00869114,0.0101042 0.00355195,0.00331967 0.00780074,0.00601992 0.0127657,0.00815884 -0.00188728,0.00142272 -0.00378423,0.00341645 -0.0056715,0.00601992 -0.00213891,-0.00118076 -0.00490692,-0.00319385 -0.00834272,-0.00601992 -0.00341645,-0.00284543 -0.00666837,-0.00632963 -0.00974608,-0.0104526 -0.00306803,-0.00415201 -0.00578764,-0.00882664 -0.00814916,-0.0140142 -0.00213891,0.00614574 -0.00461657,0.011043 -0.00745232,0.0147014 -0.00284543,0.00367777 -0.00550697,0.00662966 -0.00798463,0.00887503 -0.00248733,0.00225505 -0.00561343,0.00467464 -0.00939766,0.00727811 -0.00188728,-0.00213891 -0.00365841,-0.00391005 -0.00531341,-0.00533276 0.00283575,-0.00164532 0.00577797,-0.00365841 0.00885568,-0.00601992 0.00308739,-0.00236151 0.00572957,-0.00490692 0.00798463,-0.00762653 0.00224537,-0.00271961 0.00396812,-0.00555536 0.00514887,-0.00851693 0.00118076,-0.00295189 0.00188728,-0.00561343 0.00211956,-0.00797495l-0.00850726 0c-0.00378423,0 -0.00756846,0.00011614 -0.011343,0.00034842l0 -0.00601992c0.00377455,0.000241958 0.00755878,0.000338742 0.011343,0.000338742l0.00921377 0 0 -0.0209052 -0.00390037 0c-0.00354227,0 -0.00720068,0.000222602 -0.0109849,0.000706518l0 -0.0063877c0.00354227,0.00023228 0.00720068,0.00034842 0.0109849,0.00034842l0.00390037 0zm-0.0343968 0.00781042l0 -0.0106365c0,-0.00378423 -0.00011614,-0.00756846 -0.000358098,-0.0113527l0.00709422 0c-0.000241958,0.00354227 -0.00034842,0.0073265 -0.00034842,0.0113527l0 0.0106365 0.00283575 0c0.00164532,0 0.00437461,-0.00011614 0.00814916,-0.000358098l0 0.0060296c-0.00377455,-0.000241958 -0.00650384,-0.000358098 -0.00814916,-0.000358098l-0.00283575 0 0 0.0269638 0.012756 -0.00426815 0 0.00603928c-0.00424879,0.00140336 -0.0091557,0.00319385 -0.0147014,0.00531341 -0.00557472,0.00212923 -0.01023,0.00402619 -0.0140142,0.0056715 -0.00142272,-0.00354227 -0.00260347,-0.00614574 -0.00354227,-0.00779106 0.00258412,-0.000483917 0.00502306,-0.00101623 0.00725875,-0.0016066 0.00224537,-0.000590378 0.0042004,-0.00111301 0.00585539,-0.00158725l0 -0.028735 -0.00141304 0c-0.00354227,0 -0.00686194,0.00011614 -0.00992997,0.000358098l0 -0.0060296c0.00306803,0.000241958 0.00626188,0.000358098 0.00958155,0.000358098l0.00176146 0zm0.0539083 0.0184275l0 -0.0209052 -0.0127754 0 0 0.0209052 0.0127754 0zm-0.0788881 -0.0329644c-0.00354227,-0.000241958 -0.00825562,-0.000367777 -0.0141788,-0.000367777l-0.0524953 0 0 0.0656094 0.0578087 0c0.00473271,0 0.00851693,-0.00011614 0.0113527,-0.00034842l0 0.0063877c-0.00307771,-0.000241958 -0.00708454,-0.000358098 -0.0120495,-0.000358098l-0.0645545 0c0.000241958,-0.00568118 0.00034842,-0.00980415 0.00034842,-0.0124076l0 -0.053918c0,-0.00400683 -0.000106462,-0.00767492 -0.00034842,-0.0109849l0.0741167 0 0 0.0063877zm-0.0507048 0.00921377c0.00827498,0.0056715 0.0154757,0.0112269 0.0216408,0.0166758 0.00542955,-0.0063877 0.00945573,-0.0127754 0.0120398,-0.0191631 0.00260347,0.001655 0.00568118,0.00331967 0.00923313,0.00496499 -0.00260347,0.00166467 -0.00485852,0.00391005 -0.0067458,0.00675548 -0.00189695,0.00282607 -0.00472303,0.00685226 -0.00850726,0.0120398 0.00803302,0.00662966 0.0145465,0.0131335 0.0195018,0.0195018 -0.00282607,0.00189695 -0.00483917,0.00391005 -0.00601992,0.00603928 -0.00378423,-0.0056715 -0.0100461,-0.0121753 -0.018805,-0.0195018 -0.00354227,0.00400683 -0.00714261,0.0076846 -0.0108107,0.0109849 -0.00367777,0.00330999 -0.00821691,0.00697808 -0.0136658,0.0110043 -0.00210988,-0.00213891 -0.00449075,-0.00391005 -0.00709422,-0.00533276 0.00474238,-0.00211956 0.00899117,-0.00465528 0.0127754,-0.00760717 0.00378423,-0.00297125 0.00827498,-0.00762653 0.0134819,-0.0140142 -0.00591346,-0.0054489 -0.01324,-0.0108784 -0.0219892,-0.016308 0.00236151,-0.00189695 0.00400683,-0.00391005 0.00496499,-0.00603928zm-0.0526405 0.00247765c-0.00118076,0.00142272 -0.0025454,0.00349388 -0.00407458,0.00620381 -0.00153886,0.00272929 -0.0029035,0.00526501 -0.00408426,0.00762653l0.0110043 0c0.00495531,0 0.00827498,-0.00011614 0.00992029,-0.00034842l0 0.0071039c-0.00188728,-0.000241958 -0.00496499,-0.000367777 -0.00921377,-0.000367777l-0.0535502 0c0,0.0186889 -0.00450043,0.0324031 -0.0134819,0.0411426 -0.000938798,-0.00188728 -0.00272929,-0.00365841 -0.00531341,-0.00532308 0.00614574,-0.00685226 0.00968801,-0.0139949 0.0106365,-0.0214569 0.000938798,-0.00744264 0.00118076,-0.0143626 0.000716197,-0.0207504l0.0418394 0c0.00306803,-0.0063877 0.00532308,-0.0122818 0.00672644,-0.0177307 0.00308739,0.00142272 0.00603928,0.00271961 0.00887503,0.00390037zm-0.0219892 -0.0223376c0.000483917,0.001655 0.00142272,0.00543922 0.00284543,0.0113527l0.0177307 0c0.00425847,0 0.00827498,-0.00011614 0.0120592,-0.000358098l0 0.0067458c-0.00378423,-0.000241958 -0.00745232,-0.000367777 -0.0109946,-0.000367777l-0.0429137 0c-0.00354227,0 -0.0080427,0.000125818 -0.0134916,0.000367777l0 -0.0067458c0.00568118,0.000241958 0.00935895,0.000358098 0.0110043,0.000358098l0.0184469 0c-0.000706518,-0.00306803 -0.00166467,-0.00626188 -0.00284543,-0.00958155 0.00284543,-0.000706518 0.00555536,-0.0012969 0.00815884,-0.00177114zm-0.0159499 0.0187953c0.00282607,0.00378423 0.00555536,0.00815884 0.00815884,0.0131238 -0.00238087,0.000948477 -0.00485852,0.00212923 -0.007462,0.00354227 -0.00211956,-0.00496499 -0.00459721,-0.00921377 -0.00744264,-0.012756 0.00237119,-0.00142272 0.00460689,-0.00272929 0.0067458,-0.00391005zm-0.0505016 0.0255314c-0.000241958,0.00306803 -0.000358098,0.0063877 -0.000358098,0.00993965 0,0.00354227 0.00011614,0.00767492 0.000358098,0.0124076l-0.00709422 0 0 -0.016308 -0.0439784 0 0 0.0184469 -0.00709422 0c0.000241958,-0.0054489 0.00034842,-0.00993965 0.00034842,-0.0134819 0,-0.00378423 -0.000106462,-0.00745232 -0.00034842,-0.0110043l0.0581668 0zm-0.0152531 -0.0273026c-0.00164532,0.00283575 -0.00177114,0.00525534 -0.00034842,0.00726843 0.00140336,0.00201309 0.00335838,0.00390037 0.00584571,0.0056715 0.00247765,0.00177114 0.00554569,0.00325192 0.00922345,0.00443268 0.00366809,0.00118076 0.00773299,0.00189695 0.0122334,0.00213891 -0.00189695,0.00260347 -0.00331967,0.00508113 -0.00425847,0.00744264 -0.00591346,-0.00118076 -0.0111688,-0.00295189 -0.0157757,-0.00532308 -0.00461657,-0.00236151 -0.00845886,-0.00614574 -0.0115366,-0.0113527 -0.00211956,0.0054489 -0.00518759,0.00923313 -0.00921377,0.0113527 -0.00402619,0.00212923 -0.00840079,0.00390037 -0.0131238,0.00532308 -0.00188728,-0.00212923 -0.00377455,-0.00402619 -0.0056715,-0.0056715 0.00992997,-0.00189695 0.0164338,-0.00474238 0.0195018,-0.00852661 0.00307771,-0.00377455 0.00472303,-0.00838144 0.00496499,-0.0138303l0.00815884 0.0010743zm-0.0156015 -0.00247765c-0.00284543,0.00378423 -0.00555536,0.0066103 -0.00815884,0.00850726 -0.00166467,-0.001655 -0.00343581,-0.00307771 -0.00532308,-0.00425847 0.00284543,-0.00188728 0.00549729,-0.00443268 0.00797495,-0.00762653 0.00247765,-0.00319385 0.00443268,-0.00656191 0.00585539,-0.0101042 0.00212923,0.000938798 0.00473271,0.00164532 0.00781042,0.00212923 -0.00118076,0.00211956 -0.00260347,0.00401651 -0.00425847,0.00568118l0.0333419 0c-0.000716197,0.00140336 -0.00284543,0.00601992 -0.0063877,0.0138303 -0.00284543,-0.000716197 -0.00520694,-0.00118076 -0.00709422,-0.00142272 0.00118076,-0.00260347 0.0022357,-0.00484885 0.00319385,-0.00673612l-0.0269542 0zm0.0056715 0.0407845c-0.00118076,0.00260347 -0.00207116,0.00519727 -0.00266154,0.00780074 -0.000590378,0.00259379 -0.00212923,0.00525534 -0.00461657,0.00797495 -0.00247765,0.00272929 -0.00607799,0.00526501 -0.0108204,0.00762653 -0.00471335,0.00236151 -0.0115753,0.00425847 -0.0205568,0.00568118 -0.000716197,-0.00236151 -0.00213891,-0.00461657 -0.00425847,-0.00675548 0.00686194,-0.000222602 0.0125915,-0.00111301 0.0171887,-0.00264219 0.00461657,-0.00154853 0.00811044,-0.00325192 0.010472,-0.00514887 0.00236151,-0.00188728 0.00407458,-0.00419072 0.00514887,-0.00691033 0.00105494,-0.00272929 0.00158725,-0.00561343 0.00158725,-0.00869114 0.00284543,0.000474238 0.0056715,0.000822658 0.00851693,0.00106462zm0.00425847 0.00957187c0.00449075,0.001655 0.00886535,0.00330031 0.0131141,0.00496499 0.00425847,0.001655 0.00933959,0.00378423 0.0152531,0.0063877 -0.00142272,0.00188728 -0.00271961,0.00424879 -0.00390037,0.00708454 -0.00449075,-0.00259379 -0.0089331,-0.00484885 -0.013298,-0.00673612 -0.00437461,-0.00189695 -0.00903956,-0.00365841 -0.0140142,-0.00531341 0.00119044,-0.00188728 0.00212923,-0.00402619 0.00284543,-0.0063877zm-0.0248346 -0.0372326c-0.00590378,0.00542955 -0.0115753,0.0114688 -0.0170242,0.0180791 -0.00236151,-0.00260347 -0.00424879,-0.00437461 -0.0056715,-0.00531341 0.00756846,-0.00591346 0.0134819,-0.011585 0.0177307,-0.0170242 0.00118076,0.00118076 0.00284543,0.00259379 0.00496499,0.00425847zm-0.00531341 -0.00923313c-0.00378423,-0.00283575 -0.00886535,-0.00614574 -0.0152531,-0.00992997 0.001655,-0.00164532 0.00307771,-0.00330999 0.00425847,-0.00496499 0.00212923,0.00142272 0.00721036,0.00461657 0.0152531,0.00958155 -0.00142272,0.00142272 -0.00283575,0.00319385 -0.00425847,0.00531341zm-0.0927088 0.0145369c0.00282607,0.000241958 0.00697808,0.000367777 0.0124076,0.000367777l0.021273 0c0.00473271,0 0.00840079,-0.000125818 0.0110043,-0.000367777 -0.0101719,-0.00518759 -0.0177404,-0.012756 -0.0227054,-0.0226957 -0.00637802,0.00969769 -0.0137045,0.0172661 -0.0219795,0.0226957z"/>
 </g>
</svg>
