<?xml version="1.0" encoding="UTF-8"?>
<!DOCTYPE svg PUBLIC "-//W3C//DTD SVG 1.1//EN" "http://www.w3.org/Graphics/SVG/1.1/DTD/svg11.dtd">
<!-- Creator: CorelDRAW -->
<svg xmlns="http://www.w3.org/2000/svg" xml:space="preserve" width="3.5584mm" height="4.2334mm" style="shape-rendering:geometricPrecision; text-rendering:geometricPrecision; image-rendering:optimizeQuality; fill-rule:evenodd; clip-rule:evenodd"
viewBox="0 0 0.190969 0.227194"
 xmlns:xlink="http://www.w3.org/1999/xlink">
 <defs>
  <style type="text/css">
   <![CDATA[
    .fil0 {fill:white}
   ]]>
  </style>
 </defs>
 <g id="图层_x0020_1">
  <metadata id="CorelCorpID_0Corel-Layer"/>
  <path class="fil0" d="M0.19039 0.166862c-0.00136851,-0.0171842 -0.0104275,-0.0363112 -0.0141467,-0.045923l-0.00957422 -0.0247298c-5.36671e-006,-0.000161001 -1.07334e-005,-0.00032737 -1.07334e-005,-0.000493738l0 0c-5.36671e-006,-0.000166368 -5.36671e-006,-0.000338103 -1.07334e-005,-0.000509838l0 0c0,-0.000177102 0,-0.000354203 0,-0.000531305l0 0c0,-0.000182468 0,-0.000364937 0,-0.000552772l0 0c0,-0.000182468 0,-0.00037567 0,-0.000568872 0,-0.000193202 5.36671e-006,-0.000386403 5.36671e-006,-0.000584972l5.36671e-006 -0.000606439 0 0 1.07334e-005 -0.000622539 0 0 1.07334e-005 -0.000644006 0 0 5.36671e-006 -0.000660106 0 0 1.07334e-005 -0.000681573 0 0 5.36671e-006 -0.000697673 1.07334e-005 -0.000713773 5.36671e-006 -0.000729873c0,-0.000493738 5.36671e-006,-0.000998209 0,-0.00151341 0,-0.000257602 0,-0.000520571 0,-0.00078354 -5.36671e-006,-0.000262969 -5.36671e-006,-0.000531305 -5.36671e-006,-0.00079964 -5.36671e-006,-0.000268336 -1.07334e-005,-0.000542038 -1.61001e-005,-0.000815741 0,-0.000273702 -5.36671e-006,-0.000552772 -1.61001e-005,-0.000831841 -5.36671e-006,-0.000279069 -1.07334e-005,-0.000563505 -2.14669e-005,-0.000847941 -5.36671e-006,-0.000284436 -1.61001e-005,-0.000574238 -2.68336e-005,-0.000864041 -5.36671e-006,-0.000289803 -2.14669e-005,-0.000584972 -3.22003e-005,-0.000880141l0 0c-1.07334e-005,-0.000295169 -2.68336e-005,-0.000595705 -3.7567e-005,-0.000896241 -1.61001e-005,-0.000300536 -3.22003e-005,-0.000606439 -4.83004e-005,-0.000912341 -1.61001e-005,-0.000305903 -3.7567e-005,-0.000611805 -5.90339e-005,-0.000923075 -1.61001e-005,-0.000311269 -3.7567e-005,-0.000627906 -6.44006e-005,-0.000944542 -2.14669e-005,-0.000316636 -4.29337e-005,-0.000633272 -6.97673e-005,-0.000955275 -2.68336e-005,-0.000322003 -5.36671e-005,-0.000644006 -8.58674e-005,-0.000971375 -2.68336e-005,-0.00032737 -5.90339e-005,-0.000654739 -9.12341e-005,-0.000987475 -3.22003e-005,-0.000332736 -6.44006e-005,-0.000665473 -0.000101968,-0.000998209l0 0c-3.7567e-005,-0.000338103 -7.5134e-005,-0.000676206 -0.000112701,-0.00101968 -3.7567e-005,-0.000338103 -8.05007e-005,-0.000681573 -0.000123434,-0.00102504 -4.83004e-005,-0.000348836 -9.12341e-005,-0.000697673 -0.000139535,-0.00104651 -4.83004e-005,-0.000348836 -9.66009e-005,-0.00070304 -0.000150268,-0.00105724 -5.36671e-005,-0.000354203 -0.000107334,-0.000708406 -0.000161001,-0.00106798l0 0c-5.90339e-005,-0.00035957 -0.000118068,-0.000724506 -0.000177102,-0.00108408l0 0c-5.90339e-005,-0.000364937 -0.000123434,-0.000729873 -0.000187835,-0.00110018 -6.97673e-005,-0.000364937 -0.000134168,-0.00073524 -0.000209302,-0.00111091 -6.97673e-005,-0.000370303 -0.000139535,-0.000745973 -0.000220035,-0.00112164 -7.5134e-005,-0.00037567 -0.000150268,-0.000756707 -0.000230769,-0.00113774 -8.05007e-005,-0.000381037 -0.000166368,-0.000762073 -0.000252236,-0.00114848 -8.58674e-005,-0.000386403 -0.000177102,-0.000772807 -0.000268336,-0.00115921 -9.12341e-005,-0.00039177 -0.000187835,-0.00078354 -0.000284436,-0.00117531l0 0c-0.000101968,-0.00039177 -0.000198568,-0.000788907 -0.000305903,-0.00118604l0 0c-0.000101968,-0.000397137 -0.000209302,-0.000794274 -0.000322003,-0.00119678l0 0c-0.000107334,-0.000402504 -0.000220035,-0.000805007 -0.000338103,-0.00121288 -0.000112701,-0.000402504 -0.000236135,-0.000810374 -0.00035957,-0.00121824 -0.000118068,-0.00040787 -0.000246869,-0.000821107 -0.00037567,-0.00123434 -0.000128801,-0.000413237 -0.000262969,-0.000826474 -0.000397137,-0.00124508 -0.000139535,-0.000413237 -0.000279069,-0.000831841 -0.000418604,-0.00125044l0 0c-0.000144901,-0.00042397 -0.000295169,-0.000842574 -0.000445437,-0.00126654 -0.000150268,-0.00042397 -0.000300536,-0.000853308 -0.000461537,-0.00127728l0 0c-0.000155635,-0.000429337 -0.000316636,-0.000858674 -0.000483004,-0.00128801l0 0c-0.000166368,-0.000429337 -0.000332736,-0.000864041 -0.000504471,-0.00129874l0 0c-0.000177102,-0.000434704 -0.000348836,-0.000869408 -0.000531305,-0.00130411 -0.000182468,-0.000440071 -0.000364937,-0.000880141 -0.000552772,-0.00132021l0 0c-0.000187835,-0.000440071 -0.000381037,-0.000885508 -0.000579605,-0.00132558l0 0c-0.000198568,-0.000445437 -0.000397137,-0.000890875 -0.000601072,-0.00134168l0 0c-0.000209302,-0.000445437 -0.000418604,-0.000896241 -0.000627906,-0.00134705l-5.36671e-006 0c-0.000209302,-0.000450804 -0.000429337,-0.000901608 -0.000649372,-0.00135241l0 0c-0.000225402,-0.000456171 -0.000450804,-0.000912341 -0.000681573,-0.00136851 -0.000230769,-0.000456171 -0.000466904,-0.000912341 -0.000708406,-0.00137388l0 0c-0.000241502,-0.000461537 -0.000483004,-0.000917708 -0.00073524,-0.00138461l0 0c-0.000246869,-0.000461537 -0.000499104,-0.000917708 -0.000756707,-0.00136851l0 0c-0.000257602,-0.000445437 -0.000520571,-0.000890875 -0.00078354,-0.00132558 -0.000268336,-0.000440071 -0.000536671,-0.000869408 -0.000805007,-0.00129338l0 0c-0.000273702,-0.00042397 -0.000547405,-0.000842574 -0.000826474,-0.00125044l0 0c-0.000279069,-0.000413237 -0.000558138,-0.000821107 -0.000842574,-0.00121824l0 0c-0.000284436,-0.000397137 -0.000574238,-0.000794274 -0.000864041,-0.00118068l0 0c-0.000289803,-0.000386403 -0.000584972,-0.00076744 -0.000880141,-0.00114311l0 0c-0.000300536,-0.00037567 -0.000595705,-0.000740607 -0.000901608,-0.00110554 -0.000300536,-0.000364937 -0.000606439,-0.000724506 -0.000912341,-0.00107334l0 0c-0.000305903,-0.000354203 -0.000617172,-0.000697673 -0.000928442,-0.00104114 -0.000311269,-0.000338103 -0.000627906,-0.000670839 -0.000944542,-0.00100358l0 0c-0.000316636,-0.00032737 -0.000633272,-0.000649372 -0.000955275,-0.000971375l0 0c-0.000322003,-0.000316636 -0.000644006,-0.000627906 -0.000966009,-0.000939175l0 0c-0.00032737,-0.000305903 -0.000654739,-0.000606439 -0.000982109,-0.000906975l0 0c-0.00032737,-0.000295169 -0.000654739,-0.000584972 -0.000987475,-0.000874774 -0.000332736,-0.000284436 -0.000665473,-0.000563505 -0.000998209,-0.000842574 -0.000332736,-0.000273702 -0.000670839,-0.000547405 -0.00100358,-0.000810374 -0.000338103,-0.000268336 -0.000676206,-0.000531305 -0.00101431,-0.00078354 -0.000338103,-0.000257602 -0.000681573,-0.000509838 -0.00101968,-0.000756707 -0.00034347,-0.000246869 -0.000681573,-0.000488371 -0.00102504,-0.000724506 -0.00034347,-0.000236135 -0.000686939,-0.000466904 -0.00103041,-0.000697673 -0.00034347,-0.000225402 -0.000686939,-0.000450804 -0.00103041,-0.000670839l0 0c-0.00034347,-0.000214669 -0.000692306,-0.000429337 -0.00103578,-0.000638639 -0.00034347,-0.000209302 -0.000692306,-0.000418604 -0.00103578,-0.000617172l0 0c-0.00034347,-0.000198568 -0.000692306,-0.000397137 -0.00103578,-0.000590339 -0.000348836,-0.000193202 -0.000692306,-0.000381037 -0.00103578,-0.000563505 -0.00034347,-0.000182468 -0.000692306,-0.000364937 -0.00103578,-0.000542038 -0.00034347,-0.000171735 -0.000686939,-0.00034347 -0.00103041,-0.000515205 -0.00034347,-0.000166368 -0.000686939,-0.000332736 -0.00103041,-0.000488371 -0.000338103,-0.000161001 -0.000681573,-0.000316636 -0.00101968,-0.000472271 -0.00034347,-0.000150268 -0.000681573,-0.000300536 -0.00101968,-0.000445437l0 0c-0.000338103,-0.000144901 -0.000676206,-0.000284436 -0.00101431,-0.00042397 -0.000332736,-0.000134168 -0.000670839,-0.000268336 -0.00100358,-0.000402504 -0.000332736,-0.000128801 -0.000665473,-0.000257602 -0.000998209,-0.000381037l0 0c-0.00032737,-0.000123434 -0.000660106,-0.000241502 -0.000987475,-0.00035957 -0.00032737,-0.000118068 -0.000649372,-0.000230769 -0.000976742,-0.00034347 -0.000322003,-0.000107334 -0.000644006,-0.000214669 -0.000966009,-0.000322003 -0.000316636,-0.000101968 -0.000633272,-0.000203935 -0.000949908,-0.000300536 -0.000316636,-0.000101968 -0.000627906,-0.000193202 -0.000939175,-0.000289803 -0.000311269,-9.12341e-005 -0.000622539,-0.000177102 -0.000928442,-0.000262969 -0.000305903,-9.12341e-005 -0.000611805,-0.000171735 -0.000912341,-0.000252236 -0.000300536,-8.05007e-005 -0.000595705,-0.000161001 -0.000890875,-0.000236135 -0.000300536,-7.5134e-005 -0.000590339,-0.000150268 -0.000880141,-0.000220035 -0.000289803,-6.97673e-005 -0.000574238,-0.000134168 -0.000858674,-0.000203935 -0.000284436,-6.44006e-005 -0.000563505,-0.000128801 -0.000842574,-0.000187835 -0.000279069,-5.90339e-005 -0.000552772,-0.000118068 -0.000821107,-0.000171735 -0.000268336,-5.90339e-005 -0.000536671,-0.000112701 -0.00079964,-0.000161001 -0.000262969,-5.36671e-005 -0.000525938,-0.000101968 -0.000778174,-0.000150268 -0.000257602,-4.83004e-005 -0.000509838,-9.12341e-005 -0.000756707,-0.000134168 -0.000246869,-4.29337e-005 -0.000493738,-8.58674e-005 -0.000729873,-0.000123434 -0.000241502,-4.29337e-005 -0.000477638,-7.5134e-005 -0.000708406,-0.000112701 -0.000230769,-3.7567e-005 -0.000456171,-6.97673e-005 -0.000681573,-0.000101968 -0.000220035,-3.22003e-005 -0.000440071,-6.44006e-005 -0.000654739,-9.12341e-005 -0.000214669,-2.68336e-005 -0.00042397,-5.36671e-005 -0.000627906,-8.05007e-005 -0.000203935,-2.68336e-005 -0.000402504,-5.36671e-005 -0.000595705,-7.5134e-005 -0.000193202,-2.14669e-005 -0.000386403,-4.29337e-005 -0.000568872,-6.44006e-005 -0.000182468,-1.61001e-005 -0.000364937,-3.7567e-005 -0.000536671,-5.36671e-005 -0.000177102,-1.61001e-005 -0.00034347,-3.22003e-005 -0.000509838,-4.83004e-005 -0.000161001,-1.61001e-005 -0.000322003,-3.22003e-005 -0.000472271,-4.29337e-005 -0.000150268,-1.07334e-005 -0.000300536,-2.68336e-005 -0.000440071,-3.7567e-005 -0.000139535,-1.07334e-005 -0.000279069,-2.14669e-005 -0.00040787,-2.68336e-005 -0.000128801,-1.07334e-005 -0.000252236,-1.61001e-005 -0.000370303,-2.68336e-005l-0.000332736 -2.14669e-005 -0.000295169 -1.61001e-005c-0.00593022,-0.000300536 -0.0430303,-0.000606439 -0.0612771,0.031626 -0.0182468,0.0322379 -0.0133309,0.064524 -0.0133309,0.064524l-0.0101968 0.0249177c0,0 -0.00475491,0.0113721 -0.00886045,0.0252075 -0.00410554,0.0138354 -0.00821107,0.0355759 -0.00410554,0.0399874 0.00410554,0.00441144 0.0190089,-0.0202218 0.0203774,-0.0225026 0,0 0.00106261,0.0117853 0.00387477,0.0179409l0.000107334 0.000236135 3.22003e-005 5.90339e-005 8.05007e-005 0.000187835 5.90339e-005 0.000128801 5.90339e-005 0.000128801 9.12341e-005 0.000198568 3.22003e-005 6.97673e-005 0.000128801 0.000273702 0 5.36671e-006 0.000128801 0.000284436c0.00259212,0.00563505 0.0079642,0.0165617 0.0178712,0.0252933l-0.000246869 7.5134e-005 -0.000257602 9.12341e-005 -0.000273702 8.58674e-005 -0.000279069 9.66009e-005 0 0 -0.000295169 9.66009e-005 0 0 -0.000295169 0.000101968 0 0 -0.000311269 0.000107334 0 0 -0.000311269 0.000107334 0 0 -0.000322003 0.000112701 0 0c-0.000220035,7.5134e-005 -0.000440071,0.000155635 -0.000670839,0.000236135l0 0c-0.000225402,8.05007e-005 -0.000456171,0.000166368 -0.000686939,0.000252236l0 0 -0.000354203 0.000128801 0 0 -0.00035957 0.000134168 0 0c-0.000601072,0.000225402 -0.00122361,0.000461537 -0.00185688,0.000713773l0 0c-0.000504471,0.000198568 -0.00101431,0.00040787 -0.00152951,0.000622539l0 0c-0.000515205,0.000220035 -0.00103041,0.000440071 -0.00154561,0.000670839l0 0c-0.000257602,0.000112701 -0.000515205,0.000230769 -0.00076744,0.000348836l0 0c-0.000509838,0.000236135 -0.00101968,0.000477638 -0.00151341,0.000724506l0 0c-0.00037567,0.000187835 -0.000740607,0.00037567 -0.00110554,0.000563505l0 0c-0.000118068,6.44006e-005 -0.000236135,0.000128801 -0.00035957,0.000193202l0 0c-0.000118068,6.44006e-005 -0.000236135,0.000128801 -0.000354203,0.000198568l0 0c-0.000112701,6.44006e-005 -0.000230769,0.000128801 -0.00034347,0.000193202l0 0c-0.000118068,6.44006e-005 -0.000230769,0.000134168 -0.00034347,0.000198568l0 0c-0.000112701,6.44006e-005 -0.000225402,0.000134168 -0.000338103,0.000198568l0 0c-0.000112701,6.97673e-005 -0.000220035,0.000134168 -0.00032737,0.000203935l0 0c-0.000112701,6.44006e-005 -0.000220035,0.000134168 -0.00032737,0.000198568l0 5.36671e-006c-0.000101968,6.44006e-005 -0.000209302,0.000134168 -0.000311269,0.000203935 -0.000107334,6.44006e-005 -0.000209302,0.000134168 -0.000311269,0.000203935l0 0c-9.66009e-005,6.97673e-005 -0.000198568,0.000139535 -0.000295169,0.000203935l0 0c-0.000101968,6.97673e-005 -0.000198568,0.000139535 -0.000289803,0.000209302 -9.66009e-005,6.97673e-005 -0.000187835,0.000139535 -0.000284436,0.000209302l0 0c-9.12341e-005,6.97673e-005 -0.000182468,0.000139535 -0.000268336,0.000214669l0 0c-9.12341e-005,6.97673e-005 -0.000177102,0.000139535 -0.000262969,0.000209302 -8.58674e-005,6.97673e-005 -0.000171735,0.000144901 -0.000252236,0.000214669 -8.05007e-005,6.97673e-005 -0.000161001,0.000139535 -0.000241502,0.000214669 -7.5134e-005,6.97673e-005 -0.000150268,0.000139535 -0.000225402,0.000214669 -7.5134e-005,6.97673e-005 -0.000150268,0.000139535 -0.000220035,0.000214669l0 0c-6.97673e-005,6.97673e-005 -0.000139535,0.000144901 -0.000203935,0.000214669 -6.44006e-005,7.5134e-005 -0.000128801,0.000144901 -0.000193202,0.000220035 -6.44006e-005,6.97673e-005 -0.000123434,0.000144901 -0.000182468,0.000214669 -5.36671e-005,7.5134e-005 -0.000112701,0.000150268 -0.000166368,0.000220035 -5.36671e-005,7.5134e-005 -0.000101968,0.000144901 -0.000150268,0.000220035 -4.83004e-005,7.5134e-005 -9.66009e-005,0.000144901 -0.000139535,0.000220035 -4.29337e-005,7.5134e-005 -8.58674e-005,0.000144901 -0.000123434,0.000220035 -4.29337e-005,7.5134e-005 -7.5134e-005,0.000144901 -0.000112701,0.000220035 -3.22003e-005,7.5134e-005 -6.44006e-005,0.000150268 -9.12341e-005,0.000220035 -0.00233452,0.00598389 0.00182468,0.00669229 0.00891948,0.0070948 0.0035474,0.000203935 0.0138354,0.000536671 0.0252772,0.000525938 0.0114418,-5.36671e-006 0.0240375,-0.00034347 0.0321949,-0.00148658l1.07334e-005 0 5.36671e-006 0 1.07334e-005 -5.36671e-006 5.36671e-006 0 1.07334e-005 0 5.36671e-006 0 1.07334e-005 0 1.07334e-005 -5.36671e-006 5.36671e-006 0 1.07334e-005 0 0 0 5.36671e-006 0 0 0 1.07334e-005 0 5.36671e-006 -5.36671e-006 1.07334e-005 0 0 0 5.36671e-006 0 1.07334e-005 0 0 0 5.36671e-006 -5.36671e-006 1.07334e-005 0 5.36671e-006 0 0 0 1.07334e-005 0 0 0 5.36671e-006 0 0 0 1.07334e-005 -5.36671e-006 0 0 5.36671e-006 0 0 0 5.36671e-006 0 5.36671e-006 0 5.36671e-006 0 0 0 5.36671e-006 -5.36671e-006 0 0 1.07334e-005 0 0 0 5.36671e-006 0 0 0 1.07334e-005 0 0 0 5.36671e-006 0 0 0 1.07334e-005 -5.36671e-006 0 0 5.36671e-006 0 0 0 1.07334e-005 0 0 0 5.36671e-006 0 0 0 1.07334e-005 0 0 0 5.36671e-006 -5.36671e-006 0 0 1.07334e-005 0 0 0 5.36671e-006 0 0 0 1.07334e-005 0 0 0 5.36671e-006 -5.36671e-006 0 0 5.36671e-006 0 0 0 1.07334e-005 0 0 0 5.36671e-006 0 0 0 1.07334e-005 0 0 0 5.36671e-006 -5.36671e-006 0 0 1.07334e-005 0 0 0 5.36671e-006 0 0 0 1.07334e-005 0 0 0 5.36671e-006 0 0 0 1.07334e-005 -5.36671e-006 0 0 5.36671e-006 0 0 0 5.36671e-006 0 5.36671e-006 0 5.36671e-006 0 0 0 5.36671e-006 -5.36671e-006 0 0 1.07334e-005 0 0 0 5.36671e-006 0 0 0 1.07334e-005 0 0 0 5.36671e-006 0 0 0 1.07334e-005 -5.36671e-006 0 0 5.36671e-006 0 0 0 1.07334e-005 0 0 0 5.36671e-006 0 0 0 5.36671e-006 -5.36671e-006c0.00114848,4.29337e-005 0.00225402,6.44006e-005 0.00331663,6.97673e-005l6.97673e-005 0 6.97673e-005 0 6.97673e-005 0 0.000123434 5.36671e-006 1.61001e-005 0 6.44006e-005 0 0.000139535 0 6.44006e-005 0 6.97673e-005 0 5.36671e-005 0 1.61001e-005 0 6.44006e-005 0 0.00040787 0 0.00039177 0 4.83004e-005 0 4.29337e-005 0 1.07334e-005 0 3.7567e-005 0 4.29337e-005 0 4.83004e-005 0 9.12341e-005 0 4.29337e-005 0 4.83004e-005 -5.36671e-006 4.83004e-005 0 4.83004e-005 0c0.000686939,-5.36671e-006 0.00142755,-1.61001e-005 0.00222182,-4.29337e-005l0.000118068 1.61001e-005 0 0 2.14669e-005 5.36671e-006 0 0 1.07334e-005 0 5.36671e-006 0 1.07334e-005 0 0 0 5.36671e-006 5.36671e-006 1.07334e-005 0 0 0 5.36671e-006 0 5.36671e-006 0 5.36671e-006 0 0 0 5.36671e-006 0 0 0 5.36671e-006 5.36671e-006 0 0 1.07334e-005 0 0 0 5.36671e-006 0 5.36671e-006 0 5.36671e-006 0 5.36671e-006 5.36671e-006 5.36671e-006 0 0 0 5.36671e-006 0 0 0 5.36671e-006 0 5.36671e-006 0 5.36671e-006 0 5.36671e-006 0 5.36671e-006 5.36671e-006 5.36671e-006 0 5.36671e-006 0 5.36671e-006 0 5.36671e-006 0 5.36671e-006 0 5.36671e-006 0 5.36671e-006 5.36671e-006 5.36671e-006 0 5.36671e-006 0 5.36671e-006 0 5.36671e-006 0c0.00816277,0.00114311 0.0207585,0.00148121 0.0321949,0.00148658 0.0114418,1.07334e-005 0.0217352,-0.000322003 0.0252826,-0.000525938 0.0070948,-0.000402504 0.0112486,-0.00111091 0.00891948,-0.0070948 -3.22003e-005,-7.5134e-005 -6.44006e-005,-0.000150268 -9.66009e-005,-0.000220035 -3.7567e-005,-7.5134e-005 -6.97673e-005,-0.000150268 -0.000112701,-0.000225402 -3.7567e-005,-7.5134e-005 -8.05007e-005,-0.000150268 -0.000123434,-0.000225402 -4.83004e-005,-7.5134e-005 -9.66009e-005,-0.000150268 -0.000144901,-0.000220035 -4.83004e-005,-7.5134e-005 -0.000101968,-0.000150268 -0.000155635,-0.000225402 -5.36671e-005,-7.5134e-005 -0.000112701,-0.000144901 -0.000171735,-0.000220035 -5.90339e-005,-7.5134e-005 -0.000118068,-0.000150268 -0.000182468,-0.000220035 -6.44006e-005,-7.5134e-005 -0.000128801,-0.000150268 -0.000198568,-0.000220035l0 -5.36671e-006c-6.44006e-005,-6.97673e-005 -0.000134168,-0.000144901 -0.000209302,-0.000214669 -6.97673e-005,-7.5134e-005 -0.000144901,-0.000150268 -0.000220035,-0.000220035 -8.05007e-005,-7.5134e-005 -0.000155635,-0.000144901 -0.000236135,-0.000220035l0 0c-8.05007e-005,-6.97673e-005 -0.000161001,-0.000144901 -0.000246869,-0.000214669 -8.05007e-005,-7.5134e-005 -0.000166368,-0.000144901 -0.000257602,-0.000214669l0 -5.36671e-006c-8.58674e-005,-6.97673e-005 -0.000177102,-0.000139535 -0.000262969,-0.000214669l0 0c-9.12341e-005,-6.97673e-005 -0.000187835,-0.000139535 -0.000279069,-0.000209302 -9.66009e-005,-7.5134e-005 -0.000193202,-0.000144901 -0.000289803,-0.000214669l0 0c-9.66009e-005,-6.97673e-005 -0.000193202,-0.000139535 -0.000295169,-0.000209302 -0.000101968,-6.97673e-005 -0.000203935,-0.000139535 -0.000305903,-0.000209302l0 0c-0.000101968,-6.97673e-005 -0.000209302,-0.000139535 -0.000311269,-0.000209302 -0.000107334,-6.97673e-005 -0.000214669,-0.000139535 -0.000322003,-0.000209302l0 0c-0.000112701,-6.44006e-005 -0.000220035,-0.000134168 -0.000332736,-0.000203935l0 0c-0.000112701,-6.97673e-005 -0.000225402,-0.000134168 -0.000338103,-0.000203935l0 0c-0.000112701,-6.97673e-005 -0.000225402,-0.000134168 -0.00034347,-0.000203935l0 0c-0.000112701,-6.44006e-005 -0.000230769,-0.000128801 -0.000348836,-0.000198568l0 0c-0.000118068,-6.44006e-005 -0.000236135,-0.000134168 -0.000354203,-0.000198568l0 0c-0.000118068,-6.44006e-005 -0.000241502,-0.000128801 -0.00035957,-0.000193202l0 0c-0.000123434,-6.97673e-005 -0.000246869,-0.000134168 -0.000370303,-0.000198568l0 0c-0.000118068,-6.44006e-005 -0.000241502,-0.000128801 -0.000370303,-0.000193202l0 0c-0.000370303,-0.000187835 -0.00075134,-0.00037567 -0.00113238,-0.000563505l0 0c-0.00127728,-0.000617172 -0.00259749,-0.00119678 -0.00389623,-0.00172808l0 0c-0.000128801,-5.36671e-005 -0.000262969,-0.000107334 -0.00039177,-0.000161001l0 0c-0.000257602,-0.000101968 -0.000515205,-0.000203935 -0.00076744,-0.000305903l0 0c-0.000128801,-5.36671e-005 -0.000257602,-0.000101968 -0.000381037,-0.000150268l0 0c-0.000509838,-0.000198568 -0.00100358,-0.000386403 -0.00148658,-0.000563505l0 0 -0.000364937 -0.000134168 0 0 -0.000354203 -0.000128801 0 0c-0.000236135,-8.58674e-005 -0.000466904,-0.000166368 -0.000692306,-0.000246869l0 0c-0.000338103,-0.000123434 -0.000665473,-0.000236135 -0.000987475,-0.000348836l0 0 -0.000311269 -0.000107334 0 0 -0.000305903 -0.000101968 0 0 -0.000295169 -0.000101968 0 0 -0.000284436 -9.66009e-005 0 0 -0.000279069 -9.12341e-005 -0.000268336 -8.58674e-005 -0.000252236 -8.58674e-005 -0.000236135 -7.5134e-005c0.00107871,-0.000955275 0.00214132,-0.00196958 0.00317709,-0.00303219 0.000166368,-0.000171735 0.000332736,-0.00034347 0.000499104,-0.000515205l0.000177102 -0.000182468c0.000268336,-0.000284436 0.000531305,-0.000568872 0.00079964,-0.000858674 0.0183971,-0.0202271 0.016873,-0.0329946 0.017635,-0.0402933 0,0 0.0155098,0.022347 0.0188533,0.0231091 0.00334346,0.000762073 0.00441144,-0.00273702 0.00304293,-0.0199159zm-0.0369176 0.044313c-0.000257602,-0.000101968 -0.000515205,-0.000203935 -0.00076744,-0.000305903m-0.00258676 -0.000976742c-0.000236135,-8.58674e-005 -0.000466904,-0.000166368 -0.000692306,-0.000246869"/>
 </g>
</svg>
