<?xml version="1.0" encoding="UTF-8"?>
<!DOCTYPE svg PUBLIC "-//W3C//DTD SVG 1.1//EN" "http://www.w3.org/Graphics/SVG/1.1/DTD/svg11.dtd">
<!-- Creator: CorelDRAW -->
<svg xmlns="http://www.w3.org/2000/svg" xml:space="preserve" width="4.2333mm" height="3.4408mm" style="shape-rendering:geometricPrecision; text-rendering:geometricPrecision; image-rendering:optimizeQuality; fill-rule:evenodd; clip-rule:evenodd"
viewBox="0 0 0.126768 0.103036"
 xmlns:xlink="http://www.w3.org/1999/xlink">
 <defs>
  <style type="text/css">
   <![CDATA[
    .fil0 {fill:white}
   ]]>
  </style>
 </defs>
 <g id="图层_x0020_1">
  <metadata id="CorelCorpID_0Corel-Layer"/>
  <path class="fil0" d="M0.126768 0.0121908c-0.00468046,0.0020842 -0.00968433,0.00347666 -0.0149218,0.00407856 0.0053752,-0.00319817 0.00949867,-0.00829786 0.0114481,-0.0143678 -0.00505478,0.00296459 -0.0106156,0.00514462 -0.0165478,0.0063035 -0.00491104,-0.00524344 -0.0117745,-0.00821402 -0.0189584,-0.00820503 -0.0143678,0 -0.0260016,0.0116338 -0.0260016,0.0260016 0,0.00203928 0.000230579,0.00403364 0.000694733,0.00593218 -0.0216445,-0.00111097 -0.0407886,-0.0114481 -0.0536262,-0.0271605 -0.00222494,0.00384798 -0.00352158,0.00829786 -0.00352158,0.0130712 0,0.00903751 0.00458763,0.0169641 0.0115859,0.0216475 -0.00426422,-0.000140743 -0.00824995,-0.00129963 -0.0117715,-0.00324608l0 0.00032341c0,0.012607 0.00894468,0.0230819 0.020857,0.0254925 -0.00218002,0.000604897 -0.0044978,0.000928307 -0.00686049,0.000928307 -0.00166796,0 -0.003291,-0.000185661 -0.00491404,-0.000464153 0.003291,0.0103371 0.0129334,0.0178444 0.0242887,0.018078 -0.00889977,0.00695032 -0.0201173,0.0111217 -0.0323051,0.0111217 -0.00208719,0 -0.00417139,-0.000137749 -0.00621367,-0.000368328 0.011496,0.00736956 0.0251691,0.0116787 0.0398633,0.0116787 0.0478317,0 0.0739741,-0.0396297 0.0739741,-0.0739741 0,-0.00111397 -4.49181e-005,-0.00227285 -9.28307e-005,-0.00338383 0.00514462,-0.00370724 0.00954958,-0.00829786 0.0130232,-0.0134874z"/>
 </g>
</svg>
