<?xml version="1.0" encoding="UTF-8"?>
<!DOCTYPE svg PUBLIC "-//W3C//DTD SVG 1.1//EN" "http://www.w3.org/Graphics/SVG/1.1/DTD/svg11.dtd">
<!-- Creator: CorelDRAW -->
<svg xmlns="http://www.w3.org/2000/svg" xml:space="preserve" width="5.197mm" height="4.2334mm" style="shape-rendering:geometricPrecision; text-rendering:geometricPrecision; image-rendering:optimizeQuality; fill-rule:evenodd; clip-rule:evenodd"
viewBox="0 0 0.567007 0.461876"
 xmlns:xlink="http://www.w3.org/1999/xlink">
 <defs>
  <style type="text/css">
   <![CDATA[
    .fil0 {fill:white}
   ]]>
  </style>
 </defs>
 <g id="图层_x0020_1">
  <metadata id="CorelCorpID_0Corel-Layer"/>
  <path class="fil0" d="M0.173495 0.00154926c0.00858639,-0.000981925 0.0173473,-0.00150562 0.0262392,-0.00154926l0.00202931 0c0.00890278,4.36411e-005 0.0176965,0.000567334 0.0263374,0.00154926 0.0035022,0.00040368 0.00697167,0.000883732 0.0104193,0.00142925 0.00271666,0.000425501 0.00542241,0.000905553 0.00810633,0.00142925 0.00228025,0.000436411 0.00454958,0.000916463 0.00680801,0.00142925 0.0020184,0.000447321 0.00401498,0.000916463 0.00600065,0.00141834 0.0018002,0.000458232 0.00358948,0.000938284 0.00537877,0.00142925 0.00164745,0.000458232 0.0032949,0.000938284 0.00493144,0.00142925 0.00152744,0.000458232 0.00305488,0.000938284 0.0045714,0.00142925 0.00142925,0.000458232 0.00284758,0.000938284 0.00426592,0.00142925 0.00134196,0.000458232 0.00268393,0.000938284 0.00401498,0.00141834 0.00126559,0.000469142 0.00253118,0.000949194 0.00378587,0.00142925 0.00121104,0.000469142 0.00241117,0.000949194 0.00360039,0.00142925 0.00115649,0.000469142 0.00230207,0.000949194 0.00343674,0.00142925 0.00110194,0.000469142 0.00220388,0.000938284 0.0032949,0.00142925 0.0010583,0.000469142 0.00211659,0.000938284 0.00316398,0.00142925 0.00100375,0.000458232 0.00200749,0.000938284 0.00301124,0.00141834 0.000971014,0.000469142 0.00194203,0.000949194 0.00290213,0.00142925 0.000938284,0.000469142 0.00187657,0.000949194 0.00281485,0.00142925 0.000905553,0.000469142 0.00182202,0.000949194 0.00272757,0.00142925 0.000872822,0.000469142 0.00174564,0.000949194 0.00261847,0.00142925 0.000840091,0.000469142 0.00169109,0.000949194 0.00253118,0.00141834 0.000829181,0.000480052 0.00164745,0.000949194 0.00246572,0.00142925 0.00080736,0.000469142 0.00160381,0.000949194 0.00238935,0.00142925 0.00078554,0.000469142 0.00154926,0.000949194 0.00232389,0.00142925 0.000752809,0.000469142 0.00151653,0.000949194 0.00226934,0.00142925 0.000730988,0.000469142 0.00145107,0.000949194 0.00218205,0.00142925 0.000720078,0.000469142 0.00142925,0.000938284 0.00213841,0.00141834 0.000698258,0.000480052 0.00139652,0.000949194 0.00209477,0.00142925 0.000676437,0.000469142 0.00134196,0.000949194 0.00200749,0.00142925 0.000665527,0.000469142 0.00133105,0.000949194 0.00198567,0.00142925 0.000643706,0.000469142 0.00128741,0.000949194 0.00192021,0.00142925 0.000632796,0.000469142 0.00125468,0.000949194 0.00187657,0.00141834 0.000621886,0.000480052 0.00124377,0.000949194 0.00185475,0.00142925 0.000600065,0.000469142 0.00118922,0.000949194 0.00177837,0.00142925 0.000589155,0.000480052 0.00118922,0.000949194 0.00176746,0.00142925 0.000567334,0.000469142 0.00113467,0.000949194 0.00169109,0.00142925 0.000567334,0.000469142 0.00113467,0.000949194 0.00168018,0.00142925 0.000556424,0.000469142 0.00109103,0.000949194 0.00162563,0.00141834 0.000545514,0.000480052 0.00108012,0.000949194 0.00160381,0.00142925 0.000523693,0.000469142 0.00104739,0.000949194 0.00156017,0.00142925 0.000512783,0.000469142 0.00102557,0.000949194 0.00152744,0.00142925 0.000501873,0.000469142 0.00100375,0.000949194 0.00149471,0.00142925 0.000490962,0.000469142 0.000981925,0.000949194 0.00146198,0.00142925 0.000480052,0.000469142 0.000960104,0.000949194 0.00144016,0.00141834 0.000469142,0.000480052 0.000927373,0.000949194 0.00139652,0.00142925 0.000458232,0.000469142 0.000916463,0.000949194 0.00136378,0.00142925 0.000458232,0.000469142 0.000905553,0.000949194 0.00134196,0.00142925 0.000447321,0.000469142 0.000883732,0.000949194 0.00130923,0.00142925 0.000436411,0.000469142 0.000861912,0.000949194 0.00128741,0.00141834 0.000425501,0.000480052 0.000840091,0.000960104 0.00125468,0.00142925 0.00041459,0.000480052 0.000829181,0.000949194 0.00123286,0.00142925 0.00040368,0.000469142 0.00080736,0.000949194 0.00120013,0.00142925 0.00039277,0.000469142 0.00079645,0.000949194 0.00118922,0.00142925 0.00038186,0.000469142 0.000763719,0.000949194 0.00114558,0.00142925 0.000370949,0.000469142 0.000763719,0.000938284 0.00113467,0.00141834 0.000370949,0.000480052 0.000730988,0.000960104 0.00109103,0.00142925 0.000370949,0.000480052 0.000730988,0.000949194 0.00109103,0.00142925 0.000360039,0.000469142 0.000698258,0.000949194 0.00104739,0.00142925 0.000349129,0.000469142 0.000698258,0.000949194 0.00103648,0.00142925 0.000338218,0.000469142 0.000676437,0.000949194 0.00101466,0.00141834 0.000327308,0.000480052 0.000654616,0.000949194 0.000981925,0.00142925 0.000327308,0.000480052 0.000654616,0.000949194 0.000971014,0.00142925 0.000316398,0.000469142 0.000632796,0.000949194 0.000938284,0.00142925 0.000316398,0.000469142 0.000632796,0.000949194 0.000938284,0.00142925 0.000305488,0.000469142 0.000589155,0.000949194 0.000894642,0.00141834 0.000294577,0.000480052 0.000600065,0.000949194 0.000883732,0.00142925 0.000294577,0.000480052 0.000578245,0.000949194 0.000861912,0.00142925 0.000283667,0.000480052 0.000567334,0.000949194 0.000840091,0.00142925 0.000272757,0.000469142 0.000556424,0.000949194 0.000818271,0.00142925 0.000272757,0.000469142 0.000534603,0.000949194 0.00080736,0.00142925 0.000261847,0.000469142 0.000534603,0.000949194 0.00078554,0.00141834 0.000261847,0.000480052 0.000501873,0.000960104 0.000752809,0.00142925 0.000250936,0.000480052 0.000512783,0.000949194 0.000752809,0.00142925 0.000250936,0.000469142 0.000480052,0.000949194 0.000720078,0.00142925 0.000240026,0.000469142 0.000480052,0.000949194 0.000709168,0.00142925 0.000240026,0.000469142 0.000469142,0.000949194 0.000698258,0.00141834 0.000229116,0.000480052 0.000436411,0.000960104 0.000665527,0.00142925 0.000218205,0.000480052 0.000447321,0.000949194 0.000665527,0.00142925 0.000207295,0.000480052 0.00041459,0.000949194 0.000621886,0.00142925 0.000207295,0.000469142 0.00041459,0.000949194 0.000621886,0.00142925 0.000196385,0.000469142 0.00040368,0.000949194 0.000600065,0.00142925 0.000196385,0.000469142 0.00038186,0.000949194 0.000578245,0.00141834 0.000196385,0.000480052 0.00039277,0.000949194 0.000578245,0.00142925 0.000185475,0.000480052 0.000360039,0.000949194 0.000534603,0.00142925 0.000185475,0.000480052 0.000360039,0.000949194 0.000534603,0.00142925 0.000174564,0.000469142 0.000349129,0.000949194 0.000523693,0.00142925 0.000163654,0.000469142 0.000327308,0.000949194 0.000490962,0.00141834 0.000163654,0.000480052 0.000338218,0.000960104 0.000490962,0.00142925 0.000163654,0.000480052 0.000305488,0.000949194 0.000458232,0.00142925 0.000152744,0.000480052 0.000305488,0.000949194 0.000447321,0.00142925 0.000152744,0.000480052 0.000305488,0.000949194 0.000447321,0.00142925 0.000141834,0.000469142 0.000272757,0.000949194 0.00040368,0.00142925 0.000141834,0.000469142 0.000283667,0.000949194 0.00041459,0.00141834 0.000130923,0.000480052 0.000250936,0.000960104 0.00038186,0.00142925 0.000130923,0.000480052 0.000250936,0.000949194 0.000370949,0.00142925 0.000120013,0.000480052 0.000250936,0.000949194 0.000360039,0.00142925 0.000120013,0.000469142 0.000218205,0.000949194 0.000338218,0.00142925 0.000109103,0.000469142 0.000218205,0.000949194 0.000316398,0.00142925 7.63719e-005,0.000305488 0.000152744,0.000610975 0.000218205,0.000916463l0 1.09103e-005c-0.00362221,-0.00040368 -0.00726624,-0.000730988 -0.0109321,-0.000927373 -0.00278212,-0.000163654 -0.00558606,-0.000250936 -0.00839,-0.000250936 -0.00319671,0 -0.00636069,8.72822e-005 -0.00951376,0.000250936 -0.00522602,0.000261847 -0.0103975,0.000741899 -0.0154926,0.00141834 -0.00301124,0.00040368 -0.00600065,0.000883732 -0.00895734,0.00142925 -0.0023348,0.000436411 -0.00464778,0.000916463 -0.00693893,0.00142925 -0.00197476,0.000447321 -0.00394952,0.000916463 -0.00590246,0.00142925 -0.00172382,0.000447321 -0.00342583,0.000927373 -0.00512783,0.00142925 -0.00154926,0.000447321 -0.00308761,0.000927373 -0.00462596,0.00141834 -0.00141834,0.000458232 -0.00282576,0.000938284 -0.00423319,0.00142925 -0.00130923,0.000458232 -0.00261847,0.000938284 -0.00391679,0.00142925 -0.00122195,0.000458232 -0.0024439,0.000938284 -0.00365494,0.00142925 -0.00114558,0.000458232 -0.00230207,0.000938284 -0.00343674,0.00142925 -0.00109103,0.000458232 -0.00217114,0.000938284 -0.00325126,0.00141834 -0.00103648,0.000469142 -0.00206204,0.000949194 -0.00308761,0.00142925 -0.000971014,0.000469142 -0.00194203,0.000949194 -0.00290213,0.00142925 -0.000938284,0.000469142 -0.00186566,0.000949194 -0.00279303,0.00142925 -0.000894642,0.000469142 -0.00178928,0.000938284 -0.00268393,0.00142925 -0.000861912,0.000469142 -0.00172382,0.000938284 -0.00258573,0.00142925 -0.000818271,0.000458232 -0.00163654,0.000938284 -0.0024439,0.00141834 -0.00079645,0.000469142 -0.0015929,0.000949194 -0.00237844,0.00142925 -0.000774629,0.000469142 -0.00154926,0.000949194 -0.00230207,0.00142925 -0.000741899,0.000469142 -0.0014838,0.000949194 -0.00221479,0.00142925 -0.000720078,0.000469142 -0.00142925,0.000949194 -0.00213841,0.00142925 -0.000698258,0.000469142 -0.00139652,0.000938284 -0.00209477,0.00142925 -0.000665527,0.000469142 -0.00133105,0.000949194 -0.00198567,0.00141834 -0.000665527,0.000480052 -0.00130923,0.000949194 -0.00195294,0.00142925 -0.000643706,0.000469142 -0.0012765,0.000949194 -0.0019093,0.00142925 -0.000610975,0.000469142 -0.00122195,0.000949194 -0.00182202,0.00142925 -0.000610975,0.000469142 -0.00121104,0.000938284 -0.00181111,0.00142925 -0.000578245,0.000469142 -0.00114558,0.000949194 -0.00172382,0.00141834 -0.000567334,0.000480052 -0.00113467,0.000949194 -0.00169109,0.00142925 -0.000556424,0.000469142 -0.00110194,0.000949194 -0.00164745,0.00142925 -0.000534603,0.000469142 -0.00106921,0.000949194 -0.00160381,0.00142925 -0.000523693,0.000469142 -0.00104739,0.000949194 -0.00156017,0.00142925 -0.000512783,0.000469142 -0.00102557,0.000949194 -0.00152744,0.00141834 -0.000501873,0.000480052 -0.000992835,0.000949194 -0.0014838,0.00142925 -0.000490962,0.000480052 -0.000971014,0.000949194 -0.00145107,0.00142925 -0.000469142,0.000469142 -0.000949194,0.000949194 -0.00141834,0.00142925 -0.000458232,0.000469142 -0.000916463,0.000949194 -0.00137469,0.00142925 -0.000447321,0.000469142 -0.000905553,0.000949194 -0.00135287,0.00142925 -0.000436411,0.000469142 -0.000872822,0.000949194 -0.00130923,0.00141834 -0.000425501,0.000480052 -0.000861912,0.000949194 -0.00128741,0.00142925 -0.00041459,0.000480052 -0.000829181,0.000949194 -0.00124377,0.00142925 -0.00041459,0.000480052 -0.000818271,0.000949194 -0.00123286,0.00142925 -0.00039277,0.000469142 -0.00079645,0.000949194 -0.00118922,0.00142925 -0.00039277,0.000469142 -0.00078554,0.000949194 -0.0011674,0.00142925 -0.00038186,0.000469142 -0.000763719,0.000949194 -0.00114558,0.00141834 -0.000370949,0.000480052 -0.000741899,0.000949194 -0.00110194,0.00142925 -0.000370949,0.000469142 -0.000741899,0.000949194 -0.00110194,0.00142925 -0.000349129,0.000469142 -0.000698258,0.000949194 -0.00104739,0.00142925 -0.000349129,0.000469142 -0.000709168,0.000949194 -0.0010583,0.00142925 -0.000338218,0.000469142 -0.000665527,0.000949194 -0.000992835,0.00141834 -0.000338218,0.000480052 -0.000676437,0.000949194 -0.00100375,0.00142925 -0.000327308,0.000480052 -0.000643706,0.000949194 -0.000960104,0.00142925 -0.000316398,0.000480052 -0.000632796,0.000949194 -0.000949194,0.00142925 -0.000305488,0.000469142 -0.000610975,0.000949194 -0.000916463,0.00142925 -0.000305488,0.000469142 -0.000600065,0.000949194 -0.000905553,0.00141834 -0.000294577,0.000480052 -0.000589155,0.000949194 -0.000883732,0.00142925 -0.000283667,0.000480052 -0.000567334,0.000960104 -0.000851001,0.00142925 -0.000283667,0.000480052 -0.000567334,0.000949194 -0.000851001,0.00142925 -0.000272757,0.000469142 -0.000534603,0.000949194 -0.00080736,0.00142925 -0.000261847,0.000469142 -0.000534603,0.000949194 -0.00079645,0.00142925 -0.000261847,0.000469142 -0.000523693,0.000949194 -0.000774629,0.00141834 -0.000261847,0.000480052 -0.000501873,0.000960104 -0.000752809,0.00142925 -0.000250936,0.000480052 -0.000512783,0.000949194 -0.000752809,0.00142925 -0.000240026,0.000469142 -0.000469142,0.000949194 -0.000709168,0.00142925 -0.000240026,0.000469142 -0.000480052,0.000949194 -0.000709168,0.00142925 -0.000229116,0.000469142 -0.000458232,0.000949194 -0.000676437,0.00141834 -0.000229116,0.000480052 -0.000447321,0.000960104 -0.000665527,0.00142925 -0.000218205,0.000480052 -0.000447321,0.000949194 -0.000654616,0.00142925 -0.000218205,0.000469142 -0.00041459,0.000949194 -0.000621886,0.00142925 -0.000207295,0.000469142 -0.00041459,0.000949194 -0.000621886,0.00142925 -0.000196385,0.000469142 -0.00039277,0.000949194 -0.000589155,0.00142925 -0.000196385,0.000469142 -0.00039277,0.000949194 -0.000578245,0.00141834 -0.000185475,0.000480052 -0.00038186,0.000949194 -0.000567334,0.00142925 -0.000185475,0.000480052 -0.000360039,0.000949194 -0.000534603,0.00142925 -0.000185475,0.000480052 -0.000360039,0.000949194 -0.000534603,0.00142925 -0.000174564,0.000469142 -0.000349129,0.000949194 -0.000512783,0.00142925 -0.000163654,0.000469142 -0.000327308,0.000949194 -0.000490962,0.00142925 -0.000163654,0.000469142 -0.000338218,0.000949194 -0.000490962,0.00141834 -0.000163654,0.000480052 -0.000305488,0.000960104 -0.000458232,0.00142925 -0.000152744,0.000480052 -0.000305488,0.000949194 -0.000447321,0.00142925 -0.000141834,0.000480052 -0.000294577,0.000949194 -0.000436411,0.00142925 -0.000141834,0.000469142 -0.000272757,0.000949194 -0.00041459,0.00142925 -0.000130923,0.000469142 -0.000272757,0.000949194 -0.00040368,0.00141834 -0.000130923,0.000480052 -0.000261847,0.000960104 -0.00038186,0.00142925 -0.000130923,0.000480052 -0.000250936,0.000949194 -0.000370949,0.00142925 -0.000120013,0.000480052 -0.000250936,0.000949194 -0.000370949,0.00142925 -0.000120013,0.000469142 -0.000218205,0.000949194 -0.000327308,0.00142925 -0.000109103,0.000469142 -0.000229116,0.000949194 -0.000327308,0.00142925 -0.000109103,0.000469142 -0.000218205,0.000949194 -0.000327308,0.00141834 -9.81925e-005,0.000480052 -0.000185475,0.000960104 -0.000283667,0.00142925 -9.81925e-005,0.000480052 -0.000196385,0.000949194 -0.000294577,0.00142925 -8.72822e-005,0.000480052 -0.000174564,0.000949194 -0.000261847,0.00142925 -8.72822e-005,0.000469142 -0.000174564,0.000949194 -0.000250936,0.00142925 -8.72822e-005,0.000469142 -0.000174564,0.000949194 -0.000250936,0.00141834 -7.63719e-005,0.000480052 -0.000141834,0.000960104 -0.000218205,0.00142925 -7.63719e-005,0.000480052 -0.000141834,0.000949194 -0.000218205,0.00142925 -6.54616e-005,0.000480052 -0.000141834,0.000949194 -0.000207295,0.00142925 -6.54616e-005,0.000469142 -0.000109103,0.000949194 -0.000174564,0.00142925 -5.45514e-005,0.000469142 -0.000120013,0.000949194 -0.000163654,0.00142925 -5.45514e-005,0.000469142 -0.000120013,0.000949194 -0.000163654,0.00141834 -5.45514e-005,0.000480052 -9.81925e-005,0.000960104 -0.000141834,0.00142925 -4.36411e-005,0.000480052 -8.72822e-005,0.000949194 -0.000130923,0.00142925 -4.36411e-005,0.000480052 -7.63719e-005,0.000949194 -0.000120013,0.00142925 -3.27308e-005,0.000469142 -6.54616e-005,0.000949194 -9.81925e-005,0.00142925 -3.27308e-005,0.000469142 -6.54616e-005,0.000949194 -8.72822e-005,0.00141834 -3.27308e-005,0.000480052 -5.45514e-005,0.000960104 -7.63719e-005,0.00142925 -2.18205e-005,0.000480052 -4.36411e-005,0.000949194 -5.45514e-005,0.00142925 -2.18205e-005,0.000480052 -4.36411e-005,0.000949194 -5.45514e-005,0.00142925 -2.18205e-005,0.000469142 -2.18205e-005,0.000949194 -3.27308e-005,0.00142925 -1.09103e-005,0.000469142 -1.09103e-005,0.000949194 -2.18205e-005,0.00142925 0,0.000469142 -2.18205e-005,0.000949194 -2.18205e-005,0.00141834l0 0.000152744c0,0.000425501 0,0.000851001 1.09103e-005,0.0012765 0,0.000480052 1.09103e-005,0.000949194 2.18205e-005,0.00142925 0,0.000480052 2.18205e-005,0.000949194 3.27308e-005,0.00142925 1.09103e-005,0.000469142 3.27308e-005,0.000949194 4.36411e-005,0.00142925 2.18205e-005,0.000469142 4.36411e-005,0.000949194 6.54616e-005,0.00141834 2.18205e-005,0.000480052 5.45514e-005,0.000960104 7.63719e-005,0.00142925 3.27308e-005,0.000480052 6.54616e-005,0.000960104 9.81925e-005,0.00142925 3.27308e-005,0.000480052 6.54616e-005,0.000949194 0.000109103,0.00142925 3.27308e-005,0.000469142 7.63719e-005,0.000949194 0.000120013,0.00142925 4.36411e-005,0.000469142 8.72822e-005,0.000949194 0.000130923,0.00142925 4.36411e-005,0.000469142 9.81925e-005,0.000949194 0.000152744,0.00141834 5.45514e-005,0.000480052 0.000109103,0.000960104 0.000163654,0.00142925 5.45514e-005,0.000480052 0.000109103,0.000949194 0.000174564,0.00142925 6.54616e-005,0.000480052 0.000130923,0.000949194 0.000196385,0.00142925 6.54616e-005,0.000469142 0.000130923,0.000949194 0.000207295,0.00142925 6.54616e-005,0.000469142 0.000141834,0.000949194 0.000218205,0.00141834 7.63719e-005,0.000480052 0.000152744,0.000960104 0.000229116,0.00142925 8.72822e-005,0.000480052 0.000163654,0.000960104 0.000250936,0.00142925 8.72822e-005,0.000480052 0.000174564,0.000949194 0.000261847,0.00142925 8.72822e-005,0.000480052 0.000185475,0.000949194 0.000272757,0.00142925 9.81925e-005,0.000469142 0.000196385,0.000949194 0.000294577,0.00142925 9.81925e-005,0.000469142 0.000207295,0.000949194 0.000305488,0.00141834 0.000109103,0.000480052 0.000207295,0.000960104 0.000316398,0.00142925 0.000109103,0.000480052 0.000218205,0.000949194 0.000338218,0.00142925 0.000109103,0.000480052 0.000229116,0.000949194 0.000349129,0.00142925 0.000109103,0.000469142 0.000229116,0.000949194 0.000360039,0.00142925 0.000120013,0.000469142 0.000240026,0.000949194 0.000370949,0.00141834 0.000130923,0.000480052 0.000261847,0.000960104 0.00039277,0.00142925 0.000130923,0.000480052 0.000261847,0.000960104 0.00040368,0.00142925l0.000229116 0.00080736c-0.00337127,0.000272757 -0.00676437,0.000480052 -0.0101684,0.000621886 -0.00284758,0.000120013 -0.00569516,0.000185475 -0.00856457,0.000185475 -0.00278212,0 -0.00549878,-6.54616e-005 -0.0081718,-0.000185475 -0.0056297,-0.000250936 -0.0110521,-0.000752809 -0.0163981,-0.00142925 -0.00325126,-0.00041459 -0.0064807,-0.000894642 -0.00971014,-0.00142925 -0.00267302,-0.000436411 -0.00535694,-0.000916463 -0.00805178,-0.00142925 -0.00243299,-0.000447321 -0.00487689,-0.000927373 -0.00734261,-0.00141834 -0.00231298,-0.000469142 -0.00465869,-0.000949194 -0.00702622,-0.00142925 -0.00229116,-0.000469142 -0.00461505,-0.000949194 -0.00697167,-0.00142925 -0.00217114,-0.000447321 -0.00437502,-0.000883732 -0.00662254,-0.00133105l-0.00266211 0.00133105 -0.00284758 0.00142925 -0.00284758 0.00142925 -0.00284758 0.00141834 -0.00284758 0.00142925 -0.00283667 0.00142925 -0.00284758 0.00142925 -0.00284758 0.00142925 -0.00284758 0.00141834 -0.00284758 0.00142925 -0.00284758 0.00142925 -0.00284758 0.00142925 -0.00284758 0.00142925 -0.00284758 0.00142925 -0.00284758 0.00141834 -0.00284758 0.00142925 -0.00283667 0.00142925 -0.00284758 0.00142925 -0.00284758 0.00142925 -0.00284758 0.00142925 -0.00284758 0.00141834 -0.00284758 0.00142925 -0.00284758 0.00142925 -0.00284758 0.00142925 -0.00202931 0.00101466 0.000338218 -0.00101466 0.000480052 -0.00142925 0.000469142 -0.00142925 0.000480052 -0.00142925 0.000469142 -0.00141834 0.000480052 -0.00142925 0.000469142 -0.00142925 0.000480052 -0.00142925 0.000469142 -0.00142925 0.000480052 -0.00142925 0.000469142 -0.00141834 0.000480052 -0.00142925 0.000469142 -0.00142925 0.000480052 -0.00142925 0.000469142 -0.00142925 0.000480052 -0.00142925 0.000469142 -0.00141834 0.000480052 -0.00142925 0.000469142 -0.00142925 0.000480052 -0.00142925 0.000469142 -0.00142925 0.000480052 -0.00141834 0.000469142 -0.00142925 0.000480052 -0.00142925 0.000469142 -0.00142925 0.000480052 -0.00142925 0.000469142 -0.00142925 0.000480052 -0.00141834 0.000469142 -0.00142925 0.000480052 -0.00142925 0.000469142 -0.00142925 0.000480052 -0.00142925 0.000469142 -0.00141834 0.000480052 -0.00142925 0.000469142 -0.00142925 0.000480052 -0.00142925 0.000469142 -0.00142925 0.000480052 -0.00142925 0.000469142 -0.00141834 0.000480052 -0.00142925 0.000469142 -0.00142925 0.000480052 -0.00142925 0.000272757 -0.000829181c-0.000283667,-0.000196385 -0.000556424,-0.00039277 -0.000840091,-0.000600065 -0.000676437,-0.000469142 -0.00134196,-0.000949194 -0.00200749,-0.00141834 -0.000665527,-0.000480052 -0.00132014,-0.000949194 -0.00197476,-0.00142925 -0.000643706,-0.000480052 -0.00129832,-0.000949194 -0.00193112,-0.00142925 -0.000643706,-0.000480052 -0.00126559,-0.000949194 -0.00189839,-0.00142925 -0.000621886,-0.000469142 -0.00124377,-0.000949194 -0.00186566,-0.00142925 -0.000610975,-0.000469142 -0.00122195,-0.000949194 -0.00182202,-0.00141834 -0.000600065,-0.000480052 -0.00120013,-0.000960104 -0.0018002,-0.00142925 -0.000589155,-0.000480052 -0.00117831,-0.000949194 -0.00175655,-0.00142925 -0.000589155,-0.000480052 -0.00115649,-0.000949194 -0.00173473,-0.00142925 -0.000567334,-0.000469142 -0.00113467,-0.000949194 -0.00169109,-0.00142925 -0.000556424,-0.000469142 -0.00111285,-0.000949194 -0.00166927,-0.00142925 -0.000545514,-0.000469142 -0.00109103,-0.000949194 -0.00162563,-0.00141834 -0.000545514,-0.000480052 -0.00108012,-0.000949194 -0.00161472,-0.00142925 -0.000523693,-0.000480052 -0.00104739,-0.000949194 -0.00157108,-0.00142925 -0.000512783,-0.000480052 -0.00102557,-0.000949194 -0.00153835,-0.00142925 -0.000501873,-0.000469142 -0.00101466,-0.000949194 -0.00151653,-0.00142925 -0.000490962,-0.000469142 -0.000992835,-0.000949194 -0.0014838,-0.00141834 -0.000490962,-0.000480052 -0.000971014,-0.000949194 -0.00146198,-0.00142925 -0.000480052,-0.000480052 -0.000949194,-0.000949194 -0.00141834,-0.00142925 -0.000469142,-0.000480052 -0.000938284,-0.000949194 -0.00140743,-0.00142925 -0.000458232,-0.000480052 -0.000916463,-0.000949194 -0.00137469,-0.00142925 -0.000447321,-0.000469142 -0.000905553,-0.000949194 -0.00135287,-0.00142925 -0.000436411,-0.000469142 -0.000872822,-0.000949194 -0.00130923,-0.00141834 -0.000436411,-0.000480052 -0.000872822,-0.000960104 -0.00129832,-0.00142925 -0.000425501,-0.000480052 -0.000851001,-0.000949194 -0.00126559,-0.00142925 -0.000425501,-0.000469142 -0.000840091,-0.000949194 -0.00125468,-0.00142925 -0.00040368,-0.000469142 -0.00080736,-0.000949194 -0.00121104,-0.00142925 -0.00040368,-0.000469142 -0.00079645,-0.000949194 -0.00118922,-0.00141834 -0.00039277,-0.000480052 -0.00078554,-0.000960104 -0.00117831,-0.00142925 -0.00038186,-0.000480052 -0.000763719,-0.000949194 -0.00114558,-0.00142925 -0.000370949,-0.000480052 -0.000741899,-0.000949194 -0.00111285,-0.00142925 -0.000370949,-0.000469142 -0.000741899,-0.000949194 -0.00110194,-0.00142925 -0.000360039,-0.000469142 -0.000720078,-0.000949194 -0.00108012,-0.00142925 -0.000349129,-0.000469142 -0.000698258,-0.000949194 -0.00104739,-0.00141834 -0.000349129,-0.000480052 -0.000687347,-0.000949194 -0.00102557,-0.00142925 -0.000338218,-0.000480052 -0.000676437,-0.000949194 -0.00101466,-0.00142925 -0.000327308,-0.000469142 -0.000654616,-0.000949194 -0.000981925,-0.00142925 -0.000327308,-0.000469142 -0.000643706,-0.000949194 -0.000960104,-0.00142925 -0.000316398,-0.000469142 -0.000632796,-0.000949194 -0.000949194,-0.00141834 -0.000305488,-0.000480052 -0.000610975,-0.000960104 -0.000916463,-0.00142925 -0.000294577,-0.000480052 -0.000600065,-0.000960104 -0.000894642,-0.00142925 -0.000294577,-0.000480052 -0.000589155,-0.000949194 -0.000883732,-0.00142925 -0.000283667,-0.000480052 -0.000567334,-0.000949194 -0.000851001,-0.00142925 -0.000283667,-0.000469142 -0.000556424,-0.000949194 -0.000840091,-0.00142925 -0.000272757,-0.000469142 -0.000545514,-0.000949194 -0.000818271,-0.00141834 -0.000261847,-0.000480052 -0.000523693,-0.000949194 -0.00079645,-0.00142925 -0.000250936,-0.000480052 -0.000512783,-0.000949194 -0.000763719,-0.00142925 -0.000261847,-0.000480052 -0.000512783,-0.000949194 -0.000763719,-0.00142925 -0.000250936,-0.000469142 -0.000490962,-0.000949194 -0.000730988,-0.00142925 -0.000250936,-0.000469142 -0.000490962,-0.000949194 -0.000720078,-0.00142925 -0.000240026,-0.000469142 -0.000469142,-0.000949194 -0.000698258,-0.00141834 -0.000240026,-0.000480052 -0.000458232,-0.000949194 -0.000687347,-0.00142925 -0.000218205,-0.000480052 -0.000436411,-0.000949194 -0.000654616,-0.00142925 -0.000218205,-0.000480052 -0.000436411,-0.000949194 -0.000643706,-0.00142925 -0.000218205,-0.000469142 -0.00041459,-0.000949194 -0.000621886,-0.00142925 -0.000207295,-0.000469142 -0.00040368,-0.000949194 -0.000610975,-0.00141834 -0.000196385,-0.000480052 -0.00039277,-0.000949194 -0.000589155,-0.00142925 -0.000185475,-0.000480052 -0.00038186,-0.000949194 -0.000567334,-0.00142925 -0.000185475,-0.000480052 -0.000370949,-0.000949194 -0.000556424,-0.00142925 -0.000174564,-0.000469142 -0.000349129,-0.000949194 -0.000523693,-0.00142925 -0.000174564,-0.000469142 -0.000349129,-0.000949194 -0.000523693,-0.00142925 -0.000163654,-0.000469142 -0.000338218,-0.000949194 -0.000501873,-0.00141834 -0.000163654,-0.000480052 -0.000316398,-0.000949194 -0.000480052,-0.00142925 -0.000152744,-0.000480052 -0.000305488,-0.000949194 -0.000458232,-0.00142925 -0.000152744,-0.000480052 -0.000305488,-0.000949194 -0.000458232,-0.00142925 -0.000141834,-0.000469142 -0.000283667,-0.000949194 -0.000425501,-0.00142925 -0.000141834,-0.000469142 -0.000283667,-0.000949194 -0.000425501,-0.00141834 -0.000130923,-0.000480052 -0.000261847,-0.000960104 -0.00039277,-0.00142925 -0.000130923,-0.000480052 -0.000261847,-0.000949194 -0.00038186,-0.00142925 -0.000130923,-0.000480052 -0.000250936,-0.000949194 -0.000370949,-0.00142925 -0.000120013,-0.000480052 -0.000229116,-0.000949194 -0.000349129,-0.00142925 -0.000109103,-0.000469142 -0.000229116,-0.000949194 -0.000338218,-0.00141834 -0.000109103,-0.000480052 -0.000207295,-0.000960104 -0.000316398,-0.00142925 -9.81925e-005,-0.000480052 -0.000207295,-0.000949194 -0.000305488,-0.00142925 -9.81925e-005,-0.000480052 -0.000196385,-0.000949194 -0.000283667,-0.00142925 -9.81925e-005,-0.000469142 -0.000185475,-0.000949194 -0.000272757,-0.00142925 -8.72822e-005,-0.000469142 -0.000174564,-0.000949194 -0.000261847,-0.00142925 -8.72822e-005,-0.000469142 -0.000163654,-0.000949194 -0.000240026,-0.00141834 -7.63719e-005,-0.000480052 -0.000152744,-0.000949194 -0.000229116,-0.00142925 -6.54616e-005,-0.000480052 -0.000141834,-0.000949194 -0.000207295,-0.00142925 -6.54616e-005,-0.000480052 -0.000130923,-0.000949194 -0.000196385,-0.00142925 -6.54616e-005,-0.000469142 -0.000130923,-0.000949194 -0.000185475,-0.00142925 -6.54616e-005,-0.000469142 -0.000109103,-0.000949194 -0.000163654,-0.00142925 -5.45514e-005,-0.000469142 -0.000109103,-0.000949194 -0.000163654,-0.00141834 -4.36411e-005,-0.000480052 -8.72822e-005,-0.000960104 -0.000130923,-0.00142925 -4.36411e-005,-0.000480052 -8.72822e-005,-0.000949194 -0.000130923,-0.00142925 -3.27308e-005,-0.000480052 -7.63719e-005,-0.000949194 -0.000109103,-0.00142925 -3.27308e-005,-0.000469142 -6.54616e-005,-0.000949194 -8.72822e-005,-0.00142925 -3.27308e-005,-0.000469142 -6.54616e-005,-0.000949194 -8.72822e-005,-0.00141834 -3.27308e-005,-0.000480052 -4.36411e-005,-0.000960104 -6.54616e-005,-0.00142925 -2.18205e-005,-0.000480052 -4.36411e-005,-0.000949194 -6.54616e-005,-0.00142925 -1.09103e-005,-0.000480052 -2.18205e-005,-0.000949194 -3.27308e-005,-0.00142925 -1.09103e-005,-0.000480052 -2.18205e-005,-0.000949194 -3.27308e-005,-0.00142925 0,-0.000469142 0,-0.000949194 -1.09103e-005,-0.00141834 0,-0.000250936 0,-0.000490962 0,-0.000741899 0,-0.000229116 0,-0.000458232 1.09103e-005,-0.000687347 0,-0.000480052 1.09103e-005,-0.000949194 1.09103e-005,-0.00142925 1.09103e-005,-0.000480052 1.09103e-005,-0.000949194 2.18205e-005,-0.00142925 1.09103e-005,-0.000480052 2.18205e-005,-0.000949194 4.36411e-005,-0.00142925 1.09103e-005,-0.000469142 4.36411e-005,-0.000949194 6.54616e-005,-0.00142925 1.09103e-005,-0.000469142 3.27308e-005,-0.000949194 5.45514e-005,-0.00141834 3.27308e-005,-0.000480052 5.45514e-005,-0.000960104 7.63719e-005,-0.00142925 3.27308e-005,-0.000480052 7.63719e-005,-0.000949194 0.000109103,-0.00142925 3.27308e-005,-0.000480052 6.54616e-005,-0.000949194 0.000109103,-0.00142925 3.27308e-005,-0.000480052 6.54616e-005,-0.000949194 0.000109103,-0.00142925 4.36411e-005,-0.000480052 9.81925e-005,-0.000949194 0.000152744,-0.00142925 4.36411e-005,-0.000469142 8.72822e-005,-0.000949194 0.000141834,-0.00141834 5.45514e-005,-0.000480052 9.81925e-005,-0.000960104 0.000152744,-0.00142925 6.54616e-005,-0.000480052 0.000130923,-0.000949194 0.000196385,-0.00142925 5.45514e-005,-0.000480052 0.000120013,-0.000949194 0.000185475,-0.00142925 6.54616e-005,-0.000469142 0.000130923,-0.000949194 0.000196385,-0.00142925 7.63719e-005,-0.000480052 0.000163654,-0.000949194 0.000229116,-0.00141834 7.63719e-005,-0.000480052 0.000163654,-0.000960104 0.000240026,-0.00142925 7.63719e-005,-0.000480052 0.000152744,-0.000960104 0.000240026,-0.00142925 7.63719e-005,-0.000480052 0.000185475,-0.000949194 0.000272757,-0.00142925 8.72822e-005,-0.000480052 0.000185475,-0.000949194 0.000272757,-0.00142925 9.81925e-005,-0.000469142 0.000185475,-0.000949194 0.000283667,-0.00141834 9.81925e-005,-0.000480052 0.000218205,-0.000960104 0.000327308,-0.00142925 9.81925e-005,-0.000480052 0.000207295,-0.000960104 0.000316398,-0.00142925 0.000109103,-0.000480052 0.000218205,-0.000949194 0.000327308,-0.00142925 0.000120013,-0.000480052 0.000240026,-0.000949194 0.000360039,-0.00142925 0.000120013,-0.000480052 0.000240026,-0.000949194 0.000370949,-0.00142925 0.000120013,-0.000469142 0.000240026,-0.000949194 0.000370949,-0.00141834 0.000130923,-0.000480052 0.000272757,-0.000960104 0.00041459,-0.00142925 0.000130923,-0.000480052 0.000261847,-0.000960104 0.00040368,-0.00142925 0.000141834,-0.000480052 0.000283667,-0.000949194 0.000425501,-0.00142925 0.000141834,-0.000480052 0.000305488,-0.000949194 0.000447321,-0.00142925 0.000152744,-0.000469142 0.000305488,-0.000949194 0.000458232,-0.00142925 0.000152744,-0.000469142 0.000316398,-0.000949194 0.000469142,-0.00141834 0.000163654,-0.000480052 0.000338218,-0.000960104 0.000501873,-0.00142925 0.000163654,-0.000480052 0.000327308,-0.000949194 0.000501873,-0.00142925 0.000174564,-0.000480052 0.000349129,-0.000949194 0.000523693,-0.00142925 0.000174564,-0.000480052 0.000360039,-0.000949194 0.000545514,-0.00142925 0.000185475,-0.000469142 0.000360039,-0.000949194 0.000545514,-0.00141834 0.000185475,-0.000480052 0.00038186,-0.000960104 0.000578245,-0.00142925 0.000196385,-0.000480052 0.00039277,-0.000960104 0.000589155,-0.00142925 0.000207295,-0.000480052 0.00039277,-0.000949194 0.000600065,-0.00142925 0.000207295,-0.000480052 0.000425501,-0.000949194 0.000632796,-0.00142925 0.000218205,-0.000469142 0.000425501,-0.000949194 0.000643706,-0.00142925 0.000218205,-0.000469142 0.000425501,-0.000949194 0.000643706,-0.00141834 0.000229116,-0.000480052 0.000458232,-0.000949194 0.000687347,-0.00142925 0.000229116,-0.000480052 0.000458232,-0.000960104 0.000687347,-0.00142925 0.000240026,-0.000480052 0.000480052,-0.000949194 0.000720078,-0.00142925 0.000240026,-0.000480052 0.000490962,-0.000949194 0.000730988,-0.00142925 0.000250936,-0.000469142 0.000490962,-0.000949194 0.000741899,-0.00141834 0.000250936,-0.000480052 0.000512783,-0.000960104 0.000774629,-0.00142925 0.000261847,-0.000480052 0.000523693,-0.000960104 0.00078554,-0.00142925 0.000261847,-0.000480052 0.000534603,-0.000960104 0.00079645,-0.00142925 0.000272757,-0.000480052 0.000556424,-0.000949194 0.000840091,-0.00142925 0.000272757,-0.000469142 0.000556424,-0.000949194 0.000840091,-0.00142925 0.000283667,-0.000469142 0.000578245,-0.000949194 0.000861912,-0.00141834 0.000294577,-0.000480052 0.000589155,-0.000960104 0.000894642,-0.00142925 0.000294577,-0.000480052 0.000589155,-0.000960104 0.000894642,-0.00142925 0.000305488,-0.000480052 0.000621886,-0.000949194 0.000938284,-0.00142925 0.000305488,-0.000480052 0.000621886,-0.000949194 0.000938284,-0.00142925 0.000327308,-0.000469142 0.000643706,-0.000949194 0.000971014,-0.00141834 0.000327308,-0.000480052 0.000665527,-0.000960104 0.00100375,-0.00142925 0.000327308,-0.000480052 0.000654616,-0.000960104 0.000992835,-0.00142925 0.000349129,-0.000480052 0.000709168,-0.000949194 0.0010583,-0.00142925 0.000349129,-0.000480052 0.000698258,-0.000949194 0.00104739,-0.00142925 0.000360039,-0.000469142 0.000720078,-0.000949194 0.00109103,-0.00141834 0.000370949,-0.000480052 0.000730988,-0.000960104 0.00111285,-0.00142925 0.000370949,-0.000480052 0.000741899,-0.000960104 0.00112376,-0.00142925 0.00038186,-0.000480052 0.000774629,-0.000949194 0.0011674,-0.00142925 0.00038186,-0.000480052 0.000774629,-0.000960104 0.0011674,-0.00142925 0.00040368,-0.000480052 0.000818271,-0.000949194 0.00122195,-0.00142925 0.00040368,-0.000469142 0.000818271,-0.000949194 0.00123286,-0.00141834 0.00041459,-0.000480052 0.000840091,-0.000960104 0.00126559,-0.00142925 0.000425501,-0.000480052 0.000861912,-0.000960104 0.00128741,-0.00142925 0.000436411,-0.000480052 0.000872822,-0.000960104 0.00132014,-0.00142925 0.000447321,-0.000480052 0.000905553,-0.000949194 0.00135287,-0.00142925 0.000458232,-0.000469142 0.000905553,-0.000949194 0.00136378,-0.00141834 0.000469142,-0.000490962 0.000949194,-0.000960104 0.00142925,-0.00142925 0.000480052,-0.000480052 0.000949194,-0.000960104 0.00142925,-0.00142925 0.000490962,-0.000480052 0.000992835,-0.000949194 0.0014838,-0.00142925 0.000501873,-0.000480052 0.000992835,-0.000960104 0.00150562,-0.00142925 0.000512783,-0.000480052 0.00102557,-0.000949194 0.00154926,-0.00142925 0.000523693,-0.000469142 0.00104739,-0.000949194 0.00157108,-0.00141834 0.000534603,-0.000480052 0.00108012,-0.000960104 0.00162563,-0.00142925 0.000545514,-0.000480052 0.00109103,-0.000960104 0.00164745,-0.00142925 0.000567334,-0.000480052 0.00113467,-0.000949194 0.001702,-0.00142925 0.000567334,-0.000480052 0.00114558,-0.000949194 0.00173473,-0.00142925 0.000589155,-0.000480052 0.00117831,-0.000949194 0.00177837,-0.00142925 0.000600065,-0.000469142 0.00120013,-0.000949194 0.00181111,-0.00141834 0.000621886,-0.000480052 0.00125468,-0.000960104 0.00187657,-0.00142925 0.000632796,-0.000480052 0.00126559,-0.000960104 0.0019093,-0.00142925 0.000654616,-0.000480052 0.00132014,-0.000949194 0.00197476,-0.00142925 0.000665527,-0.000469142 0.00133105,-0.000960104 0.00200749,-0.00142925 0.000687347,-0.000480052 0.00139652,-0.000949194 0.00209477,-0.00141834 0.000698258,-0.000480052 0.00139652,-0.000960104 0.00211659,-0.00142925 0.000720078,-0.000480052 0.00146198,-0.000960104 0.00220388,-0.00142925 0.000741899,-0.000480052 0.00149471,-0.000960104 0.00224752,-0.00142925 0.000774629,-0.000480052 0.00154926,-0.000960104 0.00232389,-0.00142925 0.00079645,-0.000480052 0.00160381,-0.000949194 0.00241117,-0.00142925 0.000818271,-0.000469142 0.00162563,-0.000949194 0.00245481,-0.00141834 0.000851001,-0.000490962 0.00171291,-0.000960104 0.00257482,-0.00142925 0.000872822,-0.000480052 0.00175655,-0.000960104 0.00264029,-0.00142925 0.000905553,-0.000480052 0.00181111,-0.000960104 0.00272757,-0.00142925 0.000938284,-0.000480052 0.00189839,-0.000949194 0.00285849,-0.00142925 0.000981925,-0.000480052 0.00196385,-0.000949194 0.00295668,-0.00141834 0.00101466,-0.000490962 0.00204022,-0.000971014 0.00306579,-0.00142925 0.0010583,-0.000490962 0.00213841,-0.000960104 0.00320762,-0.00142925 0.00112376,-0.000490962 0.00224752,-0.000960104 0.00338218,-0.00142925 0.0011674,-0.000490962 0.00234571,-0.000960104 0.00353493,-0.00142925 0.00122195,-0.000480052 0.00246572,-0.000960104 0.00370949,-0.00142925 0.00129832,-0.000480052 0.00260756,-0.000960104 0.0039277,-0.00141834 0.0013856,-0.000490962 0.00277121,-0.000971014 0.00417864,-0.00142925 0.0014838,-0.000490962 0.0029785,-0.000971014 0.00448412,-0.00142925 0.00161472,-0.000490962 0.00322944,-0.000971014 0.00485507,-0.00142925 0.00176746,-0.000490962 0.00354584,-0.000971014 0.00533512,-0.00142925 0.00195294,-0.000501873 0.0039277,-0.000971014 0.00591337,-0.00141834 0.0022257,-0.000512783 0.00445139,-0.000992835 0.00669891,-0.00142925 0.00266211,-0.000523693 0.00535694,-0.000992835 0.00806269,-0.00142925 0.00343674,-0.000545514 0.00689529,-0.00102557 0.0103975,-0.00142925zm0.167713 0.229345c-0.00999381,0 -0.0200749,0.0100593 -0.0200749,0.0200749 0,0.0101466 0.0100811,0.020064 0.0200749,0.020064 0.0151871,0 0.0251264,-0.00991744 0.0251264,-0.020064 0,-0.0100156 -0.00995017,-0.0200749 -0.0251264,-0.0200749zm0.11039 0c-0.00992835,0 -0.0199331,0.0100593 -0.0199331,0.0200749 0,0.0101466 0.0100047,0.020064 0.0199331,0.020064 0.0150453,0 0.0251155,-0.00991744 0.0251155,-0.020064 0,-0.0100156 -0.0100702,-0.0200749 -0.0251155,-0.0200749zm-0.316103 -0.145565c-0.0150344,0 -0.0302215,0.00993926 -0.0302215,0.0250391 0,0.0150562 0.0151871,0.0251155 0.0302215,0.0251155 0.0150453,0 0.02505,-0.0100593 0.02505,-0.0251155 0,-0.0150998 -0.0100047,-0.0250391 -0.02505,-0.0250391zm0.140448 0.0501545c0.0151107,0 0.0251264,-0.0100593 0.0251264,-0.0251155 0,-0.0150998 -0.0100156,-0.0250391 -0.0251264,-0.0250391 -0.0150344,0 -0.0301342,0.00993926 -0.0301342,0.0250391 0,0.0150562 0.0150998,0.0251155 0.0301342,0.0251155zm-0.00572789 0.0624286c0.000436411,-0.00040368 0.000872822,-0.00080736 0.00130923,-0.00121104 0.000447321,-0.00040368 0.000883732,-0.00080736 0.00133105,-0.00121104 0.000458232,-0.00040368 0.000916463,-0.00080736 0.00137469,-0.00121104 0.000469142,-0.00040368 0.000927373,-0.000818271 0.00139652,-0.00121104 0.000480052,-0.00041459 0.000960104,-0.00080736 0.00144016,-0.00121104 0.000490962,-0.00041459 0.000971014,-0.000818271 0.00146198,-0.00122195 0.000501873,-0.00040368 0.00101466,-0.00080736 0.00151653,-0.00121104 0.000512783,-0.00040368 0.00101466,-0.00080736 0.00153835,-0.00121104 0.000523693,-0.00040368 0.0010583,-0.00080736 0.0015929,-0.00121104 0.000534603,-0.00040368 0.00106921,-0.00080736 0.00160381,-0.00121104 0.000556424,-0.00041459 0.00111285,-0.00080736 0.00168018,-0.00121104 0.000567334,-0.00040368 0.00113467,-0.000818271 0.001702,-0.00121104 0.000578245,-0.00041459 0.0011674,-0.000818271 0.00175655,-0.00121104 0.000600065,-0.00041459 0.00120013,-0.000818271 0.00181111,-0.00121104 0.000610975,-0.00041459 0.00122195,-0.000818271 0.00184384,-0.00122195 0.000632796,-0.00040368 0.00128741,-0.00080736 0.00193112,-0.00121104 0.000643706,-0.00040368 0.00128741,-0.00080736 0.00195294,-0.00121104 0.000676437,-0.00040368 0.00135287,-0.00080736 0.00204022,-0.00121104 0.000698258,-0.00040368 0.00139652,-0.00080736 0.00209477,-0.00121104 0.000709168,-0.00041459 0.00142925,-0.000818271 0.00214932,-0.00121104 0.000752809,-0.00041459 0.00150562,-0.000818271 0.00225843,-0.00121104 0.000763719,-0.00041459 0.00153835,-0.000818271 0.00231298,-0.00122195 0.00079645,-0.00040368 0.0015929,-0.00080736 0.00240026,-0.00121104 0.000829181,-0.00040368 0.00168018,-0.00080736 0.00252027,-0.00121104 0.000861912,-0.00040368 0.00173473,-0.00080736 0.00260756,-0.00121104 0.000894642,-0.00040368 0.00178928,-0.000818271 0.00270575,-0.00121104 0.000938284,-0.00041459 0.00189839,-0.000818271 0.00285849,-0.00121104 0.000992835,-0.00041459 0.00199658,-0.000818271 0.00300033,-0.00121104 0.00104739,-0.00041459 0.00209477,-0.000818271 0.00315307,-0.00121104 0.00110194,-0.00041459 0.00221479,-0.000818271 0.00333854,-0.00121104 0.00117831,-0.00041459 0.00235662,-0.000829181 0.00354584,-0.00122195 0.00126559,-0.00041459 0.00253118,-0.000818271 0.00380769,-0.00121104 0.00136378,-0.00041459 0.00273848,-0.000818271 0.00412408,-0.00121104 0.00149471,-0.000425501 0.00300033,-0.000818271 0.00451685,-0.00121104 0.00166927,-0.000425501 0.00333854,-0.000829181 0.00501873,-0.00121104 0.00188748,-0.000425501 0.00377495,-0.000840091 0.00567334,-0.00121104 0.00228025,-0.000447321 0.0045714,-0.000851001 0.00687347,-0.00121104 0.00292395,-0.000469142 0.00588064,-0.000872822 0.00885914,-0.00121104 0.00740808,-0.000851001 0.0149798,-0.00129832 0.0226825,-0.00132014l0.00106921 0c0.00728806,2.18205e-005 0.0144998,0.000469142 0.0216133,0.00132014 0.00285849,0.000338218 0.00569516,0.000741899 0.00852092,0.00121104 0.0022257,0.000360039 0.00444048,0.000763719 0.00664436,0.00121104 0.00185475,0.000370949 0.00368767,0.00078554 0.00550969,0.00121104 0.00164745,0.00038186 0.00327308,0.00078554 0.00489871,0.00121104 0.0014838,0.00038186 0.00295668,0.00078554 0.00441866,0.00121104 0.00135287,0.00039277 0.00269484,0.00079645 0.0040368,0.00121104 0.00125468,0.00039277 0.00249845,0.00079645 0.00374222,0.00121104 0.00117831,0.00039277 0.0023348,0.00080736 0.0035022,0.00122195 0.00110194,0.00039277 0.00219297,0.00079645 0.0032949,0.00121104 0.00103648,0.00039277 0.00208386,0.00079645 0.00312034,0.00121104 0.000992835,0.00039277 0.00198567,0.00079645 0.00296759,0.00121104 0.000960104,0.00039277 0.00189839,0.00079645 0.00283667,0.00121104 0.000905553,0.00039277 0.0018002,0.00080736 0.00269484,0.00121104 0.000872822,0.00040368 0.00173473,0.00080736 0.00259665,0.00121104 0.000840091,0.00040368 0.00168018,0.00080736 0.00250936,0.00121104 0.00080736,0.00040368 0.00160381,0.00080736 0.00240026,0.00121104 0.000774629,0.00040368 0.00153835,0.00080736 0.00231298,0.00122195 0.000752809,0.00039277 0.00150562,0.00079645 0.00225843,0.00121104 0.000720078,0.00039277 0.00144016,0.00080736 0.00216023,0.00121104 0.000709168,0.00040368 0.00140743,0.00080736 0.00210568,0.00121104 0.000687347,0.00040368 0.00137469,0.00080736 0.00205113,0.00121104 0.000665527,0.00040368 0.00130923,0.00080736 0.00196385,0.00121104 0.000654616,0.00040368 0.00129832,0.00080736 0.00194203,0.00121104 0.000621886,0.00040368 0.00124377,0.00080736 0.00186566,0.00122195 0.000610975,0.00039277 0.00122195,0.00079645 0.00182202,0.00121104 0.000600065,0.00039277 0.00118922,0.00079645 0.00177837,0.00121104 0.000578245,0.00039277 0.00115649,0.00080736 0.00172382,0.00121104 0.000567334,0.00040368 0.00113467,0.00080736 0.001702,0.00121104 0.000545514,0.00040368 0.00109103,0.00080736 0.00163654,0.00121104 0.000534603,0.00040368 0.00108012,0.00080736 0.00161472,0.00121104 0.000523693,0.00040368 0.00103648,0.00080736 0.00156017,0.00121104 0.000512783,0.00040368 0.00103648,0.00080736 0.00153835,0.00121104 0.000501873,0.00040368 0.000992835,0.000818271 0.0014838,0.00122195 0.000490962,0.00040368 0.000992835,0.00079645 0.00147289,0.00121104 0.000480052,0.00039277 0.000949194,0.00080736 0.00141834,0.00121104 0.000469142,0.00040368 0.000949194,0.00080736 0.00140743,0.00121104 0.000458232,0.00040368 0.000905553,0.00080736 0.00136378,0.00121104 0.000447321,0.00040368 0.000894642,0.00080736 0.00134196,0.00121104 0.000436411,0.00040368 0.000872822,0.00080736 0.00129832,0.00121104 0.000436411,0.00040368 0.000861912,0.00080736 0.00128741,0.00122195 0.00041459,0.00039277 0.000840091,0.00079645 0.00125468,0.00121104 0.00041459,0.00039277 0.000818271,0.00080736 0.00122195,0.00121104 0.00040368,0.00040368 0.00080736,0.00080736 0.00121104,0.00121104 0.00039277,0.00040368 0.000774629,0.00080736 0.0011674,0.00121104 0.00038186,0.00040368 0.000774629,0.00080736 0.00115649,0.00121104 0.00038186,0.00040368 0.000741899,0.00080736 0.00111285,0.00121104 0.000370949,0.00040368 0.000752809,0.00080736 0.00111285,0.00121104 0.000360039,0.00040368 0.000720078,0.00080736 0.00108012,0.00122195 0.000349129,0.00039277 0.000709168,0.00079645 0.0010583,0.00121104 0.000349129,0.00039277 0.000687347,0.00079645 0.00103648,0.00121104 0.000338218,0.00040368 0.000676437,0.00080736 0.00100375,0.00121104 0.000338218,0.00040368 0.000676437,0.00080736 0.00100375,0.00121104 0.000327308,0.00040368 0.000643706,0.00080736 0.000960104,0.00121104 0.000327308,0.00040368 0.000643706,0.00080736 0.000960104,0.00121104 0.000316398,0.00040368 0.000621886,0.00080736 0.000927373,0.00121104 0.000316398,0.00040368 0.000610975,0.00080736 0.000916463,0.00122195 0.000305488,0.00039277 0.000600065,0.00079645 0.000905553,0.00121104 0.000294577,0.00039277 0.000567334,0.00080736 0.000861912,0.00121104 0.000283667,0.00040368 0.000578245,0.00080736 0.000861912,0.00121104 0.000283667,0.00040368 0.000556424,0.00080736 0.000829181,0.00121104 0.000272757,0.00040368 0.000545514,0.00080736 0.000818271,0.00121104 0.000272757,0.00040368 0.000545514,0.00080736 0.00080736,0.00121104 0.000272757,0.00040368 0.000523693,0.00080736 0.000774629,0.00121104 0.000261847,0.00040368 0.000523693,0.00080736 0.000774629,0.00122195 0.000250936,0.00039277 0.000501873,0.00080736 0.000752809,0.00121104 0.000240026,0.00040368 0.000480052,0.00080736 0.000720078,0.00121104 0.000250936,0.00040368 0.000501873,0.00080736 0.000730988,0.00121104 0.000240026,0.00040368 0.000458232,0.00080736 0.000687347,0.00121104 0.000229116,0.00040368 0.000458232,0.00080736 0.000687347,0.00121104 0.000229116,0.00040368 0.000447321,0.00080736 0.000676437,0.00121104 0.000218205,0.00040368 0.000425501,0.00080736 0.000643706,0.00121104 0.000207295,0.00040368 0.000425501,0.00080736 0.000632796,0.00122195 0.000218205,0.00039277 0.00041459,0.00080736 0.000621886,0.00121104 0.000207295,0.00039277 0.00040368,0.00080736 0.000600065,0.00121104 0.000196385,0.00040368 0.00040368,0.00080736 0.000600065,0.00121104 0.000196385,0.00040368 0.000370949,0.00080736 0.000567334,0.00121104 0.000185475,0.00040368 0.000370949,0.00080736 0.000556424,0.00121104 0.000185475,0.00040368 0.000370949,0.00080736 0.000556424,0.00121104 0.000174564,0.00040368 0.000338218,0.00080736 0.000512783,0.00121104 0.000174564,0.00040368 0.000349129,0.00080736 0.000523693,0.00121104 0.000163654,0.00040368 0.000338218,0.00080736 0.000501873,0.00122195 0.000163654,0.00040368 0.000316398,0.00080736 0.000480052,0.00121104 0.000163654,0.00040368 0.000327308,0.00080736 0.000480052,0.00121104 0.000152744,0.00040368 0.000305488,0.00080736 0.000447321,0.00121104 0.000152744,0.00040368 0.000294577,0.00080736 0.000447321,0.00121104 0.000141834,0.00040368 0.000294577,0.00080736 0.000436411,0.00121104 0.000141834,0.00040368 0.000272757,0.00080736 0.00040368,0.00121104 0.000141834,0.00040368 0.000272757,0.00080736 0.00040368,0.00122195 0.000130923,0.00040368 0.000272757,0.00079645 0.00040368,0.00121104 0.000130923,0.00039277 0.000240026,0.00080736 0.000360039,0.00121104 0.000130923,0.00040368 0.000250936,0.00080736 0.000360039,0.00121104 0.000120013,0.00040368 0.000250936,0.00080736 0.000360039,0.00121104 0.000120013,0.00040368 0.000218205,0.00080736 0.000327308,0.00121104 0.000109103,0.00040368 0.000218205,0.00080736 0.000327308,0.00121104 9.81925e-005,0.00040368 0.000218205,0.00080736 0.000316398,0.00121104 9.81925e-005,0.00040368 0.000185475,0.000818271 0.000283667,0.00121104 9.81925e-005,0.00040368 0.000185475,0.00080736 0.000283667,0.00122195 8.72822e-005,0.00040368 0.000185475,0.00080736 0.000272757,0.00121104 8.72822e-005,0.00040368 0.000163654,0.00080736 0.000250936,0.00121104 8.72822e-005,0.00040368 0.000163654,0.00080736 0.000240026,0.00121104 8.72822e-005,0.00040368 0.000163654,0.00080736 0.000240026,0.00121104 7.63719e-005,0.00040368 0.000141834,0.00080736 0.000207295,0.00121104 7.63719e-005,0.00040368 0.000141834,0.00080736 0.000207295,0.00121104 6.54616e-005,0.00040368 0.000141834,0.00080736 0.000207295,0.00121104 5.45514e-005,0.00040368 0.000109103,0.000818271 0.000163654,0.00122195 6.54616e-005,0.00040368 0.000120013,0.00080736 0.000174564,0.00121104 5.45514e-005,0.00040368 0.000109103,0.00080736 0.000163654,0.00121104 4.36411e-005,0.00040368 8.72822e-005,0.00080736 0.000130923,0.00121104 4.36411e-005,0.00040368 8.72822e-005,0.00080736 0.000130923,0.00121104 4.36411e-005,0.00040368 8.72822e-005,0.00080736 0.000130923,0.00121104 3.27308e-005,0.00040368 5.45514e-005,0.00080736 8.72822e-005,0.00121104 3.27308e-005,0.00040368 6.54616e-005,0.00080736 9.81925e-005,0.00121104 3.27308e-005,0.00040368 6.54616e-005,0.00080736 8.72822e-005,0.00122195 2.18205e-005,0.00039277 3.27308e-005,0.00080736 5.45514e-005,0.00121104 2.18205e-005,0.00040368 4.36411e-005,0.00080736 5.45514e-005,0.00121104 2.18205e-005,0.00040368 4.36411e-005,0.00080736 5.45514e-005,0.00121104 2.18205e-005,0.00040368 1.09103e-005,0.00080736 2.18205e-005,0.00121104 1.09103e-005,0.00040368 2.18205e-005,0.00080736 2.18205e-005,0.00121104l0 0.000360039 0 0.000851001 0 0.00121104 0 0.000207295c0,0.000338218 0,0.000676437 -1.09103e-005,0.00101466 -1.09103e-005,0.00040368 -2.18205e-005,0.00080736 -4.36411e-005,0.00121104 -1.09103e-005,0.00040368 -2.18205e-005,0.00080736 -4.36411e-005,0.00121104 -2.18205e-005,0.00040368 -4.36411e-005,0.00080736 -6.54616e-005,0.00121104 -2.18205e-005,0.00040368 -5.45514e-005,0.00080736 -7.63719e-005,0.00121104 -3.27308e-005,0.00040368 -5.45514e-005,0.00080736 -8.72822e-005,0.00121104 -3.27308e-005,0.00040368 -7.63719e-005,0.00080736 -0.000120013,0.00121104 -3.27308e-005,0.00040368 -7.63719e-005,0.00080736 -0.000120013,0.00121104 -3.27308e-005,0.00040368 -8.72822e-005,0.000818271 -0.000130923,0.00122195 -4.36411e-005,0.00040368 -9.81925e-005,0.00080736 -0.000152744,0.00121104 -5.45514e-005,0.00040368 -0.000109103,0.00080736 -0.000163654,0.00121104 -5.45514e-005,0.00040368 -0.000120013,0.00080736 -0.000185475,0.00121104 -5.45514e-005,0.00040368 -0.000120013,0.00080736 -0.000185475,0.00121104 -6.54616e-005,0.00040368 -0.000141834,0.00080736 -0.000207295,0.00121104 -7.63719e-005,0.00040368 -0.000152744,0.00080736 -0.000229116,0.00121104 -7.63719e-005,0.00040368 -0.000152744,0.00080736 -0.000229116,0.00121104 -8.72822e-005,0.00041459 -0.000174564,0.000818271 -0.000261847,0.00122195 -8.72822e-005,0.00040368 -0.000174564,0.00080736 -0.000261847,0.00121104 -8.72822e-005,0.00040368 -0.000185475,0.00080736 -0.000283667,0.00121104 -9.81925e-005,0.00040368 -0.000196385,0.00080736 -0.000294577,0.00121104 -9.81925e-005,0.00040368 -0.000207295,0.00080736 -0.000305488,0.00121104 -0.000109103,0.00040368 -0.000218205,0.00080736 -0.000327308,0.00121104 -0.000109103,0.00040368 -0.000229116,0.00080736 -0.000338218,0.00121104 -0.000120013,0.00040368 -0.000240026,0.00080736 -0.000360039,0.00122195 -0.000120013,0.00039277 -0.000240026,0.00080736 -0.000370949,0.00121104 -0.000120013,0.00040368 -0.000250936,0.00080736 -0.00038186,0.00121104 -0.000130923,0.00040368 -0.000261847,0.00080736 -0.00040368,0.00121104 -0.000130923,0.00040368 -0.000261847,0.00080736 -0.00040368,0.00121104 -0.000141834,0.00040368 -0.000283667,0.00080736 -0.000436411,0.00121104 -0.000141834,0.00040368 -0.000294577,0.00080736 -0.000447321,0.00121104 -0.000141834,0.00040368 -0.000294577,0.00080736 -0.000447321,0.00121104 -0.000152744,0.00040368 -0.000316398,0.00080736 -0.000480052,0.00121104 -0.000163654,0.00040368 -0.000316398,0.000818271 -0.000490962,0.00122195 -0.000163654,0.00040368 -0.000327308,0.00080736 -0.000501873,0.00121104 -0.000163654,0.00040368 -0.000338218,0.00080736 -0.000512783,0.00121104 -0.000174564,0.00040368 -0.000349129,0.00080736 -0.000534603,0.00121104 -0.000185475,0.00040368 -0.000370949,0.00080736 -0.000556424,0.00121104 -0.000174564,0.00040368 -0.000370949,0.00080736 -0.000556424,0.00121104 -0.000196385,0.00040368 -0.00038186,0.00080736 -0.000578245,0.00121104 -0.000196385,0.00040368 -0.00040368,0.00080736 -0.000600065,0.00121104 -0.000196385,0.00041459 -0.00040368,0.000818271 -0.000610975,0.00122195 -0.000207295,0.00039277 -0.00041459,0.00080736 -0.000621886,0.00121104 -0.000207295,0.00040368 -0.000425501,0.00080736 -0.000643706,0.00121104 -0.000218205,0.00040368 -0.000436411,0.00080736 -0.000654616,0.00121104 -0.000218205,0.00040368 -0.000447321,0.00080736 -0.000676437,0.00121104 -0.000218205,0.00040368 -0.000458232,0.00080736 -0.000687347,0.00121104 -0.000229116,0.00040368 -0.000469142,0.00080736 -0.000698258,0.00121104 -0.000240026,0.00041459 -0.000480052,0.00080736 -0.000720078,0.00121104 -0.000250936,0.00040368 -0.000490962,0.000818271 -0.000741899,0.00122195 -0.000250936,0.00040368 -0.000490962,0.00080736 -0.000741899,0.00121104 -0.000261847,0.00040368 -0.000512783,0.00080736 -0.000774629,0.00121104 -0.000261847,0.00040368 -0.000523693,0.00080736 -0.00078554,0.00121104 -0.000261847,0.00040368 -0.000523693,0.00080736 -0.00079645,0.00121104 -0.000272757,0.00040368 -0.000545514,0.00080736 -0.000818271,0.00121104 -0.000272757,0.00040368 -0.000556424,0.00080736 -0.000840091,0.00121104 -0.000272757,0.00040368 -0.000556424,0.00080736 -0.000840091,0.00121104 -0.000283667,0.00041459 -0.000578245,0.000818271 -0.000872822,0.00122195 -0.000283667,0.00040368 -0.000578245,0.00080736 -0.000883732,0.00121104 -0.000294577,0.00040368 -0.000589155,0.00080736 -0.000894642,0.00121104 -0.000305488,0.00040368 -0.000610975,0.00080736 -0.000916463,0.00121104 -0.000305488,0.00040368 -0.000621886,0.00080736 -0.000938284,0.00121104 -0.000305488,0.00040368 -0.000621886,0.00080736 -0.000949194,0.00121104 -0.000316398,0.00040368 -0.000632796,0.00080736 -0.000960104,0.00121104 -0.000327308,0.00040368 -0.000654616,0.00080736 -0.000992835,0.00121104 -0.000327308,0.00041459 -0.000665527,0.000818271 -0.00100375,0.00122195 -0.000338218,0.00040368 -0.000676437,0.00080736 -0.00101466,0.00121104 -0.000338218,0.00040368 -0.000687347,0.00080736 -0.00103648,0.00121104 -0.000349129,0.00040368 -0.000709168,0.00080736 -0.0010583,0.00121104 -0.000360039,0.00040368 -0.000709168,0.00080736 -0.00106921,0.00121104 -0.000360039,0.00040368 -0.000730988,0.00080736 -0.00109103,0.00121104 -0.000370949,0.00040368 -0.000741899,0.00080736 -0.00111285,0.00121104 -0.00038186,0.00040368 -0.000752809,0.00080736 -0.00113467,0.00121104 -0.00038186,0.00040368 -0.000763719,0.000818271 -0.00114558,0.00122195 -0.00038186,0.00040368 -0.000774629,0.00080736 -0.0011674,0.00121104 -0.00039277,0.00040368 -0.00078554,0.00080736 -0.00118922,0.00121104 -0.00039277,0.00040368 -0.00079645,0.00080736 -0.00120013,0.00121104 -0.00040368,0.00040368 -0.00080736,0.00080736 -0.00122195,0.00121104 -0.00041459,0.00040368 -0.000829181,0.00080736 -0.00124377,0.00121104 -0.00041459,0.00040368 -0.000840091,0.00080736 -0.00126559,0.00121104 -0.000425501,0.00040368 -0.000851001,0.000818271 -0.00128741,0.00121104 -0.000425501,0.00041459 -0.000861912,0.000818271 -0.00129832,0.00121104 -0.000436411,0.00041459 -0.000883732,0.000818271 -0.00132014,0.00122195 -0.000447321,0.00040368 -0.000905553,0.00080736 -0.00135287,0.00121104 -0.000458232,0.00040368 -0.000905553,0.00080736 -0.00136378,0.00121104 -0.000458232,0.00040368 -0.000927373,0.00080736 -0.0013856,0.00121104 -0.000469142,0.00040368 -0.000938284,0.00080736 -0.00140743,0.00121104 -0.000480052,0.00040368 -0.000960104,0.00080736 -0.00144016,0.00121104 -0.000480052,0.00040368 -0.000960104,0.00080736 -0.00145107,0.00121104 -0.000490962,0.00040368 -0.000981925,0.000818271 -0.0014838,0.00122195 -0.000490962,0.00040368 -0.000992835,0.00080736 -0.00149471,0.00121104 -0.000501873,0.00040368 -0.00101466,0.00080736 -0.00151653,0.00121104 -0.000512783,0.00040368 -0.00103648,0.00080736 -0.00154926,0.00121104 -0.000523693,0.00040368 -0.00104739,0.00080736 -0.00157108,0.00121104 -0.000534603,0.00040368 -0.00106921,0.00080736 -0.0015929,0.00121104l-0.000556424 0.000425501 0.000240026 0.00078554 0.000360039 0.00121104 0.000370949 0.00121104 0.000360039 0.00122195 0.000370949 0.00121104 0.000360039 0.00121104 0.000360039 0.00121104 0.000370949 0.00121104 0.000360039 0.00121104 0.000370949 0.00121104 0.000360039 0.00121104 0.000370949 0.00122195 0.000360039 0.00121104 0.000360039 0.00121104 0.000370949 0.00121104 0.000360039 0.00121104 0.000370949 0.00121104 0.000360039 0.00121104 0.000370949 0.00121104 0.000360039 0.00122195 0.000370949 0.00121104 0.000360039 0.00121104 0.000360039 0.00121104 0.000370949 0.00121104 0.000360039 0.00121104 0.000370949 0.00121104 0.000360039 0.00122195 0.000370949 0.00120013 0.000360039 0.00122195 0.000370949 0.00121104 0.000360039 0.00121104 0.000360039 0.00121104 0.000370949 0.00121104 0.000360039 0.00121104 0.000370949 0.00121104 0.000360039 0.00122195 0.000370949 0.00121104 0.000360039 0.00121104 0.000370949 0.00121104 0.000360039 0.00121104 0.000370949 0.00121104 0.000250936 0.000872822 -0.00157108 -0.000872822 -0.00221479 -0.00121104 -0.00221479 -0.00121104 -0.00221479 -0.00121104 -0.00221479 -0.00121104 -0.00221479 -0.00121104 -0.00221479 -0.00122195 -0.00220388 -0.00121104 -0.00221479 -0.00121104 -0.00221479 -0.00121104 -0.00221479 -0.00121104 -0.00221479 -0.00121104 -0.00221479 -0.00121104 -0.00221479 -0.00122195 -0.00221479 -0.00120013 -0.00220388 -0.00122195 -0.00221479 -0.00121104 -0.00221479 -0.00121104 -0.00221479 -0.00121104 -0.00221479 -0.00121104 -0.00221479 -0.00121104 -0.00221479 -0.00121104 -0.00220388 -0.00122195 -0.0022257 -0.00121104 -0.00220388 -0.00121104 -0.000349129 -0.000185475 -0.000763719 0.000185475c-0.00161472,0.00040368 -0.00322944,0.00080736 -0.00485507,0.00121104 -0.00163654,0.00041459 -0.00328399,0.000818271 -0.00492053,0.00121104 -0.001702,0.00041459 -0.0033931,0.000818271 -0.00508419,0.00122195 -0.00177837,0.00041459 -0.00355675,0.000818271 -0.00533512,0.00121104 -0.0019093,0.00041459 -0.0038186,0.000829181 -0.00572789,0.00121104 -0.00214932,0.000425501 -0.00428774,0.000840091 -0.00641524,0.00121104 -0.00259665,0.000458232 -0.00518238,0.000861912 -0.00776812,0.00121104 -0.00418955,0.000567334 -0.00836818,0.000992835 -0.0125468,0.00121104 -0.00226934,0.000120013 -0.00453867,0.000185475 -0.0067971,0.000185475 -0.00296759,0 -0.00591337,-5.45514e-005 -0.00883732,-0.000185475 -0.0050951,-0.000218205 -0.0101247,-0.000632796 -0.015078,-0.00121104 -0.00292395,-0.000338218 -0.00581518,-0.000741899 -0.00869549,-0.00121104 -0.00226934,-0.000370949 -0.00452776,-0.000763719 -0.00676437,-0.00121104 -0.00189839,-0.00038186 -0.00377495,-0.00078554 -0.00565152,-0.00121104 -0.00166927,-0.00038186 -0.00333854,-0.00078554 -0.004986,-0.00121104 -0.00150562,-0.00039277 -0.00301124,-0.00079645 -0.00449503,-0.00122195 -0.00137469,-0.00038186 -0.00274939,-0.00078554 -0.00410226,-0.00121104 -0.0012765,-0.00038186 -0.00254209,-0.00079645 -0.00379678,-0.00121104 -0.00117831,-0.00039277 -0.00235662,-0.00079645 -0.00353493,-0.00121104 -0.00111285,-0.00039277 -0.00221479,-0.00079645 -0.00331672,-0.00121104 -0.0010583,-0.00039277 -0.00210568,-0.00079645 -0.00314216,-0.00121104 -0.00100375,-0.00040368 -0.00200749,-0.00079645 -0.00300033,-0.00121104 -0.000949194,-0.00040368 -0.0019093,-0.00079645 -0.00285849,-0.00121104 -0.000905553,-0.00040368 -0.0018002,-0.00080736 -0.00269484,-0.00121104 -0.000872822,-0.00040368 -0.00173473,-0.00080736 -0.00259665,-0.00122195 -0.000840091,-0.00039277 -0.00168018,-0.00079645 -0.00250936,-0.00121104 -0.00079645,-0.00039277 -0.00160381,-0.00079645 -0.00240026,-0.00121104 -0.000774629,-0.00039277 -0.00153835,-0.00080736 -0.00230207,-0.00121104 -0.000752809,-0.00040368 -0.00150562,-0.00079645 -0.00224752,-0.00121104 -0.000720078,-0.00040368 -0.00144016,-0.00080736 -0.00216023,-0.00121104 -0.000698258,-0.00040368 -0.00139652,-0.00080736 -0.00208386,-0.00121104 -0.000687347,-0.00040368 -0.00137469,-0.00080736 -0.00204022,-0.00122195 -0.000665527,-0.00039277 -0.00130923,-0.00079645 -0.00195294,-0.00121104 -0.000643706,-0.00040368 -0.0012765,-0.00079645 -0.00192021,-0.00121104 -0.000610975,-0.00039277 -0.00123286,-0.00080736 -0.00184384,-0.00121104 -0.000600065,-0.00040368 -0.00120013,-0.00080736 -0.0018002,-0.00121104 -0.000589155,-0.00040368 -0.00117831,-0.00080736 -0.00175655,-0.00121104 -0.000578245,-0.00040368 -0.00113467,-0.00080736 -0.001702,-0.00121104 -0.000556424,-0.00040368 -0.00112376,-0.00080736 -0.00166927,-0.00121104 -0.000545514,-0.00040368 -0.00108012,-0.00080736 -0.00161472,-0.00121104 -0.000523693,-0.00041459 -0.00106921,-0.00080736 -0.0015929,-0.00122195 -0.000512783,-0.00039277 -0.00101466,-0.00080736 -0.00152744,-0.00121104 -0.000501873,-0.00040368 -0.00101466,-0.00079645 -0.00151653,-0.00121104 -0.000490962,-0.00039277 -0.000971014,-0.00080736 -0.00145107,-0.00121104 -0.000480052,-0.00040368 -0.000971014,-0.00080736 -0.00145107,-0.00121104 -0.000458232,-0.00040368 -0.000916463,-0.00080736 -0.00137469,-0.00121104 -0.000469142,-0.00040368 -0.000927373,-0.00080736 -0.0013856,-0.00121104 -0.000447321,-0.00040368 -0.000883732,-0.00080736 -0.00132014,-0.00122195 -0.000436411,-0.00039277 -0.000883732,-0.00079645 -0.00130923,-0.00121104 -0.000436411,-0.00039277 -0.000851001,-0.00080736 -0.0012765,-0.00121104 -0.00041459,-0.00040368 -0.000840091,-0.00080736 -0.00125468,-0.00121104 -0.00040368,-0.00040368 -0.00080736,-0.00080736 -0.00121104,-0.00121104 -0.00040368,-0.00040368 -0.00079645,-0.00080736 -0.00118922,-0.00121104 -0.00039277,-0.00040368 -0.00078554,-0.00080736 -0.00117831,-0.00121104 -0.00038186,-0.00040368 -0.000752809,-0.00080736 -0.00113467,-0.00121104 -0.000370949,-0.00040368 -0.000752809,-0.00080736 -0.00112376,-0.00121104 -0.000370949,-0.00040368 -0.000720078,-0.000818271 -0.00108012,-0.00122195 -0.000360039,-0.00040368 -0.000730988,-0.00079645 -0.00108012,-0.00121104 -0.000349129,-0.00040368 -0.000687347,-0.00080736 -0.00103648,-0.00121104 -0.000349129,-0.00040368 -0.000687347,-0.00080736 -0.00102557,-0.00121104 -0.000338218,-0.00040368 -0.000676437,-0.00080736 -0.00100375,-0.00121104 -0.000327308,-0.00040368 -0.000654616,-0.00080736 -0.000981925,-0.00121104 -0.000316398,-0.00040368 -0.000643706,-0.00080736 -0.000960104,-0.00121104 -0.000316398,-0.00040368 -0.000621886,-0.00080736 -0.000927373,-0.00121104 -0.000316398,-0.00041459 -0.000621886,-0.00080736 -0.000927373,-0.00122195 -0.000305488,-0.00039277 -0.000600065,-0.00080736 -0.000894642,-0.00121104 -0.000294577,-0.00040368 -0.000589155,-0.00080736 -0.000883732,-0.00121104 -0.000283667,-0.00040368 -0.000578245,-0.00080736 -0.000861912,-0.00121104 -0.000283667,-0.00040368 -0.000556424,-0.00080736 -0.000829181,-0.00121104 -0.000283667,-0.00040368 -0.000567334,-0.00080736 -0.000840091,-0.00121104 -0.000261847,-0.00040368 -0.000523693,-0.00080736 -0.00079645,-0.00121104 -0.000261847,-0.00040368 -0.000523693,-0.00080736 -0.00078554,-0.00121104 -0.000250936,-0.00040368 -0.000512783,-0.00080736 -0.000774629,-0.00122195 -0.000250936,-0.00040368 -0.000490962,-0.00080736 -0.000741899,-0.00121104 -0.000240026,-0.00040368 -0.000490962,-0.00080736 -0.000741899,-0.00121104 -0.000240026,-0.00040368 -0.000469142,-0.00080736 -0.000709168,-0.00121104 -0.000240026,-0.00040368 -0.000469142,-0.00080736 -0.000698258,-0.00121104 -0.000229116,-0.00040368 -0.000469142,-0.00080736 -0.000698258,-0.00121104 -0.000218205,-0.00040368 -0.000436411,-0.00080736 -0.000654616,-0.00121104 -0.000218205,-0.00040368 -0.000436411,-0.00080736 -0.000654616,-0.00121104 -0.000218205,-0.00041459 -0.000425501,-0.00080736 -0.000643706,-0.00122195 -0.000207295,-0.00039277 -0.00040368,-0.00080736 -0.000610975,-0.00121104 -0.000207295,-0.00040368 -0.00041459,-0.00080736 -0.000610975,-0.00121104 -0.000207295,-0.00040368 -0.00039277,-0.00080736 -0.000589155,-0.00121104 -0.000196385,-0.00040368 -0.00038186,-0.00080736 -0.000578245,-0.00121104 -0.000185475,-0.00040368 -0.00038186,-0.00080736 -0.000567334,-0.00121104 -0.000185475,-0.00040368 -0.000360039,-0.00080736 -0.000534603,-0.00121104 -0.000174564,-0.00040368 -0.000360039,-0.00080736 -0.000534603,-0.00121104 -0.000174564,-0.00041459 -0.000349129,-0.00080736 -0.000523693,-0.00122195 -0.000163654,-0.00039277 -0.000327308,-0.00080736 -0.000490962,-0.00121104 -0.000163654,-0.00040368 -0.000338218,-0.00080736 -0.000490962,-0.00121104 -0.000163654,-0.00040368 -0.000327308,-0.00080736 -0.000480052,-0.00121104 -0.000152744,-0.00040368 -0.000305488,-0.00080736 -0.000458232,-0.00121104 -0.000141834,-0.00040368 -0.000305488,-0.00080736 -0.000447321,-0.00121104 -0.000152744,-0.00040368 -0.000283667,-0.00080736 -0.000425501,-0.00121104 -0.000141834,-0.00040368 -0.000283667,-0.00080736 -0.000425501,-0.00121104 -0.000130923,-0.00040368 -0.000283667,-0.00080736 -0.00041459,-0.00122195 -0.000130923,-0.00040368 -0.000250936,-0.00080736 -0.00038186,-0.00121104 -0.000130923,-0.00040368 -0.000261847,-0.00080736 -0.00038186,-0.00121104 -0.000120013,-0.00040368 -0.000261847,-0.00080736 -0.00038186,-0.00121104 -0.000120013,-0.00040368 -0.000218205,-0.00080736 -0.000338218,-0.00121104 -0.000120013,-0.00040368 -0.000229116,-0.00080736 -0.000338218,-0.00121104 -0.000120013,-0.00040368 -0.000229116,-0.00080736 -0.000338218,-0.00121104 -0.000109103,-0.00040368 -0.000207295,-0.00080736 -0.000305488,-0.00121104 -0.000109103,-0.00041459 -0.000207295,-0.00080736 -0.000305488,-0.00121104 -9.81925e-005,-0.00041459 -0.000207295,-0.000818271 -0.000305488,-0.00122195 -8.72822e-005,-0.00040368 -0.000174564,-0.00080736 -0.000261847,-0.00121104 -8.72822e-005,-0.00040368 -0.000185475,-0.00080736 -0.000272757,-0.00121104 -8.72822e-005,-0.00040368 -0.000174564,-0.00080736 -0.000261847,-0.00121104 -7.63719e-005,-0.00040368 -0.000141834,-0.00080736 -0.000229116,-0.00121104 -7.63719e-005,-0.00040368 -0.000152744,-0.00080736 -0.000229116,-0.00121104 -7.63719e-005,-0.00040368 -0.000152744,-0.00080736 -0.000218205,-0.00121104 -7.63719e-005,-0.00040368 -0.000130923,-0.000818271 -0.000196385,-0.00122195 -6.54616e-005,-0.00040368 -0.000141834,-0.00080736 -0.000196385,-0.00121104 -6.54616e-005,-0.00040368 -0.000130923,-0.00080736 -0.000185475,-0.00121104 -5.45514e-005,-0.00040368 -0.000109103,-0.00080736 -0.000163654,-0.00121104 -5.45514e-005,-0.00040368 -0.000109103,-0.00080736 -0.000163654,-0.00121104 -4.36411e-005,-0.00040368 -9.81925e-005,-0.00080736 -0.000141834,-0.00121104 -4.36411e-005,-0.00040368 -8.72822e-005,-0.00080736 -0.000130923,-0.00121104 -3.27308e-005,-0.00040368 -7.63719e-005,-0.00080736 -0.000120013,-0.00121104 -3.27308e-005,-0.00040368 -7.63719e-005,-0.00080736 -0.000109103,-0.00122195 -4.36411e-005,-0.00040368 -6.54616e-005,-0.00080736 -9.81925e-005,-0.00121104 -2.18205e-005,-0.00040368 -5.45514e-005,-0.00080736 -8.72822e-005,-0.00121104 -2.18205e-005,-0.00040368 -5.45514e-005,-0.00080736 -7.63719e-005,-0.00121104 -2.18205e-005,-0.00040368 -3.27308e-005,-0.00080736 -5.45514e-005,-0.00121104l-5.45514e-005 -0.00121104c-1.09103e-005,-0.00040368 -3.27308e-005,-0.00080736 -4.36411e-005,-0.00121104 -1.09103e-005,-0.00040368 -1.09103e-005,-0.00080736 -2.18205e-005,-0.00121104l-2.18205e-005 -0.00122195c0,-0.00038186 -1.09103e-005,-0.000774629 -1.09103e-005,-0.0011674l0 -4.36411e-005c0,-0.00040368 1.09103e-005,-0.00080736 1.09103e-005,-0.00121104 1.09103e-005,-0.00040368 1.09103e-005,-0.00080736 2.18205e-005,-0.00121104 1.09103e-005,-0.00040368 1.09103e-005,-0.00080736 2.18205e-005,-0.00121104 1.09103e-005,-0.00040368 3.27308e-005,-0.00080736 4.36411e-005,-0.00121104 2.18205e-005,-0.00040368 4.36411e-005,-0.00080736 5.45514e-005,-0.00121104 2.18205e-005,-0.00040368 3.27308e-005,-0.00080736 5.45514e-005,-0.00121104 2.18205e-005,-0.00041459 5.45514e-005,-0.000818271 8.72822e-005,-0.00122195 2.18205e-005,-0.00040368 5.45514e-005,-0.00080736 8.72822e-005,-0.00121104 3.27308e-005,-0.00040368 5.45514e-005,-0.00080736 8.72822e-005,-0.00121104 3.27308e-005,-0.00040368 7.63719e-005,-0.00080736 0.000120013,-0.00121104 4.36411e-005,-0.00040368 8.72822e-005,-0.00080736 0.000120013,-0.00121104 4.36411e-005,-0.00040368 8.72822e-005,-0.00080736 0.000130923,-0.00121104 4.36411e-005,-0.00040368 9.81925e-005,-0.00080736 0.000152744,-0.00121104 4.36411e-005,-0.00040368 0.000109103,-0.00080736 0.000163654,-0.00121104 5.45514e-005,-0.00040368 9.81925e-005,-0.000818271 0.000152744,-0.00122195 6.54616e-005,-0.00040368 0.000130923,-0.00080736 0.000196385,-0.00121104 5.45514e-005,-0.00040368 0.000120013,-0.00080736 0.000185475,-0.00121104 6.54616e-005,-0.00040368 0.000130923,-0.00080736 0.000196385,-0.00121104 7.63719e-005,-0.00040368 0.000152744,-0.00080736 0.000229116,-0.00121104 7.63719e-005,-0.00040368 0.000152744,-0.00080736 0.000229116,-0.00121104 7.63719e-005,-0.00040368 0.000152744,-0.00080736 0.000240026,-0.00121104 7.63719e-005,-0.00040368 0.000174564,-0.00080736 0.000261847,-0.00121104 8.72822e-005,-0.00041459 0.000174564,-0.000818271 0.000261847,-0.00122195 9.81925e-005,-0.00039277 0.000174564,-0.00080736 0.000272757,-0.00121104 9.81925e-005,-0.00040368 0.000196385,-0.00080736 0.000305488,-0.00121104 9.81925e-005,-0.00040368 0.000196385,-0.00080736 0.000305488,-0.00121104 9.81925e-005,-0.00040368 0.000196385,-0.00080736 0.000305488,-0.00121104 9.81925e-005,-0.00040368 0.000229116,-0.00080736 0.000338218,-0.00121104 0.000109103,-0.00040368 0.000229116,-0.00080736 0.000338218,-0.00121104 0.000120013,-0.00040368 0.000229116,-0.00080736 0.000349129,-0.00121104 0.000120013,-0.00041459 0.000250936,-0.00080736 0.00038186,-0.00121104 0.000120013,-0.00041459 0.000250936,-0.000818271 0.00038186,-0.00122195 0.000120013,-0.00040368 0.000250936,-0.00080736 0.00038186,-0.00121104 0.000130923,-0.00040368 0.000283667,-0.00080736 0.00041459,-0.00121104 0.000141834,-0.00040368 0.000283667,-0.00080736 0.000425501,-0.00121104 0.000141834,-0.00040368 0.000283667,-0.00080736 0.000425501,-0.00121104 0.000152744,-0.00040368 0.000305488,-0.00080736 0.000458232,-0.00121104 0.000152744,-0.00040368 0.000305488,-0.00080736 0.000458232,-0.00121104 0.000152744,-0.00041459 0.000316398,-0.000818271 0.000480052,-0.00122195 0.000163654,-0.00040368 0.000327308,-0.00080736 0.000490962,-0.00121104 0.000163654,-0.00040368 0.000327308,-0.00080736 0.000490962,-0.00121104 0.000174564,-0.00040368 0.000360039,-0.00080736 0.000534603,-0.00121104 0.000174564,-0.00040368 0.000349129,-0.00080736 0.000534603,-0.00121104 0.000174564,-0.00040368 0.000349129,-0.00080736 0.000534603,-0.00121104 0.000185475,-0.00040368 0.00038186,-0.00080736 0.000578245,-0.00121104 0.000185475,-0.00040368 0.000370949,-0.000818271 0.000567334,-0.00121104 0.000196385,-0.00040368 0.00039277,-0.000818271 0.000589155,-0.00121104 0.000196385,-0.00041459 0.00041459,-0.000818271 0.000610975,-0.00122195 0.000207295,-0.00040368 0.00041459,-0.00080736 0.000621886,-0.00121104 0.000207295,-0.00040368 0.000425501,-0.00080736 0.000643706,-0.00121104 0.000218205,-0.00040368 0.000436411,-0.00080736 0.000654616,-0.00121104 0.000218205,-0.00040368 0.000436411,-0.00080736 0.000654616,-0.00121104 0.000229116,-0.00040368 0.000469142,-0.00080736 0.000698258,-0.00121104 0.000240026,-0.00040368 0.000469142,-0.00080736 0.000698258,-0.00121104 0.000240026,-0.00040368 0.000480052,-0.000818271 0.000720078,-0.00121104 0.000250936,-0.00041459 0.000490962,-0.000818271 0.000741899,-0.00122195 0.000250936,-0.00040368 0.000490962,-0.00080736 0.000741899,-0.00121104 0.000261847,-0.00040368 0.000523693,-0.00080736 0.00078554,-0.00121104 0.000261847,-0.00040368 0.000523693,-0.00080736 0.00078554,-0.00121104 0.000261847,-0.00040368 0.000534603,-0.00080736 0.00079645,-0.00121104 0.000272757,-0.00041459 0.000556424,-0.00080736 0.000840091,-0.00121104 0.000272757,-0.00040368 0.000545514,-0.000818271 0.000829181,-0.00121104 0.000283667,-0.00041459 0.000578245,-0.00080736 0.000872822,-0.00121104 0.000283667,-0.00041459 0.000578245,-0.000818271 0.000872822,-0.00122195 0.000305488,-0.00040368 0.000600065,-0.00080736 0.000894642,-0.00121104 0.000305488,-0.00040368 0.000621886,-0.00080736 0.000938284,-0.00121104 0.000305488,-0.00040368 0.000610975,-0.00080736 0.000927373,-0.00121104 0.000316398,-0.00040368 0.000643706,-0.00080736 0.000971014,-0.00121104 0.000327308,-0.00040368 0.000643706,-0.00080736 0.000971014,-0.00121104 0.000338218,-0.00041459 0.000676437,-0.00080736 0.00100375,-0.00121104 0.000349129,-0.00041459 0.000687347,-0.000818271 0.00103648,-0.00121104 0.000338218,-0.00041459 0.000687347,-0.000818271 0.00103648,-0.00122195 0.000360039,-0.00040368 0.000720078,-0.00080736 0.00108012,-0.00121104 0.000360039,-0.00040368 0.000720078,-0.00080736 0.00108012,-0.00121104 0.000370949,-0.00040368 0.000763719,-0.00080736 0.00113467,-0.00121104 0.00038186,-0.00040368 0.000752809,-0.00080736 0.00113467,-0.00121104 0.00039277,-0.00040368 0.00078554,-0.00080736 0.00117831,-0.00121104 0.00039277,-0.00040368 0.00079645,-0.000818271 0.00118922,-0.00121104 0.00040368,-0.00041459 0.000818271,-0.000818271 0.00122195,-0.00121104 0.00041459,-0.00041459 0.000840091,-0.000818271 0.00125468,-0.00122195 0.000425501,-0.00040368 0.000851001,-0.00080736 0.0012765,-0.00121104z"/>
 </g>
</svg>
